<svg width="69" height="82" viewBox="0 0 69 82" fill="none" xmlns="http://www.w3.org/2000/svg">
<g filter="url(#filter0_d_44_8902)">
<path d="M34.1085 18.7188C26.3098 18.7188 20 24.7067 20 32.0855C20 39.4643 34.1085 60.6106 34.1085 60.6106C34.1085 60.6106 48.2171 39.4643 48.2171 32.0855C48.2171 24.7067 41.9072 18.7188 34.1085 18.7188Z" fill="#F58021"/>
<path d="M30.7655 37.5146C30.844 37.6854 30.9646 37.6042 31.0907 37.6014C31.2925 37.5958 31.4158 37.4614 31.598 37.3831C31.4382 37.3355 31.3037 37.2935 31.1608 37.2487C31.1159 37.3411 31.0683 37.4419 31.0178 37.5454C31.0038 37.5454 30.987 37.5454 30.973 37.5454C30.9561 37.4698 30.9337 37.3943 30.9281 37.3187C30.9225 37.2291 30.8917 37.1843 30.7964 37.1815C30.7431 37.1787 30.6899 37.1451 30.617 37.1171C30.5637 37.2571 30.5021 37.4139 30.4292 37.607C30.3059 37.3943 30.3283 37.1955 30.3395 37.0023C30.1769 36.9099 30.1769 36.9099 30.076 37.2151C30.0564 37.1675 30.0228 37.1199 30.02 37.0723C30.0088 36.9547 29.9611 36.8819 29.835 36.8483C29.7341 36.8176 29.7004 36.8288 29.6976 36.9379C29.6948 37.0667 29.6808 37.1983 29.6584 37.3271C29.65 37.3859 29.6135 37.4419 29.5911 37.5006C29.5771 37.5006 29.5631 37.5006 29.5519 37.5006C29.5351 37.4475 29.5154 37.3943 29.4986 37.3411C29.451 37.1815 29.4089 37.0191 29.3585 36.8595C29.3389 36.7952 29.308 36.7588 29.2239 36.7868C29.1679 36.8064 29.1006 36.7896 29.0081 36.7896C28.9857 36.8567 28.952 36.9491 28.9184 37.0415C28.9044 37.0443 28.8876 37.0471 28.8736 37.0499C28.8455 36.9687 28.8203 36.8875 28.7867 36.8064C28.7671 36.7588 28.739 36.7168 28.7138 36.672C28.683 36.7168 28.6549 36.7644 28.6241 36.8092C28.6129 36.8288 28.6017 36.8483 28.5736 36.9015C28.5176 36.7924 28.4755 36.7056 28.4279 36.6132C28.0467 36.5992 28.1728 36.9379 28.0859 37.1283C28.0719 37.1311 28.0579 37.1339 28.0411 37.1367C28.0103 37.0499 27.9654 36.9687 27.9542 36.8791C27.9402 36.7728 27.9626 36.6664 27.9598 36.5572C27.9598 36.5208 27.9346 36.4872 27.9206 36.4508C27.8813 36.4704 27.8225 36.4788 27.8084 36.5068C27.7748 36.5908 27.758 36.6832 27.7047 36.7812C27.6851 36.7028 27.6571 36.6244 27.6515 36.546C27.6347 36.3052 27.6207 36.0673 27.6122 35.8265C27.601 35.569 27.6907 35.4458 27.9374 35.3534C28.0299 35.317 28.114 35.2526 28.2093 35.2162C28.2878 35.1854 28.3859 35.1462 28.4615 35.1658C28.6633 35.2134 28.8624 35.2778 29.053 35.359C29.2099 35.4262 29.3613 35.4654 29.5351 35.4682C29.6976 35.471 29.8602 35.5298 30.0172 35.5858C30.1321 35.6277 30.2274 35.6585 30.3479 35.5941C30.4096 35.5634 30.5161 35.5746 30.5862 35.6053C30.7543 35.6753 30.9197 35.6613 31.0935 35.6361C31.3654 35.5997 31.6373 35.5858 31.9119 35.555C31.9932 35.5466 32.0773 35.527 32.1502 35.4934C32.2707 35.4374 32.3884 35.3702 32.5006 35.2974C32.5706 35.2498 32.6267 35.177 32.694 35.1238C32.8509 34.995 33.0275 34.981 33.2209 35.0342C33.2882 35.0538 33.3695 35.023 33.4451 35.0174C33.49 35.0146 33.5376 35.009 33.5825 35.0062C33.7226 34.995 33.8628 34.9838 34.0057 34.9755C34.1263 34.9671 34.2496 34.9363 34.3617 34.9615C34.6056 35.0174 34.7737 34.8803 34.9447 34.7599C34.9784 34.7375 34.9868 34.6031 34.9531 34.5695C34.7849 34.3987 34.799 34.214 34.8634 34.0124C34.9363 33.7828 35.0624 33.6009 35.2951 33.5141C35.4941 33.4385 35.5558 33.3237 35.5081 33.1194C35.5025 33.0998 35.4885 33.0802 35.4717 33.0662C35.3848 32.9878 35.3007 32.9038 35.2054 32.8366C35.1718 32.8142 35.1073 32.8198 35.0624 32.8366C35.0344 32.845 34.998 32.8982 35.0036 32.9262C35.0372 33.1305 34.8746 33.2593 34.813 33.4301C34.7513 33.2985 34.6588 33.1753 34.6925 33.0242C34.7149 32.9206 34.6672 32.8646 34.5831 32.8562C34.5299 32.8506 34.4654 32.8982 34.415 32.9318C34.3617 32.9682 34.3084 33.0102 34.2664 33.0606C34.2244 33.111 34.1935 33.1725 34.1459 33.2481C34.0814 33.1222 34.1291 33.0018 34.1403 32.8898C34.1487 32.8142 34.1991 32.7414 34.2132 32.6658C34.2216 32.6182 34.2103 32.5566 34.1823 32.5174C34.1683 32.4979 34.0982 32.5118 34.0562 32.523C33.9665 32.5482 33.8796 32.579 33.7815 32.6126C33.7282 32.4475 33.846 32.3467 33.9413 32.2487C34.0394 32.1479 34.1599 32.0667 34.3 31.9547C34.2468 31.9267 34.2047 31.9071 34.1347 31.8708C34.2776 31.8316 34.3701 31.7924 34.4682 31.784C34.6 31.7756 34.6308 31.6888 34.6476 31.5936C34.7149 31.1821 34.8887 30.8209 35.1325 30.4906C35.2194 30.373 35.3427 30.2834 35.4436 30.177C35.4913 30.1294 35.5473 30.0734 35.5642 30.0147C35.6875 29.5527 36.0098 29.2756 36.4163 29.0684C36.4275 29.0628 36.4415 29.0572 36.4471 29.0544C36.4078 28.6933 36.3714 28.3349 36.3322 27.971C36.0995 27.8478 35.9902 27.5958 35.8332 27.3831C35.8192 27.3635 35.8052 27.3383 35.7856 27.3271C35.5894 27.2039 35.3624 27.1087 35.1998 26.9519C35.0428 26.8008 34.855 26.7532 34.6728 26.6748C34.5187 26.6076 34.3645 26.5404 34.216 26.462C34.1515 26.4284 34.101 26.3668 34.031 26.3053C33.9357 26.2773 33.8123 26.2493 33.6974 26.2045C33.4816 26.1205 33.277 26.0141 33.0583 25.9441C32.893 25.8909 32.7108 25.8853 32.5398 25.8461C32.4697 25.8293 32.4053 25.7873 32.3408 25.7537C32.3184 25.7425 32.2959 25.7229 32.2735 25.7229C32.0381 25.7145 31.783 25.7593 31.5672 25.6894C31.2869 25.597 30.9898 25.6838 30.7291 25.5606C30.4124 25.4094 30.0844 25.4934 29.7621 25.471C29.7257 25.4682 29.6836 25.4822 29.65 25.471C29.2688 25.3394 28.91 25.5046 28.54 25.541C28.4447 25.5494 28.3466 25.5438 28.2485 25.5466C28.2121 25.5466 28.1756 25.5522 28.1392 25.5578C27.8337 25.611 27.5254 25.6642 27.2226 25.7229C27.1245 25.7425 27.0264 25.7789 26.9311 25.8125C26.7013 25.8909 26.4602 25.9357 26.236 26.0449C25.8548 26.2325 25.44 26.3528 25.07 26.5684C24.8289 26.7084 24.5711 26.8176 24.3132 26.9268C24.2431 26.9575 24.1506 26.9352 24.0693 26.9352C24.1002 26.8624 24.117 26.7728 24.1702 26.7224C24.2347 26.658 24.3328 26.6244 24.4113 26.5712C24.4477 26.546 24.4898 26.5096 24.5038 26.4704C24.543 26.364 24.6047 26.2969 24.7252 26.2857C24.7645 26.2829 24.8093 26.2437 24.8317 26.2101C24.9046 26.0897 24.9887 26.0001 25.112 26.0197C25.1905 25.9497 25.255 25.8965 25.3166 25.8405C25.3475 25.8125 25.3727 25.7817 25.4007 25.7509C25.4175 25.7313 25.4288 25.695 25.4512 25.6866C25.6362 25.6026 25.8212 25.5242 26.0062 25.4402C26.0454 25.4206 26.0874 25.3982 26.1211 25.373C26.2752 25.2582 26.4658 25.1994 26.592 25.0315C26.6256 24.9839 26.7573 25.0007 26.8442 25.0035C26.9311 25.0035 26.9816 24.9755 27.0404 24.9055C27.0993 24.8355 27.2002 24.7795 27.2899 24.7599C27.416 24.7347 27.545 24.7823 27.6459 24.6311C27.6879 24.5667 27.8421 24.5807 27.9458 24.5499C27.999 24.5359 28.0803 24.5191 28.0972 24.4799C28.1728 24.3176 28.3074 24.34 28.4419 24.3344C28.5232 24.3316 28.6073 24.3036 28.6886 24.2868C28.7867 24.2672 28.8876 24.2224 28.9829 24.228C29.0782 24.2364 29.1454 24.228 29.2043 24.1524C29.2183 24.1356 29.2407 24.1132 29.2604 24.1132C29.4958 24.1048 29.692 23.8948 29.9499 23.9788C29.9779 23.9872 30.0172 23.962 30.048 23.9508C30.2638 23.8724 30.4768 23.7885 30.6927 23.7185C30.7515 23.6989 30.8272 23.7045 30.8861 23.7241C31.0346 23.7717 31.1552 23.7241 31.2897 23.6653C31.3654 23.6317 31.4635 23.6457 31.5504 23.6401C31.6345 23.6345 31.7185 23.6345 31.8026 23.6289C31.8194 23.6289 31.8391 23.6093 31.8559 23.6121C32.1558 23.6933 32.4809 23.4609 32.7724 23.6905C32.8061 23.7185 32.8902 23.7045 32.9406 23.6821C33.0583 23.6317 33.1592 23.5925 33.277 23.6933C33.3106 23.7213 33.3891 23.6961 33.448 23.6989C33.5348 23.7045 33.6189 23.7101 33.7058 23.7213C33.8179 23.7353 33.9301 23.7717 34.0422 23.7689C34.1683 23.7661 34.2748 23.7773 34.3757 23.8668C34.4346 23.9172 34.5355 23.9368 34.6196 23.9396C34.7625 23.9424 34.8971 23.934 35.0008 24.06C35.012 24.074 35.0428 24.0768 35.0652 24.074C35.0877 24.074 35.1213 24.0516 35.1325 24.06C35.2699 24.1748 35.4492 24.1468 35.6034 24.2056C35.7043 24.2448 35.7912 24.3148 35.8865 24.3652C35.9117 24.3792 35.951 24.3764 35.979 24.3652C36.1023 24.3232 36.178 24.3792 36.2257 24.4855C36.2705 24.5863 36.335 24.6339 36.4499 24.6367C36.5059 24.6395 36.5956 24.6759 36.6125 24.7207C36.6601 24.8411 36.7414 24.8635 36.8535 24.8635C36.8871 24.8635 36.9236 24.8859 36.9572 24.9027C37.4281 25.1574 37.899 25.415 38.3727 25.6642C38.8884 25.9357 39.2809 26.3444 39.6621 26.77C39.8779 27.0135 40.0853 27.2627 40.3235 27.4951C40.2759 27.4111 40.217 27.3327 40.1806 27.2431C40.1526 27.1787 40.1217 27.0835 40.1498 27.0359C40.2563 26.854 40.374 26.6748 40.5085 26.5124C40.5842 26.4228 40.6991 26.406 40.8141 26.4872C40.8561 26.518 40.9178 26.5264 40.9738 26.5348C41.0915 26.5544 41.2009 26.5656 41.2485 26.7084C41.2625 26.7504 41.3662 26.77 41.4307 26.784C41.6185 26.8204 41.6774 26.8512 41.7334 26.9659C41.512 27.0639 41.5232 27.0667 41.6886 27.2683C41.9997 27.6462 42.2015 28.069 42.1174 28.5785C42.1118 28.6177 42.1342 28.6681 42.1539 28.7073C42.2912 28.962 42.2884 29.2168 42.1426 29.4659C42.0277 29.6619 41.9324 29.8775 41.6774 29.9475C42.1342 31.1933 42.1314 32.4307 41.6886 33.6793C42.0165 33.7353 42.266 33.906 42.479 34.1384C42.4846 34.144 42.493 34.1524 42.4986 34.158C42.6696 34.4127 42.8518 34.6535 43.062 34.8803C43.1657 34.9922 43.1994 35.1938 43.219 35.359C43.2442 35.5886 43.2274 35.8237 43.2246 36.0589C43.2218 36.2632 43.2975 36.3752 43.4824 36.448C43.589 36.49 43.6927 36.5432 43.7908 36.602C43.844 36.6356 43.8833 36.6972 43.9281 36.7448C43.9197 36.7532 43.9141 36.7644 43.9057 36.7728C43.8496 36.7616 43.7964 36.7532 43.7235 36.7392C43.7347 36.77 43.7347 36.7924 43.7459 36.798C43.8665 36.8875 43.987 36.9771 44.1131 37.0611C44.2841 37.1787 44.242 37.3691 44.2869 37.5398C44.1411 37.4111 43.9057 37.5286 43.7936 37.3327C43.7796 37.3075 43.6871 37.3299 43.6646 37.3299C43.6478 37.579 43.6338 37.8114 43.6198 38.041C43.6086 38.0466 43.5946 38.0494 43.5834 38.055C43.4937 37.9486 43.404 37.8422 43.3115 37.7386C43.2834 37.7078 43.2218 37.6658 43.2134 37.6742C43.1741 37.705 43.1237 37.7582 43.1293 37.7946C43.1433 37.8898 43.1013 37.9262 43.0256 37.9654C42.9807 37.9878 42.9499 38.041 42.9135 38.0829C42.8798 38.1221 42.849 38.1669 42.8182 38.2089C42.8041 38.2061 42.7901 38.2033 42.7761 38.2005C42.7705 38.1305 42.7593 38.0606 42.7565 37.9906C42.7509 37.8898 42.7565 37.789 42.7509 37.6882C42.7425 37.5762 42.6752 37.5482 42.5827 37.6126C42.5603 37.6294 42.5379 37.6518 42.5126 37.6546C42.3557 37.6826 42.3529 37.6826 42.2996 37.8422C42.2716 37.7918 42.2492 37.7638 42.2379 37.7274C42.1931 37.5622 42.2772 37.3327 42.4229 37.2431C42.5771 37.1507 42.5995 36.8819 42.521 36.756C42.4313 36.6132 42.3361 36.476 42.2492 36.3332C42.1763 36.2129 42.1426 36.0925 42.1903 35.9469C42.2408 35.7901 42.1539 35.6697 41.9941 35.6277C41.7418 35.5634 41.4924 35.4962 41.2289 35.4234C41.1252 35.5718 41.0131 35.7369 40.8953 35.8993C40.5954 36.3108 40.2226 36.6216 39.7125 36.742C39.648 36.756 39.5892 36.8064 39.5331 36.8427C39.4434 36.9015 39.3593 36.9743 39.2388 36.9267C39.2192 36.9183 39.1771 36.9407 39.1603 36.9631C38.4568 37.8982 37.5711 38.6037 36.4639 38.9984C35.9986 39.1636 35.5193 39.284 35.0372 39.3931C34.869 39.4295 34.6784 39.3791 34.5019 39.3483C34.429 39.3343 34.3757 39.3203 34.3113 39.3707C33.7479 39.7991 33.1284 39.8831 32.4557 39.6927C32.0353 39.5751 31.6148 39.5527 31.186 39.6759C31.057 39.7123 30.9085 39.6787 30.7711 39.6787C30.5049 39.6759 30.2414 39.6731 29.9751 39.6731C29.9527 39.6731 29.9275 39.6787 29.9078 39.6899C29.5799 39.8859 29.2239 39.7627 28.8792 39.7767C28.4924 39.7935 28.1896 39.5835 27.915 39.3343C27.8113 39.2392 27.8253 39.1048 27.9458 38.9788C27.9738 38.948 27.9934 38.9004 27.999 38.8584C28.0187 38.724 28.0299 38.5869 28.0439 38.4497C28.0635 38.4469 28.0831 38.4441 28.1 38.4413C28.1196 38.5001 28.1336 38.5645 28.1616 38.6205C28.1925 38.6793 28.2373 38.7772 28.2793 38.78C28.3606 38.7828 28.4671 38.7576 28.4671 38.6261C28.4671 38.5757 28.5008 38.5253 28.554 38.4665C28.5821 38.5281 28.6073 38.5897 28.6353 38.6569C28.753 38.5673 28.8792 38.4889 28.9801 38.3853C29.0277 38.3349 29.0249 38.2369 29.0445 38.1613C29.0754 38.0494 29.0782 37.9234 29.2183 37.8282C29.2323 38.027 29.2436 38.2033 29.2576 38.3769C29.2772 38.3825 29.294 38.3881 29.3136 38.3909C29.3557 38.3125 29.3949 38.2313 29.451 38.1249C29.4874 38.2117 29.5126 38.2733 29.5407 38.3377C29.5911 38.3377 29.6388 38.3377 29.6864 38.3377C29.7172 38.2481 29.7453 38.1641 29.7873 38.0354C29.8266 38.1137 29.8378 38.1613 29.8658 38.1921C29.8966 38.2257 29.9443 38.2649 29.9863 38.2649C30.0564 38.2677 30.1097 38.2313 30.1069 38.1445C30.1041 38.0885 30.1181 38.0298 30.1237 37.9514C30.2022 37.999 30.2554 38.0326 30.3115 38.069C30.3423 38.013 30.3731 37.9598 30.4096 37.8954C30.6618 38.027 30.5105 37.7638 30.5553 37.7106C30.645 37.7162 30.7151 37.7218 30.7824 37.7246C30.7543 37.6658 30.7599 37.5902 30.7655 37.5146ZM35.7688 31.798C35.7576 31.7952 35.7464 31.7924 35.7379 31.7868C35.5754 31.9015 35.4128 32.0191 35.2334 32.1451C35.2727 32.2571 35.3035 32.3803 35.3624 32.4895C35.4268 32.6126 35.5165 32.7218 35.4689 32.8758C35.4605 32.9066 35.4801 32.9486 35.4885 32.985C35.581 32.5846 35.6735 32.1927 35.7688 31.798Z" fill="#20113D"/>
</g>
<defs>
<filter id="filter0_d_44_8902" x="-3.25586" y="-2.97277" width="75" height="90" filterUnits="userSpaceOnUse" color-interpolation-filters="sRGB">
<feFlood flood-opacity="0" result="BackgroundImageFix"/>
<feColorMatrix in="SourceAlpha" type="matrix" values="0 0 0 0 0 0 0 0 0 0 0 0 0 0 0 0 0 0 127 0" result="hardAlpha"/>
<feOffset dy="1.28114"/>
<feGaussianBlur stdDeviation="10"/>
<feColorMatrix type="matrix" values="0 0 0 0 0.960784 0 0 0 0 0.501961 0 0 0 0 0.129412 0 0 0 0.5 0"/>
<feBlend mode="normal" in2="BackgroundImageFix" result="effect1_dropShadow_44_8902"/>
<feBlend mode="normal" in="SourceGraphic" in2="effect1_dropShadow_44_8902" result="shape"/>
</filter>
</defs>
</svg>
