<svg width="12" height="12" viewBox="0 0 12 12" fill="none" xmlns="http://www.w3.org/2000/svg">
<path d="M5.88992 6.47104C6.24944 6.47104 6.60088 6.36737 6.8998 6.17315C7.19873 5.97893 7.43171 5.70287 7.5693 5.37989C7.70688 5.05691 7.74287 4.70152 7.67274 4.35864C7.6026 4.01577 7.42947 3.70082 7.17526 3.45362C6.92104 3.20642 6.59715 3.03808 6.24454 2.96988C5.89194 2.90167 5.52645 2.93668 5.1943 3.07046C4.86215 3.20424 4.57826 3.4308 4.37852 3.72147C4.17879 4.01215 4.07218 4.35389 4.07218 4.70348C4.07218 5.17226 4.26369 5.62185 4.60458 5.95333C4.94547 6.28482 5.40782 6.47104 5.88992 6.47104ZM5.88992 4.11429C6.00976 4.11429 6.12691 4.14884 6.22655 4.21359C6.32619 4.27833 6.40385 4.37034 6.44971 4.478C6.49557 4.58566 6.50757 4.70413 6.48419 4.81842C6.46081 4.93271 6.4031 5.0377 6.31837 5.1201C6.23363 5.2025 6.12566 5.25861 6.00813 5.28134C5.89059 5.30408 5.76876 5.29241 5.65805 5.24782C5.54733 5.20322 5.4527 5.1277 5.38612 5.03081C5.31954 4.93392 5.28401 4.82001 5.28401 4.70348C5.28401 4.54721 5.34784 4.39735 5.46147 4.28686C5.5751 4.17636 5.72922 4.11429 5.88992 4.11429ZM11.7006 9.51125C11.4048 8.55707 10.8648 7.69147 10.1313 6.99542C10.5396 6.27783 10.7483 5.46906 10.7368 4.64903C10.7252 3.829 10.4939 3.02609 10.0655 2.31963C9.6372 1.61316 9.02672 1.0276 8.29441 0.620786C7.5621 0.213976 6.73331 0 5.88992 0C5.04653 0 4.21774 0.213976 3.48543 0.620786C2.75312 1.0276 2.14264 1.61316 1.7143 2.31963C1.28596 3.02609 1.0546 3.829 1.04306 4.64903C1.03152 5.46906 1.24022 6.27783 1.64852 6.99542C0.910704 7.68917 0.368284 8.5554 0.073143 9.51125C-0.00572889 9.77337 -0.0210614 10.0497 0.0283488 10.3186C0.077759 10.5874 0.190568 10.8415 0.357923 11.0608C0.528433 11.2838 0.750616 11.4646 1.00644 11.5885C1.26226 11.7123 1.54452 11.7758 1.83029 11.7737H9.94954C10.2343 11.7749 10.5154 11.711 10.77 11.5871C11.0247 11.4633 11.246 11.283 11.4159 11.0608C11.5832 10.8415 11.696 10.5874 11.7454 10.3186C11.7948 10.0497 11.7795 9.77337 11.7006 9.51125ZM5.88992 1.16835C6.60895 1.16835 7.31184 1.37568 7.90969 1.76413C8.50754 2.15257 8.97351 2.70468 9.24867 3.35064C9.52383 3.9966 9.59583 4.7074 9.45555 5.39315C9.31528 6.07889 8.96903 6.70879 8.4606 7.20319C7.95217 7.69759 7.30438 8.03427 6.59917 8.17068C5.89395 8.30708 5.16298 8.23707 4.49868 7.96951C3.83438 7.70194 3.2666 7.24884 2.86712 6.66749C2.46765 6.08614 2.25443 5.40266 2.25443 4.70348C2.25443 3.7659 2.63746 2.86673 3.31924 2.20376C4.00103 1.5408 4.92573 1.16835 5.88992 1.16835ZM10.4464 10.3538C10.3894 10.4297 10.3145 10.4912 10.2281 10.5332C10.1417 10.5752 10.0462 10.5965 9.94954 10.5954H1.83029C1.73367 10.5965 1.63815 10.5752 1.55172 10.5332C1.46529 10.4912 1.39045 10.4297 1.33344 10.3538C1.27896 10.2808 1.24244 10.1966 1.22668 10.1078C1.21092 10.0189 1.21635 9.9277 1.24256 9.84119C1.46006 9.12902 1.85079 8.47827 2.38168 7.94401C2.83436 8.40568 3.37869 8.7732 3.98172 9.02431C4.58475 9.27543 5.23392 9.4049 5.88992 9.4049C6.54592 9.4049 7.19509 9.27543 7.79812 9.02431C8.40115 8.7732 8.94549 8.40568 9.39816 7.94401C9.92905 8.47827 10.3198 9.12902 10.5373 9.84119C10.5635 9.9277 10.5689 10.0189 10.5532 10.1078C10.5374 10.1966 10.5009 10.2808 10.4464 10.3538Z" fill="white"/>
</svg>
