<svg width="112" height="112" viewBox="0 0 112 112" fill="none" xmlns="http://www.w3.org/2000/svg">
<g filter="url(#filter0_d_39051_9061)">
<circle cx="56" cy="52" r="52" fill="#F58021"/>
</g>
<path d="M42.8582 75.5723C47.1926 74.5812 49.933 71.7994 52.7092 68.8438C52.3331 68.7395 52.0465 68.6525 51.7599 68.583C47.9449 67.6441 44.4343 66.0446 41.2104 63.8713C39.2222 62.5326 37.5923 60.8461 36.3565 58.7945C36.1953 58.5337 36.0699 58.2555 35.9445 57.9774C35.9087 57.9078 35.9087 57.8209 35.8729 57.5775C37.0908 57.9426 38.2371 58.2903 39.3655 58.638C39.4013 58.6033 39.4193 58.5859 39.4551 58.5511C39.3297 58.4468 39.2222 58.3425 39.0969 58.2555C37.6282 57.3341 36.1953 56.3778 34.7087 55.5085C33.0071 54.5001 31.216 53.6308 29.5682 52.5876C27.3652 51.1793 25.8069 49.1973 24.6785 46.9023C24.6248 46.798 24.6069 46.6937 24.589 46.5894C24.5711 46.5372 24.589 46.4677 24.589 46.3112C26.4159 47.0762 28.1174 48.1541 30.2309 47.9629C26.0756 45.6505 23.4964 42.4167 23.6755 37.5485C25.4487 39.4436 27.1861 41.3213 28.9234 43.199C28.9592 43.1643 29.013 43.1121 29.0488 43.0773C28.3324 41.7212 27.4905 40.3998 26.9532 38.9742C26.4159 37.5485 26.0577 36.0011 25.8786 34.4885C25.6995 32.9759 25.8427 31.4285 25.8427 29.8985C25.9323 29.8812 26.0218 29.8812 26.0935 29.8638C26.9353 31.7067 27.7771 33.5497 28.6189 35.41C28.7085 35.41 28.798 35.3926 28.8876 35.3926C28.8518 32.0371 29.2279 28.751 30.822 25.7432C30.8936 25.7432 30.9653 25.7432 31.0369 25.7606C31.0369 26.5082 31.0727 27.2384 31.0369 27.9861C30.8399 31.6546 32.2907 34.7841 34.4579 37.6354C35.9087 39.5305 37.6998 41.1127 39.6342 42.5384C42.1775 44.4161 45.0254 45.7896 47.8732 47.1457C50.5241 48.3975 52.8525 50.1014 55.0376 52.0139C56.363 53.1788 57.7422 54.2741 59.1034 55.4042C59.4795 55.7171 59.8557 56.0649 60.2855 56.4474C60.9841 54.8826 61.6289 53.4222 62.2737 51.9443C63.8319 48.4323 66.1783 45.4766 69.0798 42.9209C71.3903 40.8867 73.7367 38.922 76.0472 36.9052C79.1816 34.1582 81.1339 30.7505 81.7608 26.6821C81.9936 25.239 81.8862 23.7264 81.9399 22.266C81.9399 22.0226 81.9399 21.7618 82.0295 21.501C83.1579 24.0046 83.4803 26.6473 83.7489 29.3943C84.8594 27.2037 85.952 25.013 87.0625 22.8049C87.152 22.8223 87.2416 22.8397 87.3132 22.8571C87.1878 25.0999 87.1699 27.3428 86.9012 29.5682C86.6326 31.7763 86.1132 33.9495 85.7012 36.0533C86.2565 35.2187 86.9012 34.2625 87.6535 33.1672C87.7072 35.3057 87.6356 37.2355 86.7042 39.0611C85.7908 40.8693 84.3221 42.2254 82.728 43.5641C83.6056 43.738 84.3042 43.4424 84.9848 43.1121C85.6475 42.7991 86.2565 42.4167 87.0266 41.982C86.955 42.3123 86.9192 42.5384 86.8475 42.747C85.8803 45.2854 84.3758 47.4761 82.119 49.093C80.7399 50.1014 79.2712 50.9881 77.9099 51.9965C77.0502 52.6398 76.4412 53.0397 76.4054 53.9264C76.9786 53.7351 77.5338 53.5612 78.1965 53.3526C77.086 57.0385 74.1486 59.2987 71.5874 61.9414C71.8381 62.0457 72.0351 62.1153 72.2322 62.2022C73.5038 62.7064 74.5785 63.4714 75.3129 64.6189C75.8681 65.4708 75.9935 66.3749 75.7606 67.3659C75.689 67.6615 75.8681 68.0614 76.0651 68.3222C76.6741 69.2263 76.7636 70.1477 76.2263 71.0866C75.7069 72.0081 74.8472 72.4601 73.7188 72.5297C74.6143 70.9649 74.5785 70.6172 73.3606 69.7826C73.2352 70.4259 73.1098 71.0344 72.9844 71.6777C72.1784 71.0344 71.4799 70.2694 70.6023 69.8174C69.7067 69.3654 68.65 69.2437 67.5753 68.9481C67.629 69.1741 67.629 69.3132 67.6828 69.4349C68.4709 71.3648 69.2052 73.3294 70.1008 75.2245C70.4232 75.92 71.068 76.5111 71.659 77.0327C72.2143 77.5195 72.6083 77.3457 72.8232 76.6328C72.9665 76.1286 73.0202 75.607 73.1098 75.1028C73.1994 74.6508 73.4501 74.4595 73.7725 74.5986C73.8441 75.0159 73.9337 75.3462 73.9516 75.6766C73.9695 76.0243 73.9695 76.3894 73.8979 76.7198C73.8262 77.0153 73.6292 77.2935 73.4859 77.5717C73.5218 77.6238 73.5755 77.6586 73.6113 77.7108C74.0949 77.3978 74.5964 77.0849 75.0621 76.7545C75.2949 76.5807 75.4741 76.3546 75.689 76.1634C76.5308 75.4158 76.9427 75.4679 77.5338 76.459C77.2114 76.4242 76.9248 76.372 76.6203 76.3373C76.5666 77.6238 75.1696 77.6065 74.5964 78.4758C75.277 78.441 75.886 78.3888 76.495 78.3888C77.4263 78.3888 77.8025 78.8061 77.6234 79.7276C77.3547 79.1017 76.9069 79.1886 76.4771 79.3625C75.5636 79.7276 74.6322 79.6059 73.7009 79.4842C72.6799 79.3451 71.7665 79.4842 70.8888 80.0753C70.3157 80.4752 69.7246 80.8577 68.9007 80.6838C68.7216 80.649 68.3992 81.2228 68.1664 81.501C67.7902 81.0142 67.8082 80.5447 68.435 80.1622C68.8291 79.9188 69.2948 79.7971 69.7246 79.6233C69.9933 79.5189 70.2799 79.432 70.5127 79.2581C71.0321 78.8756 71.0321 78.6322 70.5306 78.2497C69.2948 77.2761 68.0589 76.3199 66.8231 75.3462C66.7156 75.2593 66.5902 75.1898 66.4827 75.1724C64.8528 75.0333 63.9573 73.9901 63.2767 72.7209C63.1334 72.4427 63.0259 72.0602 62.6319 72.3036C62.4169 72.4427 62.1841 72.86 62.2558 73.0686C62.6319 74.4422 63.4558 75.5201 64.7275 76.2155C65.2827 76.1286 65.3902 74.8073 66.1783 75.607C66.1066 75.9026 66.0529 76.0765 66.0171 76.2503C66.232 76.2851 66.4648 76.372 66.6798 76.3546C67.038 76.3546 67.3962 76.2851 67.7544 76.2503C67.7723 76.3199 67.7902 76.4068 67.8082 76.4763C67.5574 76.598 67.3066 76.7198 66.9663 76.8936C68.6858 76.9805 68.6858 76.9805 68.7574 77.8672C68.2022 77.3457 67.6649 77.7629 67.1275 77.8325C65.9096 77.9716 65.0678 78.5279 64.62 79.6928C64.4767 80.0579 64.0827 80.3187 63.7244 80.7186C63.7424 80.7708 63.7961 80.9446 63.8319 81.1359C63.0617 80.8751 62.8826 80.51 63.2588 79.8493C63.5453 79.3451 63.9215 78.8756 64.2618 78.3888C64.5663 77.9542 64.5663 77.5891 63.9931 77.3457C63.0617 76.9458 62.2737 76.3025 61.1811 76.1982C60.7691 76.1634 60.4109 75.6244 59.999 75.2767C59.8019 75.5896 59.5333 75.9548 59.3183 76.372C58.6915 77.6065 57.6347 78.3541 56.3093 78.7018C52.136 79.8145 48.1956 79.1886 44.5239 76.9805C43.9149 76.6328 43.4671 76.0938 42.8582 75.5723Z" fill="#20113D"/>
<defs>
<filter id="filter0_d_39051_9061" x="0" y="0" width="112" height="112" filterUnits="userSpaceOnUse" color-interpolation-filters="sRGB">
<feFlood flood-opacity="0" result="BackgroundImageFix"/>
<feColorMatrix in="SourceAlpha" type="matrix" values="0 0 0 0 0 0 0 0 0 0 0 0 0 0 0 0 0 0 127 0" result="hardAlpha"/>
<feOffset dy="4"/>
<feGaussianBlur stdDeviation="2"/>
<feColorMatrix type="matrix" values="0 0 0 0 0 0 0 0 0 0 0 0 0 0 0 0 0 0 0.25 0"/>
<feBlend mode="normal" in2="BackgroundImageFix" result="effect1_dropShadow_39051_9061"/>
<feBlend mode="normal" in="SourceGraphic" in2="effect1_dropShadow_39051_9061" result="shape"/>
</filter>
</defs>
</svg>
