<svg width="120" height="120" viewBox="0 0 120 120" fill="none" xmlns="http://www.w3.org/2000/svg">
<circle cx="60" cy="60" r="58.5" stroke="white" stroke-width="3"/>
<g filter="url(#filter0_d_39050_9059)">
<circle cx="60" cy="60" r="52" fill="white"/>
</g>
<path d="M46.8582 83.5723C51.1926 82.5812 53.933 79.7994 56.7092 76.8438C56.3331 76.7395 56.0465 76.6525 55.7599 76.583C51.9449 75.6441 48.4343 74.0446 45.2104 71.8713C43.2222 70.5326 41.5923 68.8461 40.3565 66.7945C40.1953 66.5337 40.0699 66.2555 39.9445 65.9774C39.9087 65.9078 39.9087 65.8209 39.8729 65.5775C41.0908 65.9426 42.2371 66.2903 43.3655 66.638C43.4013 66.6033 43.4193 66.5859 43.4551 66.5511C43.3297 66.4468 43.2222 66.3425 43.0969 66.2555C41.6282 65.3341 40.1953 64.3778 38.7087 63.5085C37.0071 62.5001 35.216 61.6308 33.5682 60.5876C31.3652 59.1793 29.8069 57.1973 28.6785 54.9023C28.6248 54.798 28.6069 54.6937 28.589 54.5894C28.5711 54.5372 28.589 54.4676 28.589 54.3112C30.4159 55.0762 32.1174 56.1541 34.2309 55.9629C30.0756 53.6505 27.4964 50.4167 27.6755 45.5485C29.4487 47.4436 31.1861 49.3213 32.9234 51.199C32.9592 51.1643 33.013 51.1121 33.0488 51.0773C32.3324 49.7212 31.4905 48.3998 30.9532 46.9742C30.4159 45.5485 30.0577 44.0011 29.8786 42.4885C29.6995 40.9759 29.8427 39.4285 29.8427 37.8985C29.9323 37.8812 30.0218 37.8812 30.0935 37.8638C30.9353 39.7067 31.7771 41.5497 32.6189 43.41C32.7085 43.41 32.798 43.3926 32.8876 43.3926C32.8518 40.0371 33.2279 36.751 34.822 33.7432C34.8936 33.7432 34.9653 33.7432 35.0369 33.7606C35.0369 34.5082 35.0727 35.2384 35.0369 35.9861C34.8399 39.6546 36.2907 42.7841 38.4579 45.6354C39.9087 47.5305 41.6998 49.1127 43.6342 50.5384C46.1775 52.4161 49.0254 53.7896 51.8732 55.1457C54.5241 56.3975 56.8525 58.1014 59.0376 60.0139C60.363 61.1788 61.7422 62.2741 63.1034 63.4042C63.4795 63.7171 63.8557 64.0649 64.2855 64.4474C64.9841 62.8826 65.6289 61.4222 66.2737 59.9443C67.8319 56.4323 70.1782 53.4766 73.0798 50.9209C75.3903 48.8867 77.7367 46.922 80.0472 44.9052C83.1816 42.1582 85.1339 38.7505 85.7608 34.6821C85.9936 33.239 85.8862 31.7264 85.9399 30.266C85.9399 30.0226 85.9399 29.7618 86.0295 29.501C87.1579 32.0046 87.4803 34.6473 87.7489 37.3943C88.8594 35.2037 89.952 33.013 91.0625 30.8049C91.152 30.8223 91.2416 30.8397 91.3132 30.8571C91.1878 33.0999 91.1699 35.3428 90.9012 37.5682C90.6326 39.7763 90.1132 41.9495 89.7012 44.0533C90.2565 43.2187 90.9012 42.2625 91.6535 41.1672C91.7072 43.3057 91.6356 45.2355 90.7042 47.0611C89.7908 48.8693 88.3221 50.2254 86.728 51.5641C87.6056 51.738 88.3042 51.4424 88.9848 51.1121C89.6475 50.7991 90.2565 50.4167 91.0266 49.982C90.955 50.3123 90.9192 50.5384 90.8475 50.747C89.8803 53.2854 88.3758 55.4761 86.119 57.093C84.7399 58.1014 83.2712 58.9881 81.9099 59.9965C81.0502 60.6398 80.4412 61.0397 80.4054 61.9264C80.9786 61.7351 81.5338 61.5612 82.1965 61.3526C81.086 65.0385 78.1486 67.2987 75.5874 69.9414C75.8381 70.0457 76.0351 70.1153 76.2322 70.2022C77.5038 70.7064 78.5785 71.4714 79.3129 72.6189C79.8681 73.4708 79.9935 74.3749 79.7606 75.3659C79.689 75.6615 79.8681 76.0614 80.0651 76.3222C80.6741 77.2263 80.7636 78.1477 80.2263 79.0866C79.7069 80.0081 78.8472 80.4601 77.7188 80.5297C78.6143 78.9649 78.5785 78.6172 77.3606 77.7826C77.2352 78.4259 77.1098 79.0344 76.9844 79.6777C76.1784 79.0344 75.4799 78.2694 74.6023 77.8174C73.7067 77.3654 72.65 77.2437 71.5753 76.9481C71.629 77.1741 71.629 77.3132 71.6828 77.4349C72.4709 79.3648 73.2052 81.3294 74.1008 83.2245C74.4232 83.92 75.068 84.5111 75.659 85.0327C76.2143 85.5195 76.6083 85.3457 76.8232 84.6328C76.9665 84.1286 77.0202 83.607 77.1098 83.1028C77.1994 82.6508 77.4501 82.4595 77.7725 82.5986C77.8442 83.0159 77.9337 83.3462 77.9516 83.6766C77.9695 84.0243 77.9695 84.3894 77.8979 84.7198C77.8262 85.0153 77.6292 85.2935 77.4859 85.5717C77.5218 85.6238 77.5755 85.6586 77.6113 85.7108C78.0949 85.3978 78.5964 85.0849 79.0621 84.7545C79.2949 84.5807 79.474 84.3546 79.689 84.1634C80.5308 83.4158 80.9427 83.4679 81.5338 84.459C81.2114 84.4242 80.9248 84.372 80.6203 84.3373C80.5666 85.6238 79.1696 85.6064 78.5964 86.4758C79.277 86.441 79.886 86.3888 80.495 86.3888C81.4263 86.3888 81.8025 86.8061 81.6234 87.7276C81.3547 87.1017 80.9069 87.1886 80.4771 87.3625C79.5636 87.7276 78.6322 87.6059 77.7009 87.4842C76.6799 87.3451 75.7665 87.4842 74.8888 88.0753C74.3157 88.4752 73.7246 88.8577 72.9007 88.6838C72.7216 88.649 72.3992 89.2228 72.1664 89.501C71.7902 89.0142 71.8082 88.5447 72.435 88.1622C72.8291 87.9188 73.2948 87.7971 73.7246 87.6233C73.9933 87.5189 74.2799 87.432 74.5127 87.2581C75.0321 86.8756 75.0321 86.6322 74.5306 86.2497C73.2948 85.2761 72.0589 84.3199 70.8231 83.3462C70.7156 83.2593 70.5902 83.1898 70.4827 83.1724C68.8528 83.0333 67.9573 81.9901 67.2767 80.7209C67.1334 80.4427 67.0259 80.0602 66.6319 80.3036C66.4169 80.4427 66.1841 80.86 66.2558 81.0686C66.6319 82.4422 67.4558 83.5201 68.7275 84.2155C69.2827 84.1286 69.3902 82.8073 70.1783 83.607C70.1066 83.9026 70.0529 84.0765 70.0171 84.2503C70.232 84.2851 70.4648 84.372 70.6798 84.3546C71.038 84.3546 71.3962 84.2851 71.7544 84.2503C71.7723 84.3199 71.7902 84.4068 71.8082 84.4763C71.5574 84.598 71.3066 84.7198 70.9663 84.8936C72.6858 84.9805 72.6858 84.9805 72.7574 85.8672C72.2022 85.3457 71.6649 85.7629 71.1275 85.8325C69.9096 85.9716 69.0678 86.5279 68.62 87.6928C68.4767 88.0579 68.0827 88.3187 67.7244 88.7186C67.7424 88.7708 67.7961 88.9446 67.8319 89.1359C67.0617 88.8751 66.8826 88.51 67.2588 87.8493C67.5453 87.3451 67.9215 86.8756 68.2618 86.3888C68.5663 85.9542 68.5663 85.5891 67.9931 85.3457C67.0617 84.9458 66.2737 84.3025 65.1811 84.1982C64.7691 84.1634 64.4109 83.6244 63.999 83.2767C63.8019 83.5896 63.5333 83.9548 63.3183 84.372C62.6915 85.6065 61.6347 86.3541 60.3093 86.7018C56.136 87.8145 52.1956 87.1886 48.5239 84.9805C47.9149 84.6328 47.4671 84.0938 46.8582 83.5723Z" fill="#20113D"/>
<defs>
<filter id="filter0_d_39050_9059" x="4" y="8" width="112" height="112" filterUnits="userSpaceOnUse" color-interpolation-filters="sRGB">
<feFlood flood-opacity="0" result="BackgroundImageFix"/>
<feColorMatrix in="SourceAlpha" type="matrix" values="0 0 0 0 0 0 0 0 0 0 0 0 0 0 0 0 0 0 127 0" result="hardAlpha"/>
<feOffset dy="4"/>
<feGaussianBlur stdDeviation="2"/>
<feColorMatrix type="matrix" values="0 0 0 0 0 0 0 0 0 0 0 0 0 0 0 0 0 0 0.25 0"/>
<feBlend mode="normal" in2="BackgroundImageFix" result="effect1_dropShadow_39050_9059"/>
<feBlend mode="normal" in="SourceGraphic" in2="effect1_dropShadow_39050_9059" result="shape"/>
</filter>
</defs>
</svg>
