<svg width="93" height="111" viewBox="0 0 93 111" fill="none" xmlns="http://www.w3.org/2000/svg">
<g filter="url(#filter0_d_44_8900)">
<path d="M46.124 28.6992C37.2113 28.6992 30 35.8847 30 44.7393C30 53.5939 46.124 78.9695 46.124 78.9695C46.124 78.9695 62.2481 53.5939 62.2481 44.7393C62.2481 35.8847 55.0368 28.6992 46.124 28.6992Z" fill="white"/>
</g>
<path d="M42.2882 53.6968C43.5929 53.3754 44.4177 52.4732 45.2533 51.5146C45.1401 51.4807 45.0538 51.4525 44.9676 51.43C43.8193 51.1255 42.7626 50.6067 41.7922 49.9019C41.1938 49.4677 40.7032 48.9207 40.3312 48.2554C40.2827 48.1708 40.245 48.0806 40.2073 47.9903C40.1965 47.9678 40.1965 47.9396 40.1857 47.8606C40.5523 47.9791 40.8973 48.0918 41.2369 48.2046C41.2477 48.1933 41.2531 48.1877 41.2639 48.1764C41.2262 48.1426 41.1938 48.1087 41.1561 48.0806C40.714 47.7817 40.2827 47.4716 39.8353 47.1896C39.3231 46.8626 38.784 46.5806 38.288 46.2423C37.6249 45.7856 37.1559 45.1427 36.8163 44.3984C36.8001 44.3646 36.7947 44.3308 36.7893 44.2969C36.7839 44.28 36.7893 44.2575 36.7893 44.2067C37.3392 44.4548 37.8513 44.8044 38.4875 44.7424C37.2368 43.9924 36.4604 42.9436 36.5144 41.3648C37.0481 41.9794 37.571 42.5884 38.0939 43.1974C38.1047 43.1861 38.1209 43.1692 38.1317 43.1579C37.916 42.7181 37.6627 42.2895 37.5009 41.8271C37.3392 41.3648 37.2314 40.8629 37.1775 40.3723C37.1235 39.8818 37.1667 39.3799 37.1667 38.8837C37.1936 38.8781 37.2206 38.8781 37.2422 38.8724C37.4955 39.4701 37.7489 40.0678 38.0023 40.6712C38.0293 40.6712 38.0562 40.6655 38.0832 40.6655C38.0724 39.5773 38.1856 38.5115 38.6654 37.536C38.687 37.536 38.7085 37.536 38.7301 37.5417C38.7301 37.7841 38.7409 38.021 38.7301 38.2634C38.6708 39.4532 39.1075 40.4682 39.7598 41.393C40.1965 42.0076 40.7356 42.5207 41.3178 42.9831C42.0834 43.5921 42.9405 44.0375 43.7977 44.4774C44.5956 44.8834 45.2964 45.436 45.9542 46.0562C46.3531 46.434 46.7682 46.7893 47.1779 47.1558C47.2911 47.2573 47.4044 47.3701 47.5337 47.4941C47.744 46.9866 47.9381 46.513 48.1322 46.0337C48.6012 44.8946 49.3074 43.936 50.1808 43.1071C50.8762 42.4474 51.5825 41.8102 52.2779 41.1561C53.2213 40.2652 53.809 39.16 53.9977 37.8405C54.0677 37.3725 54.0354 36.8819 54.0516 36.4083C54.0516 36.3293 54.0516 36.2447 54.0785 36.1602C54.4182 36.9721 54.5152 37.8292 54.5961 38.7202C54.9303 38.0097 55.2592 37.2992 55.5934 36.5831C55.6204 36.5887 55.6473 36.5943 55.6689 36.6C55.6312 37.3274 55.6258 38.0548 55.5449 38.7766C55.464 39.4927 55.3077 40.1975 55.1837 40.8798C55.3508 40.6092 55.5449 40.299 55.7713 39.9438C55.7875 40.6374 55.7659 41.2633 55.4856 41.8553C55.2107 42.4418 54.7686 42.8816 54.2888 43.3158C54.5529 43.3722 54.7632 43.2763 54.9681 43.1692C55.1675 43.0677 55.3508 42.9436 55.5826 42.8026C55.5611 42.9098 55.5503 42.9831 55.5287 43.0508C55.2376 43.874 54.7848 44.5845 54.1055 45.1089C53.6904 45.436 53.2483 45.7235 52.8386 46.0506C52.5798 46.2592 52.3965 46.3889 52.3857 46.6765C52.5582 46.6145 52.7254 46.5581 52.9248 46.4904C52.5906 47.6858 51.7064 48.4189 50.9355 49.276C51.011 49.3098 51.0703 49.3324 51.1296 49.3606C51.5124 49.5241 51.8358 49.7722 52.0569 50.1444C52.224 50.4207 52.2617 50.7139 52.1916 51.0353C52.1701 51.1311 52.224 51.2608 52.2833 51.3454C52.4666 51.6386 52.4935 51.9375 52.3318 52.242C52.1755 52.5408 51.9167 52.6874 51.5771 52.71C51.8466 52.2025 51.8358 52.0897 51.4692 51.8191C51.4315 52.0277 51.3938 52.2251 51.356 52.4337C51.1134 52.2251 50.9032 51.977 50.639 51.8303C50.3695 51.6837 50.0514 51.6443 49.7279 51.5484C49.7441 51.6217 49.7441 51.6668 49.7603 51.7063C49.9975 52.3322 50.2185 52.9694 50.4881 53.584C50.5851 53.8096 50.7792 54.0013 50.9571 54.1704C51.1242 54.3283 51.2428 54.2719 51.3075 54.0408C51.3506 53.8772 51.3668 53.7081 51.3938 53.5445C51.4207 53.3979 51.4962 53.3359 51.5932 53.381C51.6148 53.5163 51.6418 53.6235 51.6471 53.7306C51.6525 53.8434 51.6525 53.9618 51.631 54.0689C51.6094 54.1648 51.5501 54.255 51.507 54.3452C51.5178 54.3622 51.5339 54.3734 51.5447 54.3904C51.6903 54.2889 51.8412 54.1874 51.9814 54.0802C52.0515 54.0238 52.1054 53.9505 52.1701 53.8885C52.4235 53.646 52.5475 53.663 52.7254 53.9844C52.6283 53.9731 52.5421 53.9562 52.4504 53.9449C52.4342 54.3622 52.0137 54.3565 51.8412 54.6385C52.0461 54.6272 52.2294 54.6103 52.4127 54.6103C52.693 54.6103 52.8062 54.7456 52.7523 55.0445C52.6715 54.8415 52.5367 54.8697 52.4073 54.926C52.1323 55.0445 51.852 55.005 51.5717 54.9655C51.2644 54.9204 50.9894 54.9655 50.7253 55.1572C50.5528 55.2869 50.3748 55.411 50.1269 55.3546C50.0729 55.3433 49.9759 55.5294 49.9058 55.6196C49.7926 55.4617 49.798 55.3095 49.9867 55.1854C50.1053 55.1065 50.2455 55.067 50.3748 55.0106C50.4557 54.9768 50.542 54.9486 50.6121 54.8922C50.7684 54.7682 50.7684 54.6892 50.6174 54.5652C50.2455 54.2494 49.8735 53.9393 49.5015 53.6235C49.4691 53.5953 49.4314 53.5727 49.3991 53.5671C48.9085 53.522 48.6389 53.1837 48.4341 52.772C48.3909 52.6818 48.3586 52.5578 48.24 52.6367C48.1753 52.6818 48.1052 52.8171 48.1268 52.8848C48.24 53.3303 48.488 53.6799 48.8707 53.9054C49.0379 53.8772 49.0702 53.4487 49.3074 53.7081C49.2858 53.8039 49.2697 53.8603 49.2589 53.9167C49.3236 53.928 49.3937 53.9562 49.4584 53.9505C49.5662 53.9505 49.674 53.928 49.7818 53.9167C49.7872 53.9393 49.7926 53.9674 49.798 53.99C49.7225 54.0295 49.647 54.0689 49.5446 54.1253C50.0622 54.1535 50.0622 54.1535 50.0837 54.4411C49.9166 54.2719 49.7549 54.4073 49.5931 54.4298C49.2265 54.4749 48.9732 54.6554 48.8384 55.0332C48.7953 55.1516 48.6767 55.2362 48.5688 55.3659C48.5742 55.3828 48.5904 55.4392 48.6012 55.5012C48.3694 55.4166 48.3154 55.2982 48.4287 55.0839C48.5149 54.9204 48.6281 54.7682 48.7306 54.6103C48.8222 54.4693 48.8222 54.3509 48.6497 54.2719C48.3694 54.1422 48.1322 53.9336 47.8033 53.8998C47.6793 53.8885 47.5715 53.7137 47.4475 53.6009C47.3882 53.7024 47.3073 53.8208 47.2426 53.9562C47.0539 54.3565 46.7359 54.599 46.3369 54.7118C45.0808 55.0726 43.8948 54.8697 42.7896 54.1535C42.6063 54.0408 42.4715 53.8659 42.2882 53.6968Z" fill="#20113D"/>
<defs>
<filter id="filter0_d_44_8900" x="-1.90735e-06" y="-0.000853062" width="92.2481" height="110.27" filterUnits="userSpaceOnUse" color-interpolation-filters="sRGB">
<feFlood flood-opacity="0" result="BackgroundImageFix"/>
<feColorMatrix in="SourceAlpha" type="matrix" values="0 0 0 0 0 0 0 0 0 0 0 0 0 0 0 0 0 0 127 0" result="hardAlpha"/>
<feOffset dy="1.29993"/>
<feGaussianBlur stdDeviation="15"/>
<feColorMatrix type="matrix" values="0 0 0 0 1 0 0 0 0 1 0 0 0 0 1 0 0 0 0.5 0"/>
<feBlend mode="normal" in2="BackgroundImageFix" result="effect1_dropShadow_44_8900"/>
<feBlend mode="normal" in="SourceGraphic" in2="effect1_dropShadow_44_8900" result="shape"/>
</filter>
</defs>
</svg>
