<svg width="112" height="112" viewBox="0 0 112 112" fill="none" xmlns="http://www.w3.org/2000/svg">
<g filter="url(#filter0_d_38996_9061)">
<circle cx="56" cy="52" r="52" fill="#F58021"/>
</g>
<path fill-rule="evenodd" clip-rule="evenodd" d="M69.1978 46.9514C69.8218 48.2855 70.4457 49.6197 71.0924 51.0129C70.929 51.1468 70.7636 51.2851 70.5956 51.4254L70.5948 51.4261L70.5947 51.4261C70.2148 51.7436 69.8222 52.0716 69.4133 52.3825C68.959 52.7261 68.5085 53.0745 68.0582 53.4227L68.0576 53.4233L68.0575 53.4233C66.945 54.2838 65.8339 55.1431 64.671 55.9246C60.4847 58.7465 55.8672 59.8918 50.898 59.4431C49.6841 59.3368 48.4021 58.9 47.8916 58.534C48.1864 56.41 48.4698 54.3449 48.7533 52.2799L48.7538 52.2763C48.7198 52.2645 48.6829 52.2556 48.646 52.2468C48.6091 52.2379 48.5723 52.2291 48.5382 52.2173C48.4278 52.4505 48.3182 52.6838 48.2088 52.9169L48.2085 52.9176C47.936 53.4981 47.6643 54.0768 47.381 54.6495C46.6453 56.1624 46.152 57.769 45.6575 59.3792C45.5192 59.8298 45.3807 60.2808 45.2368 60.73C44.3292 63.5283 42.7068 65.6772 39.95 66.728C39.8138 66.787 39.7004 67.0231 39.6436 67.2002C39.5325 67.5673 39.4337 67.9387 39.335 68.3098L39.3349 68.3101C39.2019 68.8102 39.069 69.3098 38.9062 69.7978C38.2822 71.6869 37.1137 73.1509 35.5367 74.2726C34.8333 74.7685 34.1299 75.2762 33.4605 75.8193C32.8819 76.2798 32.9046 76.4805 33.4719 76.941C33.5828 77.0311 33.6944 77.1199 33.8057 77.2084L33.8058 77.2085L33.8058 77.2085C34.1612 77.4912 34.5137 77.7716 34.8333 78.0862C35.3552 78.6057 35.5934 79.2669 35.4005 80.0226C35.3552 80.1997 35.0942 80.4358 34.9354 80.4358C31.2142 80.4594 27.4816 80.4594 23.7604 80.4476C23.6243 80.4476 23.4314 80.4004 23.352 80.3059C23.238 80.1616 23.1214 80.0178 23.0044 79.8736L23.0042 79.8733L23.0042 79.8733C22.5854 79.3571 22.1623 78.8354 21.8431 78.2633C21.6389 77.8973 21.6162 77.2834 21.7523 76.8701C23.0684 72.7023 24.7588 68.747 27.9468 65.7126C28.0829 65.5827 28.1623 65.2993 28.1737 65.0986C28.2531 62.0997 28.5934 59.1243 29.3309 56.2316C29.9662 53.7285 30.6469 51.2255 31.8495 48.9231C34.0618 44.7199 36.9208 41.2132 41.3114 39.3241C45.0893 37.7065 48.7765 37.9545 52.3729 39.8672C52.8666 40.1321 53.3131 40.4954 53.7481 40.8492C53.9528 41.0157 54.155 41.1801 54.3583 41.3313C53.9499 40.4103 53.2351 39.6547 52.4637 38.9581C53.1901 38.6705 53.9193 38.3921 54.6472 38.1143L54.6474 38.1142C57.8639 36.8863 61.0552 35.6681 63.8769 33.704C64.0011 34.1539 64.1232 34.6083 64.2459 35.0653L64.2459 35.0654C64.4034 35.6518 64.562 36.2423 64.7278 36.8328C64.7732 36.9745 64.8639 37.1044 64.9774 37.2225C64.7505 35.7584 64.7505 34.2943 65.2837 32.9483C65.7829 31.6732 66.3842 30.3862 67.1556 29.2764C69.0503 26.5844 71.3307 24.2466 73.872 22.204L73.872 22.204L73.872 22.204C73.9741 22.1214 74.0762 22.0387 74.1896 21.9561C74.3718 21.8351 74.5524 21.7061 74.7333 21.5769C75.6114 20.9497 76.4984 20.3161 77.6272 20.5511C79.4878 20.9289 81.0421 21.9443 82.1086 23.6091C82.4149 24.0813 82.7666 24.4119 83.2544 24.589C84.5251 25.0495 85.4781 25.8406 86.0907 27.1275C86.3128 27.5977 86.6331 28.0142 86.9539 28.4313C87.1084 28.6321 87.263 28.833 87.4068 29.0402C87.7017 29.4653 87.7585 29.8195 87.4294 30.3154C87.1572 30.7286 87.021 31.2836 86.9416 31.7913C86.8395 32.3934 87.0664 32.783 87.679 33.1136C89.2787 33.9637 90.209 35.8647 89.3241 37.7892C89.1766 38.108 89.0405 38.4268 88.9157 38.7574C88.3257 40.3395 87.2025 40.8944 85.6596 40.3395C85.6341 40.3306 85.6078 40.3218 85.5816 40.3129L85.5815 40.3129C85.5028 40.2863 85.4242 40.2598 85.3646 40.2332C85.081 40.6465 84.7974 41.0479 84.491 41.4729C84.4475 41.4176 84.4102 41.3772 84.3817 41.3464C84.3433 41.305 84.3209 41.2807 84.3209 41.2604C84.4116 40.245 83.8217 39.6429 83.1637 39.0289C80.0891 36.148 76.3225 36.6675 73.7472 38.3323C74.0367 38.2712 74.3236 38.2045 74.6096 38.138L74.6096 38.138C75.1529 38.0117 75.6931 37.8861 76.2431 37.801C79.5105 37.3287 82.3468 38.8518 83.8557 41.898C84.8995 43.9996 85.6369 46.1957 85.4554 48.6279L85.4534 48.6564V48.6565C85.4199 49.1328 85.3835 49.6517 85.1944 50.0684C84.5364 51.5325 84.7406 53.0083 85.1037 54.4606L85.1706 54.7312C85.5112 56.111 85.861 57.5276 86.5105 58.7465C89.0178 63.4338 89.222 68.499 89.0405 73.635C88.961 75.8429 88.2803 77.8029 86.5332 79.2315C85.5575 80.0344 84.5137 80.5893 83.209 80.483C82.6077 80.4358 81.9951 80.424 81.3938 80.483C80.2593 80.6129 79.4765 80.0226 78.8071 79.1961C78.081 78.3106 77.752 77.2834 77.9562 76.1263C78.013 75.8193 78.2285 75.4415 78.4781 75.2998C78.7916 75.1265 79.0205 75.367 79.2525 75.6107C79.2892 75.6492 79.3259 75.6878 79.363 75.7248C79.7127 76.077 80.1745 76.3358 80.6147 76.5825L80.6147 76.5825L80.6223 76.5868C81.0081 76.7993 81.2123 76.6222 81.2577 76.1735C81.3031 75.6422 81.1442 75.1935 80.7585 74.8511C78.5916 72.9266 77.2301 70.4117 76.0049 67.8024C75.0632 65.7834 74.4619 63.67 74.2464 61.4267C74.0875 59.7383 74.3712 58.0971 74.6775 56.4559C74.825 55.7121 74.9725 54.9565 75.0178 54.189C75.1199 52.6659 74.6094 51.379 73.3501 50.5643C71.7958 49.5607 70.4117 48.3564 69.2999 46.8451C69.3112 46.8805 69.2545 46.9159 69.1978 46.9514ZM72.5212 52.3137C73.1793 52.8686 73.4175 53.5062 73.2814 54.2973C73.1975 54.8087 73.1051 55.3187 73.0128 55.8287L73.0126 55.8294L73.0126 55.8295C72.8428 56.7675 72.6728 57.7058 72.5553 58.654C72.1695 61.8537 72.8843 64.8763 74.0755 67.7926C74.2911 68.3239 74.3138 68.749 74.0869 69.2803C73.0545 71.7125 71.9313 74.0857 70.4791 76.2936C68.5958 79.1509 65.9637 80.4732 62.6737 80.4732C62.4792 80.4732 62.2858 80.4764 62.0929 80.4796H62.0928C61.6439 80.4871 61.1972 80.4945 60.745 80.4614C60.5181 80.4496 60.2344 80.2961 60.1096 80.1072C59.0546 78.6196 59.2361 75.538 60.45 74.1802C60.5861 74.0267 60.8925 73.885 61.0626 73.944C61.192 73.9921 61.2837 74.1968 61.3685 74.3859C61.3878 74.429 61.4067 74.4713 61.4257 74.5107C61.4725 74.6082 61.5065 74.7155 61.5404 74.8223C61.5968 75.0002 61.6526 75.1764 61.766 75.3018C61.9703 75.5498 62.322 75.904 62.5489 75.8567C62.7871 75.8095 63.0254 75.3727 63.1275 75.0657C63.2296 74.7705 63.1955 74.4045 63.1388 74.0975C63.0566 73.6652 62.9534 73.2361 62.8505 72.8078L62.8505 72.8077C62.6695 72.0545 62.4892 71.3038 62.4241 70.5436C62.1177 67.1314 62.4127 63.7783 63.8309 60.6258C64.1599 59.9056 64.5343 59.1735 65.0221 58.5596C65.5326 57.8984 66.168 57.3199 66.8146 56.8004C67.4782 56.2577 68.162 55.7446 68.8467 55.2307L68.8468 55.2307L68.8471 55.2304C69.3095 54.8834 69.7723 54.5361 70.2295 54.1792C70.7396 53.7751 71.2446 53.3604 71.7581 52.9387C72.0099 52.7319 72.2637 52.5235 72.5212 52.3137ZM48.1375 60.7059C47.8462 60.6162 47.5535 60.5261 47.2553 60.4348C47.1543 60.6627 47.0563 60.8939 46.958 61.1258C46.7915 61.5188 46.624 61.9142 46.4385 62.3003C45.3153 64.6617 43.8404 66.7161 41.56 68.0385C41.3785 68.1447 41.2537 68.4163 41.1857 68.6406C40.6411 70.5415 39.9604 72.3598 38.7011 73.8947C38.6103 74.0128 38.5309 74.2253 38.5649 74.3552C38.962 75.6658 39.3704 76.9763 39.8129 78.2633C39.8923 78.4876 40.1306 78.7001 40.3461 78.83C41.1516 79.3023 41.9571 79.7628 42.7853 80.1996C43.0576 80.3413 43.3753 80.4712 43.6702 80.4712C46.0693 80.4889 48.4619 80.4867 50.8577 80.4845C51.657 80.4837 52.4566 80.483 53.2569 80.483H53.9603C53.884 80.3202 53.8218 80.1614 53.763 80.0111C53.6468 79.7145 53.5436 79.451 53.3704 79.2551C52.9392 78.771 52.4514 78.3105 51.9295 77.9445C51.4394 77.6014 50.9074 77.3165 50.3773 77.0327C50.2324 76.9552 50.0878 76.8778 49.9441 76.7992C49.3769 76.4804 49.1273 76.0082 49.1727 75.347C49.1802 75.1895 49.1979 75.0321 49.2155 74.8747C49.2243 74.796 49.2332 74.7173 49.2407 74.6385C49.2754 74.2811 49.3186 73.9225 49.3618 73.5635C49.46 72.7486 49.5584 71.9315 49.5584 71.1201C49.5584 69.4317 48.8323 67.9794 47.7999 66.7043C49.5924 65.3111 49.9441 63.3393 50.1143 61.3085C49.4324 61.1046 48.7885 60.9063 48.1375 60.7059Z" fill="#20113D"/>
<defs>
<filter id="filter0_d_38996_9061" x="0" y="0" width="112" height="112" filterUnits="userSpaceOnUse" color-interpolation-filters="sRGB">
<feFlood flood-opacity="0" result="BackgroundImageFix"/>
<feColorMatrix in="SourceAlpha" type="matrix" values="0 0 0 0 0 0 0 0 0 0 0 0 0 0 0 0 0 0 127 0" result="hardAlpha"/>
<feOffset dy="4"/>
<feGaussianBlur stdDeviation="2"/>
<feColorMatrix type="matrix" values="0 0 0 0 0 0 0 0 0 0 0 0 0 0 0 0 0 0 0.25 0"/>
<feBlend mode="normal" in2="BackgroundImageFix" result="effect1_dropShadow_38996_9061"/>
<feBlend mode="normal" in="SourceGraphic" in2="effect1_dropShadow_38996_9061" result="shape"/>
</filter>
</defs>
</svg>
