<svg width="120" height="120" viewBox="0 0 120 120" fill="none" xmlns="http://www.w3.org/2000/svg">
<circle cx="60" cy="60" r="58.5" stroke="white" stroke-width="3"/>
<g filter="url(#filter0_d_39051_9064)">
<circle cx="60" cy="60" r="52" fill="white"/>
</g>
<path fill-rule="evenodd" clip-rule="evenodd" d="M73.1979 55.9514C73.8219 57.2855 74.4459 58.6197 75.0926 60.0129C74.9292 60.1468 74.7637 60.2851 74.5958 60.4254L74.595 60.4261L74.5949 60.4261C74.2149 60.7436 73.8224 61.0716 73.4135 61.3825C72.9592 61.7261 72.5087 62.0745 72.0584 62.4227L72.0577 62.4233L72.0577 62.4233C70.9451 63.2838 69.834 64.1431 68.6712 64.9246C64.4848 67.7465 59.8674 68.8918 54.8982 68.4431C53.6842 68.3368 52.4022 67.9 51.8917 67.534C52.1865 65.41 52.47 63.3449 52.7534 61.2799L52.7539 61.2763C52.7199 61.2645 52.683 61.2556 52.6462 61.2468C52.6093 61.2379 52.5724 61.2291 52.5384 61.2173C52.4279 61.4505 52.3184 61.6838 52.209 61.9169L52.2086 61.9176C51.9361 62.4981 51.6644 63.0768 51.3812 63.6495C50.6455 65.1624 50.1521 66.769 49.6577 68.3792C49.5193 68.8298 49.3808 69.2808 49.2369 69.73C48.3293 72.5283 46.707 74.6772 43.9501 75.728C43.814 75.787 43.7005 76.0231 43.6438 76.2002C43.5326 76.5673 43.4339 76.9387 43.3351 77.3098L43.3351 77.3101C43.202 77.8102 43.0692 78.3098 42.9063 78.7978C42.2824 80.6869 41.1138 82.1509 39.5368 83.2726C38.8334 83.7685 38.13 84.2762 37.4607 84.8193C36.8821 85.2798 36.9048 85.4805 37.472 85.941C37.583 86.0311 37.6946 86.1199 37.8059 86.2084L37.8059 86.2085L37.806 86.2085C38.1613 86.4912 38.5138 86.7716 38.8334 87.0862C39.3553 87.6057 39.5936 88.2669 39.4007 89.0226C39.3553 89.1997 39.0944 89.4358 38.9355 89.4358C35.2143 89.4594 31.4818 89.4594 27.7606 89.4476C27.6244 89.4476 27.4315 89.4004 27.3521 89.3059C27.2382 89.1616 27.1216 89.0178 27.0046 88.8736L27.0044 88.8733L27.0043 88.8733C26.5856 88.3571 26.1624 87.8354 25.8432 87.2633C25.639 86.8973 25.6163 86.2834 25.7525 85.8701C27.0685 81.7023 28.7589 77.747 31.9469 74.7126C32.0831 74.5827 32.1625 74.2993 32.1738 74.0986C32.2532 71.0997 32.5936 68.1243 33.331 65.2316C33.9664 62.7285 34.6471 60.2255 35.8497 57.9231C38.062 53.7199 40.9209 50.2132 45.3115 48.3241C49.0895 46.7065 52.7766 46.9545 56.3731 48.8672C56.8668 49.1321 57.3133 49.4954 57.7483 49.8492C57.953 50.0157 58.1551 50.1801 58.3585 50.3313C57.95 49.4103 57.2353 48.6547 56.4638 47.9581C57.1903 47.6705 57.9195 47.3921 58.6473 47.1143L58.6475 47.1142C61.864 45.8863 65.0554 44.6681 67.877 42.704C68.0013 43.1539 68.1233 43.6083 68.2461 44.0653L68.2461 44.0654C68.4036 44.6518 68.5622 45.2423 68.7279 45.8328C68.7733 45.9745 68.8641 46.1044 68.9775 46.2225C68.7506 44.7584 68.7506 43.2943 69.2838 41.9483C69.783 40.6732 70.3843 39.3862 71.1558 38.2764C73.0504 35.5844 75.3308 33.2466 77.8721 31.204L77.8722 31.204L77.8722 31.204C77.9743 31.1214 78.0764 31.0387 78.1898 30.9561C78.372 30.8351 78.5525 30.7061 78.7335 30.5769C79.6115 29.9497 80.4986 29.3161 81.6274 29.5511C83.488 29.9289 85.0423 30.9443 86.1087 32.6091C86.415 33.0813 86.7667 33.4119 87.2546 33.589C88.5252 34.0495 89.4782 34.8406 90.0909 36.1275C90.313 36.5977 90.6332 37.0142 90.9541 37.4313C91.1085 37.6321 91.2631 37.833 91.4069 38.0402C91.7019 38.4653 91.7586 38.8195 91.4296 39.3154C91.1573 39.7286 91.0212 40.2836 90.9418 40.7913C90.8396 41.3934 91.0666 41.783 91.6792 42.1136C93.2789 42.9637 94.2092 44.8647 93.3242 46.7892C93.1768 47.108 93.0406 47.4268 92.9158 47.7574C92.3259 49.3395 91.2027 49.8944 89.6597 49.3395C89.6342 49.3306 89.608 49.3218 89.5817 49.3129L89.5816 49.3129C89.503 49.2863 89.4243 49.2598 89.3648 49.2332C89.0811 49.6465 88.7975 50.0479 88.4912 50.4729C88.4477 50.4176 88.4103 50.3772 88.3818 50.3464C88.3434 50.305 88.321 50.2807 88.321 50.2604C88.4118 49.245 87.8218 48.6429 87.1638 48.0289C84.0893 45.148 80.3227 45.6675 77.7473 47.3323C78.0369 47.2712 78.3237 47.2045 78.6097 47.138L78.6098 47.138C79.153 47.0117 79.6933 46.8861 80.2433 46.801C83.5107 46.3287 86.347 47.8518 87.8559 50.898C88.8996 52.9996 89.6371 55.1957 89.4555 57.6279L89.4535 57.6564V57.6565C89.4201 58.1328 89.3837 58.6517 89.1946 59.0684C88.5366 60.5325 88.7408 62.0083 89.1038 63.4606L89.1707 63.7312C89.5114 65.111 89.8611 66.5276 90.5106 67.7465C93.0179 72.4338 93.2221 77.499 93.0406 82.635C92.9612 84.8429 92.2805 86.8029 90.5333 88.2315C89.5576 89.0344 88.5139 89.5893 87.2092 89.483C86.6079 89.4358 85.9953 89.424 85.394 89.483C84.2595 89.6129 83.4766 89.0226 82.8073 88.1961C82.0812 87.3106 81.7522 86.2834 81.9564 85.1263C82.0131 84.8193 82.2287 84.4415 82.4783 84.2998C82.7918 84.1265 83.0207 84.367 83.2527 84.6107C83.2893 84.6492 83.326 84.6878 83.3632 84.7248C83.7129 85.077 84.1747 85.3358 84.6148 85.5825L84.6149 85.5825L84.6225 85.5868C85.0082 85.7993 85.2124 85.6222 85.2578 85.1735C85.3032 84.6422 85.1444 84.1935 84.7586 83.8511C82.5917 81.9266 81.2303 79.4117 80.005 76.8024C79.0634 74.7834 78.4621 72.67 78.2465 70.4267C78.0877 68.7383 78.3713 67.0971 78.6776 65.4559C78.8251 64.7121 78.9726 63.9565 79.018 63.189C79.1201 61.6659 78.6096 60.379 77.3502 59.5643C75.796 58.5607 74.4119 57.3564 73.3 55.8451C73.3114 55.8805 73.2547 55.9159 73.1979 55.9514ZM76.5214 61.3137C77.1794 61.8686 77.4177 62.5062 77.2815 63.2973C77.1976 63.8087 77.1053 64.3187 77.0129 64.8287L77.0128 64.8294L77.0128 64.8295C76.8429 65.7675 76.673 66.7058 76.5554 67.654C76.1697 70.8537 76.8844 73.8763 78.0757 76.7926C78.2912 77.3239 78.3139 77.749 78.087 78.2803C77.0546 80.7125 75.9315 83.0857 74.4793 85.2936C72.596 88.1509 69.9639 89.4732 66.6738 89.4732C66.4794 89.4732 66.286 89.4764 66.093 89.4796H66.0929C65.644 89.4871 65.1974 89.4945 64.7451 89.4614C64.5182 89.4496 64.2346 89.2961 64.1098 89.1072C63.0547 87.6196 63.2362 84.538 64.4502 83.1802C64.5863 83.0267 64.8926 82.885 65.0628 82.944C65.1921 82.9921 65.2839 83.1968 65.3686 83.3859C65.3879 83.429 65.4069 83.4713 65.4258 83.5107C65.4726 83.6082 65.5067 83.7155 65.5405 83.8223C65.5969 84.0002 65.6527 84.1764 65.7662 84.3018C65.9704 84.5498 66.3221 84.904 66.549 84.8567C66.7873 84.8095 67.0255 84.3727 67.1276 84.0657C67.2297 83.7705 67.1957 83.4045 67.139 83.0975C67.0567 82.6652 66.9536 82.2361 66.8507 81.8078L66.8507 81.8077C66.6697 81.0545 66.4893 80.3038 66.4242 79.5436C66.1179 76.1314 66.4129 72.7783 67.831 69.6258C68.16 68.9056 68.5344 68.1735 69.0223 67.5596C69.5328 66.8984 70.1681 66.3199 70.8148 65.8004C71.4784 65.2577 72.1622 64.7446 72.8469 64.2307L72.8469 64.2307L72.8473 64.2304C73.3096 63.8834 73.7724 63.5361 74.2297 63.1792C74.7398 62.7751 75.2447 62.3604 75.7583 61.9387C76.0101 61.7319 76.2639 61.5235 76.5214 61.3137ZM52.1377 69.7059C51.8464 69.6162 51.5536 69.5261 51.2555 69.4348C51.1544 69.6627 51.0565 69.8939 50.9582 70.1258C50.7916 70.5188 50.6241 70.9142 50.4386 71.3003C49.3154 73.6617 47.8406 75.7161 45.5602 77.0385C45.3787 77.1447 45.2539 77.4163 45.1858 77.6406C44.6412 79.5415 43.9605 81.3598 42.7012 82.8947C42.6105 83.0128 42.531 83.2253 42.5651 83.3552C42.9622 84.6658 43.3706 85.9763 43.813 87.2633C43.8925 87.4876 44.1307 87.7001 44.3463 87.83C45.1518 88.3023 45.9573 88.7628 46.7855 89.1996C47.0578 89.3413 47.3754 89.4712 47.6704 89.4712C50.0694 89.4889 52.4621 89.4867 54.8579 89.4845C55.6571 89.4837 56.4567 89.483 57.2571 89.483H57.9605C57.8842 89.3202 57.822 89.1614 57.7631 89.0111C57.6469 88.7145 57.5437 88.451 57.3705 88.2551C56.9394 87.771 56.4516 87.3105 55.9297 86.9445C55.4396 86.6014 54.9075 86.3165 54.3774 86.0327C54.2326 85.9552 54.0879 85.8778 53.9443 85.7992C53.377 85.4804 53.1274 85.0082 53.1728 84.347C53.1804 84.1895 53.198 84.0321 53.2157 83.8747C53.2245 83.796 53.2333 83.7173 53.2409 83.6385C53.2756 83.2811 53.3188 82.9225 53.362 82.5635C53.4601 81.7486 53.5585 80.9315 53.5585 80.1201C53.5585 78.4317 52.8324 76.9794 51.8 75.7043C53.5926 74.3111 53.9443 72.3393 54.1145 70.3085C53.4326 70.1046 52.7886 69.9063 52.1377 69.7059Z" fill="#20113D"/>
<defs>
<filter id="filter0_d_39051_9064" x="4" y="8" width="112" height="112" filterUnits="userSpaceOnUse" color-interpolation-filters="sRGB">
<feFlood flood-opacity="0" result="BackgroundImageFix"/>
<feColorMatrix in="SourceAlpha" type="matrix" values="0 0 0 0 0 0 0 0 0 0 0 0 0 0 0 0 0 0 127 0" result="hardAlpha"/>
<feOffset dy="4"/>
<feGaussianBlur stdDeviation="2"/>
<feColorMatrix type="matrix" values="0 0 0 0 0 0 0 0 0 0 0 0 0 0 0 0 0 0 0.25 0"/>
<feBlend mode="normal" in2="BackgroundImageFix" result="effect1_dropShadow_39051_9064"/>
<feBlend mode="normal" in="SourceGraphic" in2="effect1_dropShadow_39051_9064" result="shape"/>
</filter>
</defs>
</svg>
