<svg width="69" height="82" viewBox="0 0 69 82" fill="none" xmlns="http://www.w3.org/2000/svg">
<g filter="url(#filter0_d_44_8904)">
<path d="M34.1085 18.7188C26.3098 18.7188 20 24.7067 20 32.0855C20 39.4643 34.1085 60.6106 34.1085 60.6106C34.1085 60.6106 48.2171 39.4643 48.2171 32.0855C48.2171 24.7067 41.9072 18.7188 34.1085 18.7188Z" fill="#F58021"/>
<path fill-rule="evenodd" clip-rule="evenodd" d="M38.0333 30.7269L38.0336 30.7276C38.2097 31.088 38.3858 31.4483 38.5683 31.8246C38.5221 31.8608 38.4753 31.8983 38.4278 31.9363C38.3205 32.0221 38.2096 32.1107 38.0942 32.1948C37.9658 32.2877 37.8386 32.3819 37.7114 32.476L37.7113 32.476L37.7113 32.4761C37.3972 32.7086 37.0834 32.9409 36.7551 33.1521C35.573 33.9147 34.2693 34.2243 32.8661 34.103C32.5234 34.0743 32.1614 33.9562 32.0172 33.8573C32.1004 33.2838 32.1804 32.7262 32.2603 32.1687L32.2604 32.168L32.2607 32.166C32.2511 32.1629 32.2407 32.1605 32.2303 32.1581L32.2302 32.1581C32.2198 32.1557 32.2094 32.1533 32.1998 32.1501C32.1686 32.2132 32.1377 32.2763 32.1067 32.3394L32.1067 32.3394C32.0298 32.4963 31.9531 32.6527 31.8731 32.8075C31.6653 33.2163 31.526 33.6506 31.3864 34.0858C31.3474 34.2076 31.3083 34.3294 31.2676 34.4508C31.0114 35.2071 30.5533 35.7879 29.7748 36.0719C29.7364 36.0879 29.7044 36.1517 29.6883 36.1995C29.657 36.2988 29.6291 36.3992 29.6012 36.4995L29.6012 36.4995C29.5636 36.6347 29.5261 36.7697 29.4801 36.9016C29.3039 37.4122 28.974 37.8078 28.5287 38.111C28.3301 38.245 28.1315 38.3822 27.9425 38.529C27.7791 38.6535 27.7855 38.7077 27.9457 38.8322C27.977 38.8565 28.0084 38.8805 28.0398 38.9044L28.04 38.9045L28.04 38.9045C28.1403 38.9809 28.2398 39.0567 28.3301 39.1417C28.4774 39.2821 28.5447 39.4608 28.4903 39.665C28.4774 39.7129 28.4038 39.7767 28.3589 39.7767C27.3082 39.7831 26.2543 39.7831 25.2035 39.7799C25.1651 39.7799 25.1106 39.7672 25.0882 39.7416C25.056 39.7026 25.0231 39.6638 24.9901 39.6248L24.99 39.6247C24.8718 39.4852 24.7523 39.3442 24.6622 39.1896C24.6045 39.0907 24.5981 38.9247 24.6365 38.813C25.0081 37.6866 25.4854 36.6176 26.3856 35.7975C26.424 35.7624 26.4465 35.6858 26.4497 35.6315C26.4721 34.821 26.5682 34.0169 26.7764 33.2351C26.9558 32.5585 27.148 31.882 27.4876 31.2598C28.1123 30.1238 28.9195 29.176 30.1593 28.6655C31.226 28.2283 32.2671 28.2953 33.2826 28.8122C33.422 28.8838 33.5481 28.982 33.6709 29.0776L33.6709 29.0776L33.6709 29.0777C33.7287 29.1227 33.7858 29.1671 33.8432 29.2079C33.7279 28.959 33.5261 28.7548 33.3082 28.5665C33.5134 28.4888 33.7193 28.4136 33.9248 28.3385C34.833 28.0066 35.7341 27.6773 36.5309 27.1465C36.566 27.2681 36.6004 27.391 36.6351 27.5145L36.6351 27.5145C36.6796 27.673 36.7243 27.8326 36.7711 27.9921C36.7839 28.0304 36.8096 28.0655 36.8416 28.0974C36.7775 27.7018 36.7775 27.3061 36.9281 26.9423C37.0691 26.5976 37.2388 26.2498 37.4567 25.9499C37.9916 25.2223 38.6355 24.5905 39.3531 24.0384L39.3531 24.0384L39.3531 24.0384C39.3819 24.0161 39.4108 23.9937 39.4428 23.9714C39.4942 23.9387 39.5452 23.9038 39.5963 23.8689L39.5963 23.8689C39.8442 23.6994 40.0947 23.5282 40.4134 23.5917C40.9388 23.6938 41.3777 23.9682 41.6788 24.4181C41.7653 24.5458 41.8646 24.6351 42.0023 24.683C42.3611 24.8075 42.6302 25.0213 42.8032 25.3691C42.8659 25.4962 42.9563 25.6087 43.0469 25.7214C43.0905 25.7757 43.1342 25.83 43.1748 25.886C43.2581 26.0009 43.2741 26.0966 43.1812 26.2307C43.1043 26.3424 43.0659 26.4923 43.0435 26.6296C43.0146 26.7923 43.0787 26.8976 43.2517 26.987C43.7034 27.2167 43.966 27.7305 43.7162 28.2506C43.6745 28.3368 43.6361 28.4229 43.6008 28.5123C43.4343 28.9399 43.1171 29.0899 42.6815 28.9399L42.6595 28.9327C42.6372 28.9255 42.615 28.9183 42.5982 28.9112C42.5181 29.0229 42.438 29.1313 42.3515 29.2462C42.3392 29.2313 42.3287 29.2204 42.3206 29.212C42.3098 29.2008 42.3035 29.1943 42.3035 29.1888C42.3291 28.9144 42.1625 28.7516 41.9767 28.5857C41.1086 27.8071 40.045 27.9475 39.3179 28.3974C39.3996 28.3809 39.4806 28.3629 39.5613 28.3449L39.5614 28.3449C39.7148 28.3108 39.8673 28.2768 40.0226 28.2538C40.9452 28.1262 41.7461 28.5378 42.1721 29.3611C42.4668 29.9291 42.6751 30.5226 42.6238 31.18L42.6232 31.1877C42.6138 31.3165 42.6035 31.4567 42.5501 31.5693C42.3643 31.965 42.422 32.3639 42.5245 32.7564L42.5434 32.8296C42.6396 33.2025 42.7383 33.5853 42.9217 33.9147C43.6297 35.1816 43.6873 36.5506 43.6361 37.9387C43.6137 38.5354 43.4215 39.0651 42.9281 39.4512C42.6526 39.6682 42.3579 39.8182 41.9895 39.7895C41.8197 39.7767 41.6468 39.7735 41.477 39.7895C41.1566 39.8246 40.9356 39.665 40.7466 39.4417C40.5416 39.2023 40.4487 38.9247 40.5063 38.612C40.5224 38.529 40.5832 38.4269 40.6537 38.3886C40.7422 38.3418 40.8069 38.4068 40.8724 38.4726C40.8794 38.4797 40.8864 38.4867 40.8934 38.4937C40.8968 38.497 40.9002 38.5003 40.9036 38.5035C41.0023 38.5987 41.1327 38.6686 41.257 38.7353L41.2591 38.7364C41.3681 38.7939 41.4257 38.746 41.4385 38.6248C41.4513 38.4812 41.4065 38.3599 41.2976 38.2674C40.6857 37.7472 40.3013 37.0675 39.9553 36.3623C39.6895 35.8166 39.5197 35.2454 39.4588 34.6391C39.414 34.1828 39.494 33.7392 39.5805 33.2957C39.6222 33.0946 39.6638 32.8904 39.6766 32.683C39.7055 32.2714 39.5613 31.9235 39.2057 31.7033C38.7669 31.4321 38.3761 31.1066 38.0621 30.6982C38.0653 30.7077 38.0493 30.7173 38.0333 30.7269ZM38.972 32.1757C39.1578 32.3257 39.2251 32.498 39.1866 32.7118C39.1629 32.8501 39.1368 32.988 39.1107 33.1259C39.0628 33.3795 39.0148 33.6331 38.9816 33.8893C38.8727 34.7541 39.0745 35.571 39.4109 36.3592C39.4717 36.5028 39.4781 36.6177 39.4141 36.7613C39.1226 37.4187 38.8054 38.0601 38.3954 38.6568C37.8636 39.429 37.1204 39.7864 36.1914 39.7864C36.1366 39.7864 36.0822 39.7873 36.0278 39.7882L36.0274 39.7882C35.9007 39.7902 35.7745 39.7922 35.6468 39.7832C35.5828 39.7801 35.5027 39.7386 35.4674 39.6875C35.1695 39.2854 35.2208 38.4526 35.5635 38.0856C35.602 38.0441 35.6885 38.0058 35.7365 38.0218C35.7731 38.0348 35.799 38.0901 35.8229 38.1412L35.8229 38.1412C35.8283 38.1529 35.8337 38.1643 35.839 38.1749C35.8523 38.2013 35.8619 38.2303 35.8714 38.2592C35.8873 38.3072 35.9031 38.3548 35.9351 38.3887C35.9928 38.4558 36.0921 38.5515 36.1562 38.5387C36.2235 38.526 36.2907 38.4079 36.3196 38.3249C36.3484 38.2452 36.3388 38.1462 36.3228 38.0633C36.2995 37.9464 36.2704 37.8304 36.2414 37.7147L36.2414 37.7147L36.2413 37.7147C36.1902 37.5111 36.1393 37.3082 36.1209 37.1028C36.0344 36.1805 36.1177 35.2743 36.5182 34.4223C36.6111 34.2276 36.7168 34.0298 36.8545 33.8638C36.9987 33.6851 37.1781 33.5288 37.3607 33.3884C37.548 33.2417 37.7411 33.103 37.9345 32.9641L37.9345 32.9641C38.0651 32.8703 38.1958 32.7764 38.3249 32.6799C38.4689 32.5707 38.6115 32.4586 38.7565 32.3446C38.8276 32.2888 38.8993 32.2324 38.972 32.1757ZM32.0871 34.4447C32.0048 34.4205 31.9222 34.3961 31.8379 34.3714C31.8094 34.433 31.7818 34.4955 31.754 34.5582C31.707 34.6644 31.6597 34.7713 31.6073 34.8756C31.2902 35.5138 30.8737 36.0691 30.2298 36.4265C30.1786 36.4552 30.1433 36.5286 30.1241 36.5892C29.9703 37.103 29.7781 37.5944 29.4226 38.0093C29.3969 38.0412 29.3745 38.0986 29.3841 38.1337C29.4962 38.4879 29.6116 38.8421 29.7365 39.19C29.7589 39.2506 29.8262 39.308 29.8871 39.3431C30.1145 39.4708 30.3419 39.5952 30.5758 39.7133C30.6527 39.7516 30.7424 39.7867 30.8257 39.7867C31.5031 39.7915 32.1787 39.7909 32.8552 39.7903C33.0809 39.7901 33.3066 39.7899 33.5326 39.7899H33.7312C33.7096 39.7459 33.6921 39.703 33.6755 39.6624C33.6426 39.5822 33.6135 39.511 33.5646 39.458C33.4429 39.3272 33.3051 39.2027 33.1578 39.1038C33.0194 39.0111 32.8692 38.9341 32.7195 38.8574C32.6786 38.8364 32.6377 38.8155 32.5972 38.7943C32.437 38.7081 32.3665 38.5805 32.3793 38.4018C32.3815 38.3592 32.3864 38.3167 32.3914 38.2741C32.3939 38.2528 32.3964 38.2316 32.3985 38.2103C32.4083 38.1137 32.4205 38.0168 32.4327 37.9197C32.4605 37.6995 32.4882 37.4787 32.4882 37.2594C32.4882 36.803 32.2832 36.4105 31.9917 36.0659C32.4979 35.6894 32.5972 35.1564 32.6452 34.6076C32.4527 34.5525 32.2709 34.4989 32.0871 34.4447Z" fill="#20113D"/>
</g>
<defs>
<filter id="filter0_d_44_8904" x="-3.25586" y="-2.97277" width="75" height="90" filterUnits="userSpaceOnUse" color-interpolation-filters="sRGB">
<feFlood flood-opacity="0" result="BackgroundImageFix"/>
<feColorMatrix in="SourceAlpha" type="matrix" values="0 0 0 0 0 0 0 0 0 0 0 0 0 0 0 0 0 0 127 0" result="hardAlpha"/>
<feOffset dy="1.28114"/>
<feGaussianBlur stdDeviation="10"/>
<feColorMatrix type="matrix" values="0 0 0 0 0.960784 0 0 0 0 0.501961 0 0 0 0 0.129412 0 0 0 0.5 0"/>
<feBlend mode="normal" in2="BackgroundImageFix" result="effect1_dropShadow_44_8904"/>
<feBlend mode="normal" in="SourceGraphic" in2="effect1_dropShadow_44_8904" result="shape"/>
</filter>
</defs>
</svg>
