<svg width="69" height="82" viewBox="0 0 69 82" fill="none" xmlns="http://www.w3.org/2000/svg">
<g filter="url(#filter0_d_44_8908)">
<path d="M34.1085 18.7188C26.3098 18.7188 20 24.7067 20 32.0855C20 39.4643 34.1085 60.6106 34.1085 60.6106C34.1085 60.6106 48.2171 39.4643 48.2171 32.0855C48.2171 24.7067 41.9072 18.7188 34.1085 18.7188Z" fill="#F58021"/>
<path fill-rule="evenodd" clip-rule="evenodd" d="M37.0645 31.1632C37.5038 30.6312 37.7558 30.0435 37.7665 29.3613C37.768 29.2871 37.821 29.2139 37.8737 29.141C37.8988 29.1064 37.9237 29.0719 37.9431 29.0374C38.0457 28.8526 38.155 28.6702 38.2643 28.4877L38.2643 28.4877L38.2643 28.4877L38.2643 28.4877C38.5128 28.0728 38.7617 27.6574 38.9337 27.2119C39.3084 26.2402 39.0823 25.6438 38.2683 25.0239C38.32 24.3739 38.5784 23.9278 39.2976 23.7991C39.638 23.7386 39.9683 23.6214 40.3289 23.4934C40.4929 23.4352 40.6633 23.3748 40.8438 23.3164C40.3033 24.9403 39.7907 26.4783 39.2545 28.0871L39.3801 28.0604L39.3813 28.0602C40.0787 27.912 40.7168 27.7765 41.3606 27.6409C41.5242 27.9305 41.3972 28.0828 41.1496 28.2223L41.0017 28.3049C40.3679 28.6591 39.7324 29.0143 39.121 29.4064C38.9165 29.5372 38.7399 29.7732 38.6473 29.9984C38.4952 30.3719 38.3715 30.757 38.2446 31.1521L38.2446 31.1521L38.2446 31.1521L38.2446 31.1522C38.19 31.3221 38.1349 31.4938 38.0766 31.6673L37.0645 31.1632ZM38.936 31.0783C39.5669 31.5459 39.8318 32.552 39.5432 33.3199C39.2913 33.9871 38.7077 34.3045 37.8377 34.2059C37.5875 34.177 37.3413 34.1217 37.0953 34.0663L37.0952 34.0663L37.0952 34.0663L37.0952 34.0663C36.9389 34.0312 36.7826 33.9961 36.6254 33.9677C35.7295 33.8026 34.9629 33.927 34.4418 34.326C34.5624 34.341 34.6657 34.3539 34.8229 34.3732C34.6883 34.6256 34.6199 34.8991 34.5535 35.1642C34.4574 35.548 34.3658 35.9141 34.0843 36.1729C34.2448 36.2847 34.416 36.3946 34.5913 36.5071C34.9946 36.7661 35.4188 37.0383 35.7791 37.3763C36.6167 38.1614 36.5651 39.3348 35.7425 40.2036L35.0013 39.9434L35.0009 39.9433L35.0009 39.9433C34.0609 39.6135 33.1169 39.2823 32.1742 38.9444C32.0179 38.8881 31.8689 38.8112 31.7199 38.7344C31.6533 38.7001 31.5868 38.6658 31.5196 38.6334C30.5441 38.1679 30.038 37.387 29.9519 36.3209C29.8421 34.9717 30.107 33.6717 30.4192 32.3847C30.4405 32.3806 30.458 32.3753 30.4726 32.3708L30.4727 32.3708L30.4727 32.3708C30.4965 32.3636 30.5127 32.3587 30.5247 32.3654C32.6394 33.4508 34.5861 32.9595 36.4272 31.7025C36.7395 31.4901 36.9764 31.4794 37.2757 31.636C37.4523 31.7283 37.631 31.8162 37.8119 31.8977C38.3309 32.1315 38.5656 32.0393 38.7745 31.5159C38.8092 31.4282 38.8414 31.3388 38.8742 31.2477L38.8742 31.2476C38.8944 31.1918 38.9147 31.1354 38.936 31.0783ZM36.764 35.6491L36.7646 35.6472C36.9029 35.23 37.0467 34.7957 37.2004 34.3309C37.04 34.3258 36.8845 34.3203 36.7327 34.3149L36.7326 34.3149C36.2509 34.2978 35.8068 34.2821 35.3614 34.2837C35.2666 34.2837 35.1224 34.3996 35.0879 34.494C34.948 34.8852 34.8221 35.2812 34.7008 35.6628L34.7008 35.6628C34.6579 35.798 34.6155 35.9313 34.5732 36.062L34.9981 36.3711L34.9983 36.3713C35.4103 36.6711 35.8114 36.9629 36.2292 37.2654C36.4041 36.7356 36.5789 36.2078 36.7638 35.6497L36.764 35.6491ZM32.4607 42.0361C32.7321 41.2338 32.984 40.4894 33.251 39.7022C33.9165 39.9103 34.5453 40.1076 35.2171 40.32C35.1807 40.4318 35.1452 40.5419 35.1101 40.6506L35.1101 40.6506C34.9771 41.0627 34.8508 41.4538 34.7111 41.8409C34.6809 41.9224 34.5582 42.0253 34.4763 42.0275C33.9802 42.039 33.4815 42.0379 32.9542 42.0368L32.9517 42.0368C32.791 42.0364 32.6276 42.0361 32.4607 42.0361ZM29.2327 27.9838C29.3203 28.1281 29.4112 28.2676 29.501 28.4053C29.6982 28.7076 29.8897 29.0012 30.0273 29.3181C30.2814 29.908 30.3912 30.573 29.8916 31.0792C29.3791 31.5962 28.7417 31.3666 28.1732 31.1178C27.8394 30.972 27.5121 30.7725 27.2365 30.5343C26.1877 29.6227 26.2911 28.2305 27.4561 27.4668C28.2227 26.9649 29.0647 26.8877 29.9132 27.1901C30.2814 27.321 30.4881 27.2245 30.7767 27.0078C31.2612 26.6453 31.7823 26.2999 32.3379 26.0661C33.3543 25.6371 34.347 25.7679 35.2515 26.4243C35.4517 26.5702 35.6542 26.7118 35.9126 26.789C35.736 26.5766 35.5594 26.3664 35.3592 26.1283C36.0353 25.5148 36.7783 25.1544 37.6935 25.3067C38.3416 25.414 38.6905 25.8473 38.6754 26.4994C38.6582 27.2867 38.262 27.9173 37.8291 28.548C36.9914 27.7243 36.7481 26.7568 37.1702 26.0296C36.761 26.1154 36.55 26.3664 36.6383 26.8147C36.7244 27.2545 36.8665 27.6964 37.0604 28.0997C37.6073 29.243 37.4372 30.3692 36.4574 31.1736C35.1287 32.2676 33.589 32.5743 31.9223 32.1539C31.6014 32.0724 31.2957 31.8858 31.0179 31.6949C30.6884 31.4696 30.5355 31.1757 30.5872 30.7188C30.6389 30.2405 30.5699 29.7256 30.4472 29.2537C30.2835 28.6359 29.8442 28.2176 29.2327 27.9838ZM34.3019 31.2547C34.0763 30.9168 33.9418 30.5562 33.917 30.177C33.9035 29.9731 33.9217 29.7638 33.9745 29.5497C34.108 29.0135 34.515 28.8891 34.9285 29.2623C35.3734 29.6648 35.5591 30.1887 35.5975 30.7774C35.5996 30.8105 35.6013 30.8437 35.6026 30.8771C35.5991 30.918 35.5964 30.96 35.5937 31.0025C35.5724 31.3297 35.5493 31.6856 35.1719 31.7995C34.7519 31.9278 34.5181 31.578 34.3144 31.2732L34.3019 31.2547ZM33.3974 29.7342C33.3336 29.6846 33.2766 29.6322 33.2257 29.5854C33.1271 29.4949 33.0515 29.4255 32.9947 29.4382C32.9075 29.4577 32.836 29.5441 32.7641 29.631C32.7331 29.6686 32.702 29.7062 32.6695 29.7385C32.7012 29.7674 32.7322 29.8026 32.7633 29.8377L32.7633 29.8377C32.8337 29.9174 32.9041 29.9971 32.9818 30.0045C33.0503 30.0116 33.1264 29.949 33.2257 29.8672C33.2762 29.8256 33.3328 29.7791 33.3974 29.7342ZM36.2184 28.8976C36.1419 28.8505 36.0781 28.8051 36.0227 28.7657C35.9141 28.6886 35.8381 28.6345 35.764 28.6359C35.6692 28.6381 35.4948 28.8097 35.5077 28.874C35.5184 28.9252 35.5504 28.9845 35.5919 29.0361C35.6431 29.1007 35.7094 29.1531 35.7684 29.1627C35.8333 29.1739 35.9093 29.1179 36.0175 29.0382C36.0745 28.9962 36.1405 28.9476 36.2184 28.8988L36.2175 28.8982L36.2184 28.8976Z" fill="#20113D"/>
</g>
<defs>
<filter id="filter0_d_44_8908" x="-3.25586" y="-2.97277" width="75" height="90" filterUnits="userSpaceOnUse" color-interpolation-filters="sRGB">
<feFlood flood-opacity="0" result="BackgroundImageFix"/>
<feColorMatrix in="SourceAlpha" type="matrix" values="0 0 0 0 0 0 0 0 0 0 0 0 0 0 0 0 0 0 127 0" result="hardAlpha"/>
<feOffset dy="1.28114"/>
<feGaussianBlur stdDeviation="10"/>
<feColorMatrix type="matrix" values="0 0 0 0 0.960784 0 0 0 0 0.501961 0 0 0 0 0.129412 0 0 0 0.5 0"/>
<feBlend mode="normal" in2="BackgroundImageFix" result="effect1_dropShadow_44_8908"/>
<feBlend mode="normal" in="SourceGraphic" in2="effect1_dropShadow_44_8908" result="shape"/>
</filter>
</defs>
</svg>
