<svg width="112" height="112" viewBox="0 0 112 112" fill="none" xmlns="http://www.w3.org/2000/svg">
<g filter="url(#filter0_d_38996_9062)">
<circle cx="56" cy="52" r="52" fill="#F58021"/>
</g>
<path fill-rule="evenodd" clip-rule="evenodd" d="M55.059 22.5096C56.0001 22.4569 56.8976 22.6501 57.8213 22.9749C57.7908 23.062 57.7625 23.1476 57.7347 23.2318L57.7347 23.2318C57.6672 23.4359 57.6027 23.6313 57.5163 23.8178C57.2505 24.3929 56.9804 24.9681 56.7103 25.5432C56.4401 26.1183 56.17 26.6934 55.9042 27.2685L55.9035 27.2701C55.7604 27.5803 55.6907 27.7314 55.5735 27.795C55.4623 27.8555 55.3084 27.8372 55.0083 27.8016L54.9544 27.7953C54.6494 27.7602 54.4664 27.6285 54.4229 27.3299C54.4044 27.2042 54.381 27.0779 54.3576 26.9514L54.3576 26.9514L54.3576 26.9513L54.3576 26.9513L54.3576 26.9513L54.3575 26.9512L54.3575 26.9512L54.3575 26.9512L54.3575 26.9511L54.3575 26.9511L54.3575 26.9511C54.2927 26.6007 54.2276 26.2494 54.266 25.9075C54.3622 25.0629 54.518 24.2237 54.6736 23.3856L54.6736 23.3856L54.6736 23.3855L54.6736 23.3854L54.6736 23.3853L54.6737 23.3852L54.6737 23.3851L54.6737 23.3851L54.6737 23.385L54.6737 23.385L54.6737 23.3849L54.6737 23.3849C54.7154 23.1604 54.7571 22.936 54.7976 22.7115C54.815 22.6325 54.9631 22.5184 55.059 22.5096ZM49.1868 25.3552L49.187 25.3555L49.187 25.3555L49.1871 25.3556C49.7648 26.2214 50.3301 27.0685 50.9201 27.9008C51.138 28.2168 51.4342 28.4978 51.9135 28.3046C52.6455 28.0237 52.8285 27.8305 52.6106 27.0579C52.3499 26.1187 52.5117 25.2156 52.6741 24.3093L52.6741 24.3093C52.6908 24.2158 52.7076 24.1223 52.7239 24.0287C52.7849 23.695 52.7762 23.3263 52.6977 22.9926C52.6629 22.8346 52.3492 22.5975 52.2272 22.6238C50.894 22.9575 49.7263 23.616 48.6109 24.494C48.8051 24.7832 48.9966 25.0702 49.1868 25.3552ZM45.764 32.0505C46.3745 32.4996 46.9867 32.95 47.6099 33.4059C47.4007 34.4157 46.8605 34.9864 45.8061 35.1005C44.3509 35.2498 43.1222 34.6527 42.0155 33.7572C41.9545 33.7045 41.9284 33.5113 41.972 33.4235C42.0359 33.2801 42.0996 33.1364 42.1633 32.9926L42.1639 32.9912L42.1647 32.9894L42.165 32.9889L42.1657 32.9873L42.1657 32.9872L42.1657 32.9872L42.1657 32.9872L42.1657 32.9871L42.1658 32.9871L42.1658 32.9871L42.1658 32.987L42.1658 32.987L42.1658 32.987L42.1658 32.9869L42.1659 32.9869L42.1659 32.9869L42.1659 32.9868L42.1659 32.9868C42.4485 32.349 42.7317 31.7098 43.0438 31.088C43.1276 30.9131 43.2648 30.7671 43.3962 30.6275L43.3963 30.6274C43.4561 30.5638 43.5148 30.5014 43.5666 30.4382C44.306 30.9779 45.0326 31.5124 45.7616 32.0488L45.7631 32.0499L45.7634 32.0501L45.764 32.0505ZM46.1536 37.4169C44.5067 37.0043 42.912 36.6004 41.1954 36.1614C41.1586 36.3652 41.1175 36.5755 41.0756 36.7904L41.0756 36.7905C40.9981 37.1867 40.9177 37.5985 40.8556 38.014C40.7959 38.4075 40.7565 38.8044 40.7163 39.2089V39.2089C40.692 39.4543 40.6673 39.7025 40.6377 39.9544C42.0145 40.6481 43.4262 40.8412 44.8204 40.0335C45.8138 39.4715 46.2059 38.5408 46.1536 37.4169ZM40.6987 42.0716C40.4372 43.4589 40.6464 44.7671 41.1344 46.0403C41.1779 46.1456 41.2912 46.2598 41.3958 46.2949C43.4523 46.9885 45.7702 45.6013 46.0926 43.7311C46.1361 43.4764 46.1536 43.2043 46.1361 42.9496C46.0316 41.8345 45.8224 41.6765 44.7419 41.8345L44.4306 41.8801C43.689 41.9889 42.9466 42.0978 42.1975 42.1594C41.8684 42.1835 41.5311 42.1497 41.1828 42.1147C41.0238 42.0988 40.8625 42.0826 40.6987 42.0716ZM46.5545 50.3061C47.2516 48.8134 47.0337 47.7422 45.8574 46.8115C44.6374 47.7422 43.2258 48.0847 41.7095 48.1373C41.605 48.1373 41.4307 48.2866 41.4046 48.4007C41.1693 49.5158 41.5004 50.508 42.1191 51.4211C42.1686 51.4932 42.2634 51.5303 42.3703 51.5722C42.4327 51.5966 42.4993 51.6226 42.5635 51.6582C42.5333 51.6785 42.5039 51.6987 42.4748 51.7188L42.4747 51.7188C42.4029 51.7683 42.3329 51.8164 42.2585 51.8601C40.6726 52.8172 39.3916 54.0728 38.6335 55.7849C37.6401 58.0414 37.2829 60.3682 38.1804 62.7652C38.3419 63.1961 38.4905 63.6348 38.6389 64.0727L38.6389 64.0729L38.639 64.073L38.639 64.0732L38.6391 64.0733L38.6391 64.0734L38.6392 64.0736L38.6392 64.0737L38.6393 64.0738L38.6393 64.074L38.6393 64.0741L38.6394 64.0742L38.6394 64.0744L38.6395 64.0745L38.6395 64.0747L38.6396 64.0748L38.6396 64.0749L38.6397 64.0751C38.7631 64.4396 38.8864 64.8036 39.0169 65.1622C39.4526 66.3739 39.4875 67.6206 39.1389 68.8323C38.1107 72.3707 39.0779 75.6194 40.446 78.8242C40.5661 79.0921 40.7621 79.3344 40.951 79.568L40.9601 79.5793C41.2216 79.9042 41.5614 80.0095 41.971 79.8691C42.3805 79.7198 42.6768 79.4476 42.6594 79.0174C42.6419 78.4642 42.5722 77.9111 42.4415 77.3755C42.3413 76.9496 42.2193 76.5282 42.0973 76.1067C41.9753 75.6853 41.8533 75.2638 41.7531 74.838C41.4743 73.6351 41.8315 72.6429 42.8075 71.8966C42.8491 71.8659 42.8899 71.8342 42.9303 71.8028L42.9304 71.8027L42.9305 71.8027L42.9306 71.8026L42.9307 71.8025L42.9307 71.8025L42.9308 71.8024L42.9308 71.8024L42.9309 71.8023L42.9311 71.8022C43.0173 71.7352 43.1021 71.6693 43.1909 71.6156C44.6636 70.764 45.5698 69.4294 46.3192 67.9455C46.5285 67.5238 46.7993 67.131 47.0697 66.7388L47.0697 66.7387C47.1934 66.5594 47.317 66.3801 47.4346 66.1982L47.5391 66.2509C47.5914 66.4968 47.6448 66.7426 47.6982 66.9884L47.6982 66.9886C47.8583 67.7261 48.0184 68.4636 48.1491 69.2011C48.7329 72.4059 50.6152 74.8204 52.7936 77.0682C53.0085 77.2933 53.2912 77.4587 53.5581 77.6148L53.5692 77.6213C53.9352 77.8408 54.3099 77.8408 54.6584 77.5511C55.0157 77.2525 55.1464 76.875 54.9895 76.4535C54.8327 76.0497 54.6323 75.6545 54.3883 75.2946C54.1352 74.9263 53.862 74.5732 53.589 74.2204C53.3543 73.9171 53.1197 73.614 52.8982 73.3014C51.8612 71.8439 51.8177 70.8166 52.8372 69.3591C53.6476 68.1914 54.2053 66.9182 54.702 65.5397C54.8406 65.6047 54.9769 65.6649 55.1103 65.7238L55.1105 65.7239L55.1106 65.7239L55.1107 65.724L55.1108 65.724L55.111 65.7241C55.3379 65.8243 55.5567 65.9209 55.7651 66.0314C57.9087 67.208 59.2245 69.0606 60.0088 71.3347C60.3273 72.2417 60.6018 73.1653 60.876 74.0879L60.876 74.0881L60.8762 74.0887C60.947 74.3269 61.0178 74.5651 61.0893 74.8029C61.342 75.6458 61.7515 76.3921 62.3092 77.0594C62.522 77.3123 62.7345 77.5653 62.9469 77.8182L62.947 77.8182L62.947 77.8182L62.947 77.8182C63.9438 79.0048 64.9388 80.1892 65.9516 81.3617C66.2392 81.6953 66.5878 82.0114 66.9625 82.2485C67.6421 82.6787 68.3044 82.547 68.9318 81.9412C69.3849 81.5022 69.4633 80.9578 69.0538 80.2642C68.8189 79.8647 68.5159 79.5026 68.2178 79.1464L68.2178 79.1463L68.2177 79.1463L68.2176 79.1462L68.2172 79.1457C68.1617 79.0794 68.1064 79.0133 68.0517 78.9471C67.8774 78.7364 67.677 78.5345 67.4679 78.3589C65.6989 76.8399 65.2632 74.8292 65.3417 72.6254C65.3543 72.2553 65.3992 71.8853 65.4428 71.5254L65.4429 71.5253C65.4593 71.3899 65.4755 71.2559 65.4898 71.124C65.7624 71.0715 66.0318 71.019 66.2953 70.9677L66.2969 70.9674C66.7824 70.8728 67.248 70.7821 67.677 70.7025C67.8395 71.0632 67.9915 71.4319 68.1438 71.8012C68.4735 72.6004 68.8045 73.4029 69.2455 74.1356C69.8942 75.2156 70.6628 76.2208 71.4312 77.2258L71.4316 77.2263L71.4317 77.2265L71.4317 77.2265C71.6127 77.4632 71.7936 77.6998 71.973 77.9374C72.2779 78.3413 72.6875 78.6662 73.2452 78.5345C73.5415 78.4642 73.768 77.6564 73.6199 77.0857C73.4805 76.5501 73.3149 76.0058 73.0448 75.5316C71.8422 73.398 71.3804 71.0537 71.058 68.6743C70.8924 67.4626 70.1779 66.9182 68.9754 67.1553C66.7272 67.6031 64.4703 67.8226 62.1785 67.6206C62.0217 67.6031 61.8649 67.568 61.7081 67.5329L61.708 67.5328C60.0872 67.1465 59.4423 65.6363 60.2789 64.17C60.305 64.1173 60.3312 64.0647 60.3747 64.0208C61.1538 63.2293 61.576 62.2461 62 61.2589C62.1499 60.91 62.3 60.5606 62.4661 60.2189C62.7972 59.5516 63.4246 58.9897 64.0259 58.498C64.7665 57.9009 65.6728 57.6024 66.6052 57.4005C66.7359 57.3741 66.9276 57.2512 66.9537 57.1458C66.9799 57.0229 66.8753 56.7946 66.7707 56.742C66.7042 56.7103 66.6373 56.6778 66.57 56.6451C66.1704 56.4507 65.7581 56.2502 65.333 56.1976C64.6358 56.1098 63.9126 56.1273 63.2068 56.1976C62.4225 56.2766 61.7254 56.0308 61.0718 55.7147C60.3747 55.381 59.7125 54.9244 59.0851 54.4679C57.3684 53.2123 55.6344 51.9919 53.665 51.1577C51.5563 50.2534 49.3691 49.9548 47.1034 50.2885C46.9379 50.2709 46.7549 50.2797 46.5545 50.3061ZM56.1129 48.616C55.4158 49.055 54.6576 49.2482 53.8385 49.2482C53.0543 49.2219 52.3049 49.0638 51.6688 48.5721C50.9629 48.0365 50.6928 47.2463 51.1024 46.4824C51.3638 46.0017 51.7281 45.5803 52.0925 45.1588L52.0926 45.1587L52.0927 45.1586L52.0928 45.1584L52.093 45.1583L52.0931 45.1581L52.0932 45.158L52.0933 45.1578L52.0934 45.1577L52.0936 45.1576L52.0937 45.1574L52.0938 45.1573L52.0939 45.1571L52.0939 45.1571L52.094 45.1571L52.094 45.1571L52.094 45.1571C52.2149 45.0172 52.3359 44.8773 52.453 44.7352C52.514 44.6649 52.6622 44.6386 52.7667 44.6474C54.6576 44.8318 56.1216 46.14 56.4614 47.7907C56.5486 48.1946 56.4353 48.4141 56.1129 48.616ZM46.6499 26.032C47.6433 26.7871 49.0375 28.508 49.9873 30.1323L49.8893 30.2573L49.8893 30.2573L49.8893 30.2573L49.8891 30.2575L49.889 30.2576L49.8889 30.2578C49.6643 30.544 49.4521 30.8144 49.2466 31.0982C49.0636 31.3528 48.8458 31.4143 48.5321 31.3177C46.92 30.7996 45.8133 29.6407 44.6457 28.3939C45.3247 27.5956 45.9864 26.8149 46.648 26.0342L46.6484 26.0337L46.6499 26.032ZM60.2437 31.4238C60.9618 30.8006 61.8364 30.6917 62.7162 30.5821L62.7162 30.5821L62.7163 30.5821L62.7163 30.5821L62.7164 30.5821L62.7164 30.5821L62.7165 30.5821L62.7165 30.5821L62.7165 30.5821L62.7166 30.5821L62.7166 30.5821L62.7167 30.5821C62.9151 30.5573 63.1138 30.5326 63.311 30.5019C63.7642 30.4317 64.2173 30.2999 64.653 30.1595C64.7488 30.1243 64.8883 29.9487 64.8708 29.8609C64.7401 28.9917 64.47 28.1751 63.7467 27.6132C63.6247 27.5166 63.4243 27.4552 63.2849 27.4727C62.2218 27.6395 61.2371 28.0083 60.357 28.6317C60.2524 28.7107 60.1479 28.7897 60.052 28.8776C59.1458 29.7205 59.2068 30.6775 60.2437 31.4238ZM60.584 45.8298C59.7039 44.2494 55.8698 42.7392 54.8764 43.5909C54.8764 43.6172 54.8764 43.6611 54.8938 43.6699C56.0789 44.706 56.9329 46.0142 57.7607 47.34C57.9611 47.6649 58.1615 47.6825 58.4752 47.5771C59.2072 47.3313 60.0437 46.6464 60.584 45.8298ZM66.4388 62.8709C66.3081 63.547 66.038 63.7489 65.3409 63.7665C65.2184 63.7435 65.0959 63.7252 64.974 63.7071C64.7231 63.6696 64.4747 63.6326 64.2342 63.5557C63.4499 63.3187 63.1101 62.7655 63.2582 61.949C63.3105 61.6504 63.4238 61.3607 63.5545 61.0885C64.0251 60.1315 64.8006 59.4554 65.6894 58.911C65.9944 58.7266 66.3604 58.6125 66.7089 58.551C66.87 58.5198 67.0488 58.5641 67.2263 58.608C67.2985 58.6259 67.3704 58.6437 67.4409 58.6564C67.4262 58.7208 67.4149 58.7888 67.4035 58.857C67.3747 59.0306 67.3455 59.2064 67.2579 59.3325C66.7525 60.0612 66.6044 60.8778 66.5608 61.7382C66.5434 62.1158 66.5085 62.5021 66.4388 62.8709ZM64.8267 61.589C64.4433 61.589 64.1035 61.9314 64.1122 62.3177C64.1144 62.4173 64.1371 62.5119 64.176 62.5975C64.1377 62.5124 64.1153 62.4186 64.1132 62.3198C64.1132 61.9335 64.4443 61.5911 64.8277 61.5911C65.1108 61.5911 65.3576 61.7604 65.4697 62.0066C65.3581 61.7593 65.1107 61.589 64.8267 61.589ZM60.5053 33.861C60.8448 33.8893 61.1821 33.9173 61.5178 33.9452L61.5179 33.9452L61.5181 33.9452L61.5181 33.9452L61.5182 33.9452L61.5183 33.9452C62.8453 34.0554 64.1457 34.1633 65.4461 34.2824C65.8295 34.3175 65.9515 34.1683 65.9864 33.8083C66.0561 33.0356 65.7947 32.4298 65.1498 32.0083C64.0606 31.3059 62.1174 31.4288 61.124 32.2717C60.6186 32.6932 60.4007 33.2288 60.5053 33.861ZM59.7214 23.7549C60.767 24.3256 61.7604 24.9051 62.4575 25.8973C60.8542 26.8455 59.3031 27.7674 57.752 28.6981C57.4644 28.2416 57.4296 27.9343 57.6387 27.2933C58.0363 26.0588 58.789 25.0298 59.552 23.9867L59.5524 23.9862L59.553 23.9853C59.6091 23.9086 59.6653 23.8318 59.7214 23.7549ZM57.3512 41.9945C58.4381 42.3668 59.3115 43.0397 60.2018 43.7256L60.2018 43.7256C60.739 44.1395 61.2823 44.5581 61.8825 44.9183C61.9641 44.7888 62.0453 44.6604 62.1261 44.5328L62.1271 44.5311L62.1278 44.5301L62.1279 44.5299C62.4519 44.0179 62.7681 43.5182 63.0676 43.013C63.1111 42.9427 63.085 42.7408 63.0153 42.6881C61.8825 41.7925 60.6625 41.0725 59.1724 41.0023C58.4318 40.9847 57.7695 41.1779 57.3512 41.9945ZM65.6384 36.1647C65.621 36.884 65.6031 37.6207 65.1417 38.226C64.9606 38.166 64.7815 38.1053 64.6035 38.045C64.1309 37.8849 63.667 37.7278 63.1985 37.5938C62.3707 37.3743 61.5429 37.1724 60.7064 36.988C60.3927 36.9177 60.3229 36.7597 60.3665 36.4612C60.4798 35.6358 61.0462 35.1266 62.0047 35.0915C63.2334 35.0388 64.3662 35.4514 65.4729 35.9431C65.5513 35.9783 65.6384 36.0924 65.6384 36.1626L65.6384 36.1647ZM62.5606 62.8882C62.3745 63.1173 62.2081 63.3188 62.0529 63.5066L62.0524 63.5072C61.8807 63.715 61.7227 63.9062 61.5672 64.0999C61.5138 64.1665 61.4581 64.2316 61.4026 64.2966L61.4025 64.2967C61.268 64.4542 61.1343 64.6107 61.0356 64.7847C60.7132 65.3466 60.8701 65.9613 61.4626 66.2159C61.9332 66.4178 62.456 66.5495 62.9614 66.6022C64.3121 66.7515 65.6453 66.6198 66.9524 66.2247C66.8653 65.6101 66.5864 65.3291 65.9764 65.2676C65.672 65.2402 65.3641 65.2299 65.057 65.2197L65.0569 65.2196L65.0567 65.2196L65.0565 65.2196C64.8717 65.2134 64.6871 65.2073 64.5038 65.1974C63.3187 65.1271 63.127 64.9428 62.8917 63.7838C62.8508 63.5895 62.7707 63.3991 62.6856 63.1968C62.6438 63.0974 62.6008 62.9952 62.5606 62.8882ZM63.6596 41.4215C62.2654 40.6927 60.845 40.0606 59.2678 39.7445C59.4943 38.6206 60.235 38.1201 61.4027 38.2694C62.5791 38.4099 63.6247 38.9016 64.5833 39.5777C64.6791 39.6479 64.8011 39.8059 64.775 39.8762C64.5833 40.3679 64.3828 40.8684 64.1301 41.3337C64.0779 41.4215 63.7729 41.483 63.6596 41.4215ZM67.4855 61.0281C67.4855 61.9412 67.6337 62.0905 68.3308 61.9588C68.6183 61.9061 68.9233 61.7832 69.1586 61.6076C70.0648 60.9315 70.3175 59.2984 69.6901 58.394C69.542 58.1833 69.4113 58.0955 69.1673 58.2711C68.1565 59.0174 67.5291 59.9569 67.4855 61.0281Z" fill="#20113D"/>
<defs>
<filter id="filter0_d_38996_9062" x="0" y="0" width="112" height="112" filterUnits="userSpaceOnUse" color-interpolation-filters="sRGB">
<feFlood flood-opacity="0" result="BackgroundImageFix"/>
<feColorMatrix in="SourceAlpha" type="matrix" values="0 0 0 0 0 0 0 0 0 0 0 0 0 0 0 0 0 0 127 0" result="hardAlpha"/>
<feOffset dy="4"/>
<feGaussianBlur stdDeviation="2"/>
<feColorMatrix type="matrix" values="0 0 0 0 0 0 0 0 0 0 0 0 0 0 0 0 0 0 0.25 0"/>
<feBlend mode="normal" in2="BackgroundImageFix" result="effect1_dropShadow_38996_9062"/>
<feBlend mode="normal" in="SourceGraphic" in2="effect1_dropShadow_38996_9062" result="shape"/>
</filter>
</defs>
</svg>
