<svg width="69" height="82" viewBox="0 0 69 82" fill="none" xmlns="http://www.w3.org/2000/svg">
<g filter="url(#filter0_d_44_8905)">
<path d="M34.1085 18.7188C26.3098 18.7188 20 24.7067 20 32.0855C20 39.4643 34.1085 60.6106 34.1085 60.6106C34.1085 60.6106 48.2171 39.4643 48.2171 32.0855C48.2171 24.7067 41.9072 18.7188 34.1085 18.7188Z" fill="#F58021"/>
<path fill-rule="evenodd" clip-rule="evenodd" d="M33.8749 24.0848C34.1769 24.0678 34.4648 24.1303 34.7612 24.2356C34.7514 24.2638 34.7423 24.2916 34.7334 24.3188L34.7334 24.3188L34.7334 24.3188L34.7334 24.3188L34.7334 24.3189C34.7117 24.385 34.691 24.4483 34.6633 24.5088C34.578 24.6952 34.4914 24.8815 34.4047 25.0679C34.318 25.2543 34.2314 25.4406 34.1461 25.627L34.1459 25.6275C34.0998 25.7284 34.0775 25.7773 34.0397 25.7978C34.004 25.8172 33.9546 25.8113 33.8587 25.7998L33.8414 25.7977C33.7435 25.7864 33.6848 25.7437 33.6708 25.6469C33.6649 25.6062 33.6574 25.5653 33.6499 25.5243L33.6499 25.5242L33.6499 25.5242V25.5242L33.6499 25.5241C33.6291 25.4106 33.6082 25.2968 33.6205 25.186C33.6514 24.9122 33.7014 24.6403 33.7513 24.3687L33.7513 24.3686L33.7513 24.3685C33.7647 24.2957 33.7781 24.223 33.7911 24.1503C33.7966 24.1247 33.8442 24.0877 33.8749 24.0848ZM31.8061 24.7275C31.8684 24.8213 31.9299 24.9143 31.9909 25.0067C32.1763 25.2873 32.3576 25.5618 32.5469 25.8315C32.6168 25.934 32.7119 26.025 32.8656 25.9624C33.1005 25.8714 33.1592 25.8088 33.0893 25.5584C33.0057 25.254 33.0576 24.9614 33.1096 24.6677L33.1256 24.5767C33.1452 24.4686 33.1424 24.3491 33.1172 24.241C33.1061 24.1898 33.0054 24.1129 32.9663 24.1215C32.5385 24.2296 32.1639 24.443 31.8061 24.7275ZM30.8923 27.1768C31.0881 27.3223 31.2846 27.4683 31.4845 27.6161C31.4174 27.9433 31.2441 28.1282 30.9058 28.1652C30.4389 28.2136 30.0447 28.0201 29.6897 27.7299C29.6701 27.7128 29.6617 27.6502 29.6757 27.6217L29.7378 27.4804L29.7379 27.4803C29.8285 27.2736 29.9194 27.0664 30.0196 26.8649C30.0465 26.8082 30.0905 26.7609 30.1326 26.7156L30.1327 26.7156C30.1519 26.695 30.1707 26.6748 30.1873 26.6543C30.4248 26.8294 30.6581 27.0028 30.8922 27.1768L30.8923 27.1768ZM31.0179 28.9166C30.4895 28.7829 29.9779 28.652 29.4272 28.5097C29.4154 28.5757 29.4022 28.6439 29.3887 28.7135C29.3639 28.8419 29.3381 28.9754 29.3182 29.1101C29.299 29.2376 29.2864 29.3662 29.2735 29.4973L29.2735 29.4973C29.2657 29.5768 29.2578 29.6573 29.2483 29.7389C29.69 29.9637 30.1429 30.0263 30.5902 29.7645C30.9089 29.5824 31.0347 29.2808 31.0179 28.9166ZM29.2678 30.4237C29.1839 30.8733 29.251 31.2972 29.4075 31.7098C29.4215 31.7439 29.4579 31.7809 29.4914 31.7923C30.1512 32.0171 30.8948 31.5675 30.9983 30.9615C31.0123 30.879 31.0178 30.7907 31.0123 30.7082C30.9787 30.3469 30.9116 30.2957 30.5649 30.3469L30.4651 30.3616C30.2272 30.3969 29.989 30.4322 29.7486 30.4521C29.643 30.46 29.5348 30.449 29.4231 30.4377C29.3721 30.4325 29.3203 30.4273 29.2678 30.4237ZM31.1464 33.0927C31.3701 32.609 31.3002 32.2619 30.9227 31.9603C30.5313 32.2619 30.0784 32.3728 29.592 32.3899C29.5585 32.3899 29.5025 32.4383 29.4942 32.4753C29.4187 32.8366 29.5249 33.1582 29.7234 33.4541C29.7393 33.4775 29.7697 33.4895 29.804 33.503C29.824 33.5109 29.8454 33.5194 29.866 33.5309L29.8375 33.5506C29.8144 33.5666 29.792 33.5822 29.7681 33.5964C29.2593 33.9065 28.8483 34.3134 28.6051 34.8682C28.2864 35.5995 28.1718 36.3535 28.4598 37.1303C28.5116 37.27 28.5593 37.4121 28.6068 37.5541C28.6465 37.6724 28.6862 37.7907 28.7281 37.9071C28.8679 38.2998 28.8791 38.7038 28.7673 39.0965C28.4374 40.2432 28.7477 41.296 29.1866 42.3345C29.2251 42.4213 29.288 42.4998 29.3486 42.5755L29.3486 42.5756L29.3486 42.5756L29.3516 42.5792C29.4354 42.6845 29.5445 42.7187 29.6759 42.6731C29.8073 42.6248 29.9023 42.5366 29.8967 42.3971C29.8911 42.2179 29.8688 42.0386 29.8268 41.865C29.7947 41.7271 29.7556 41.5905 29.7164 41.4539L29.7164 41.4539L29.7164 41.4538C29.6773 41.3173 29.6381 41.1807 29.606 41.0427C29.5165 40.6529 29.6311 40.3314 29.9443 40.0895C29.9577 40.0795 29.9708 40.0692 29.9838 40.059C30.0115 40.0373 30.0387 40.0159 30.0673 39.9985C30.5397 39.7225 30.8305 39.29 31.0709 38.8091C31.1381 38.6724 31.2249 38.5451 31.3117 38.418L31.3117 38.418C31.3514 38.3599 31.391 38.3018 31.4288 38.2429L31.4623 38.2599C31.4791 38.3396 31.4962 38.4193 31.5133 38.4989C31.5647 38.738 31.6161 38.977 31.658 39.216C31.8453 40.2546 32.4492 41.037 33.1481 41.7655C33.217 41.8384 33.3077 41.892 33.3934 41.9426L33.3969 41.9447C33.5143 42.0158 33.6345 42.0158 33.7464 41.922C33.861 41.8252 33.9029 41.7029 33.8526 41.5663C33.8023 41.4354 33.738 41.3073 33.6597 41.1907C33.5785 41.0713 33.4909 40.9569 33.4033 40.8426C33.328 40.7443 33.2527 40.6461 33.1816 40.5448C32.849 40.0725 32.835 39.7395 33.1621 39.2672C33.4221 38.8888 33.601 38.4762 33.7604 38.0295C33.8049 38.0505 33.8486 38.07 33.8914 38.0891L33.8914 38.0891L33.8914 38.0891C33.9643 38.1216 34.0345 38.153 34.1014 38.1888C34.7892 38.5701 35.2113 39.1705 35.4629 39.9074C35.5651 40.2014 35.6532 40.5007 35.7412 40.7997L35.7412 40.7997C35.7639 40.877 35.7866 40.9542 35.8096 41.0313C35.8907 41.3045 36.0221 41.5464 36.201 41.7626L36.4055 42.0084C36.7254 42.393 37.0446 42.7768 37.3696 43.1568C37.4618 43.265 37.5737 43.3674 37.6939 43.4442C37.9119 43.5837 38.1244 43.541 38.3257 43.3446C38.4711 43.2024 38.4962 43.026 38.3648 42.8012C38.2895 42.6717 38.1922 42.5544 38.0966 42.4389C38.0787 42.4174 38.0609 42.3959 38.0433 42.3744C37.9874 42.3061 37.9231 42.2406 37.856 42.1837C37.2885 41.6915 37.1487 41.0399 37.1739 40.3257C37.1779 40.2058 37.1923 40.0859 37.2063 39.9692L37.2063 39.9692L37.2064 39.969C37.2116 39.9252 37.2168 39.8818 37.2214 39.8391C37.3068 39.8225 37.3912 39.8059 37.4739 39.7897L37.4745 39.7895L37.4759 39.7893L37.4762 39.7892L37.4796 39.7885L37.4802 39.7884C37.636 39.7578 37.7854 39.7284 37.9231 39.7026C37.9752 39.8194 38.024 39.9389 38.0729 40.0586L38.0729 40.0586L38.0729 40.0586C38.1787 40.3176 38.2848 40.5777 38.4263 40.8151C38.6345 41.1651 38.8811 41.4909 39.1276 41.8165L39.1276 41.8166L39.1276 41.8166L39.1276 41.8166C39.1857 41.8934 39.2438 41.9701 39.3014 42.0471C39.3992 42.178 39.5306 42.2833 39.7096 42.2406C39.8046 42.2179 39.8773 41.9561 39.8298 41.7711C39.785 41.5976 39.7319 41.4212 39.6453 41.2675C39.2595 40.5761 39.1113 39.8164 39.0078 39.0453C38.9547 38.6526 38.7255 38.4762 38.3397 38.553C37.6184 38.6981 36.8943 38.7693 36.159 38.7038C36.1087 38.6981 36.0584 38.6868 36.0081 38.6754C35.4881 38.5502 35.2812 38.0608 35.5496 37.5856C35.558 37.5685 35.5664 37.5514 35.5803 37.5372C35.8303 37.2807 35.9658 36.9621 36.1018 36.6422C36.1499 36.5291 36.198 36.4159 36.2513 36.3052C36.3575 36.0889 36.5588 35.9068 36.7517 35.7475C36.9894 35.554 37.2801 35.4572 37.5792 35.3918C37.6212 35.3833 37.6827 35.3434 37.6911 35.3093C37.6995 35.2694 37.6659 35.1955 37.6324 35.1784C37.611 35.1681 37.5896 35.1576 37.568 35.147C37.4398 35.084 37.3075 35.019 37.1711 35.002C36.9474 34.9735 36.7154 34.9792 36.4889 35.002C36.2373 35.0276 36.0137 34.9479 35.804 34.8455C35.5803 34.7374 35.3679 34.5894 35.1666 34.4414C34.6158 34.0346 34.0595 33.639 33.4277 33.3687C32.7511 33.0757 32.0494 32.9789 31.3225 33.087C31.2694 33.0813 31.2107 33.0842 31.1464 33.0927ZM34.2133 32.5438C33.9896 32.686 33.7464 32.7486 33.4836 32.7486C33.232 32.7401 32.9916 32.6889 32.7875 32.5296C32.5611 32.356 32.4744 32.0999 32.6058 31.8524C32.6897 31.6966 32.8065 31.56 32.9234 31.4234C32.9624 31.3779 33.0014 31.3324 33.0391 31.2861C33.0587 31.2634 33.1062 31.2548 33.1398 31.2577C33.7464 31.3174 34.2161 31.7414 34.3251 32.2763C34.3531 32.4072 34.3167 32.4783 34.2133 32.5438ZM31.1772 25.2255C31.496 25.4702 31.9433 26.0279 32.248 26.5543L32.2165 26.5948C32.1444 26.6877 32.0763 26.7753 32.0104 26.8673C31.9516 26.9498 31.8818 26.9698 31.7811 26.9385C31.2639 26.7706 30.9089 26.395 30.5342 25.991C30.7523 25.732 30.9648 25.4788 31.1772 25.2255ZM35.5385 26.9736C35.7689 26.7716 36.0495 26.7363 36.3317 26.7008C36.3954 26.6928 36.4592 26.6848 36.5226 26.6748C36.6679 26.6521 36.8133 26.6094 36.9531 26.5639C36.9839 26.5525 37.0286 26.4956 37.023 26.4671C36.9811 26.1854 36.8944 25.9208 36.6624 25.7387C36.6232 25.7074 36.5589 25.6875 36.5142 25.6932C36.1731 25.7472 35.8572 25.8667 35.5748 26.0688L35.5748 26.0688C35.5413 26.0944 35.5077 26.12 35.477 26.1484C35.1862 26.4216 35.2058 26.7317 35.5385 26.9736ZM35.6476 31.642C35.3652 31.1299 34.1351 30.6405 33.8164 30.9165C33.8164 30.925 33.8164 30.9392 33.822 30.9421C34.2022 31.2778 34.4762 31.7018 34.7418 32.1314C34.8061 32.2367 34.8704 32.2424 34.971 32.2083C35.2059 32.1286 35.4742 31.9067 35.6476 31.642ZM37.5261 37.1657C37.4842 37.3848 37.3975 37.4503 37.1739 37.4559C37.1346 37.4485 37.0953 37.4426 37.0563 37.4367L37.0562 37.4367C36.9757 37.4246 36.896 37.4126 36.8188 37.3877C36.5672 37.3108 36.4582 37.1316 36.5057 36.8669C36.5225 36.7702 36.5588 36.6763 36.6008 36.5881C36.7517 36.278 37.0006 36.0589 37.2857 35.8824C37.3836 35.8227 37.501 35.7857 37.6128 35.7658C37.6645 35.7557 37.7218 35.77 37.7788 35.7843L37.7788 35.7843L37.7788 35.7843L37.7788 35.7843L37.7788 35.7843L37.7789 35.7843L37.7789 35.7843L37.7789 35.7843L37.7789 35.7843C37.802 35.7901 37.8251 35.7958 37.8476 35.7999C37.8429 35.8208 37.8393 35.8428 37.8356 35.865C37.8264 35.9212 37.817 35.9782 37.7889 36.019C37.6268 36.2552 37.5793 36.5198 37.5653 36.7987C37.5597 36.921 37.5485 37.0462 37.5261 37.1657ZM36.8696 36.801C36.8145 36.8451 36.7781 36.9134 36.7797 36.9865C36.7825 37.1145 36.8887 37.2169 37.0145 37.2141C37.0665 37.2129 37.1135 37.1944 37.1507 37.164C37.1133 37.1939 37.0662 37.2121 37.0146 37.2133C36.8888 37.2162 36.7826 37.1137 36.7798 36.9857C36.7798 36.913 36.8156 36.8452 36.8696 36.801ZM35.6221 27.7643L35.9469 27.7916C36.3727 27.8273 36.79 27.8623 37.2073 27.9009C37.3303 27.9123 37.3694 27.8639 37.3806 27.7472C37.403 27.4968 37.3191 27.3005 37.1122 27.1639C36.7627 26.9363 36.1393 26.9761 35.8206 27.2493C35.6585 27.3859 35.5886 27.5594 35.6221 27.7643ZM35.3706 24.4886C35.7061 24.6736 36.0248 24.8614 36.2484 25.1829C35.734 25.4902 35.2364 25.789 34.7387 26.0906C34.6465 25.9426 34.6353 25.843 34.7024 25.6353C34.83 25.2353 35.0714 24.9018 35.3162 24.5638L35.3706 24.4886ZM34.6103 30.3992C34.959 30.5199 35.2392 30.7379 35.5248 30.9602C35.6972 31.0943 35.8715 31.23 36.064 31.3467L36.1427 31.221C36.2467 31.055 36.3482 30.8931 36.4443 30.7293C36.4582 30.7065 36.4499 30.6411 36.4275 30.624C36.064 30.3338 35.6727 30.1005 35.1946 30.0777C34.957 30.072 34.7445 30.1346 34.6103 30.3992ZM37.269 28.5099C37.2634 28.743 37.2577 28.9818 37.1097 29.1779C37.0516 29.1585 36.9941 29.1388 36.9371 29.1193L36.9371 29.1193L36.937 29.1193L36.937 29.1193L36.937 29.1193L36.937 29.1193C36.7853 29.0674 36.6365 29.0165 36.4862 28.9731C36.2206 28.9019 35.955 28.8365 35.6867 28.7767C35.586 28.754 35.5636 28.7027 35.5776 28.606C35.614 28.3385 35.7957 28.1735 36.1032 28.1621C36.4974 28.145 36.8608 28.2788 37.2159 28.4381C37.241 28.4495 37.269 28.4865 37.269 28.5093L37.269 28.5099ZM36.1194 37.3702L36.1193 37.3703C36.0642 37.4377 36.0135 37.4997 35.9635 37.5625C35.9464 37.5842 35.9285 37.6053 35.9107 37.6263C35.8675 37.6774 35.8247 37.7281 35.793 37.7845C35.6895 37.9666 35.7399 38.1658 35.93 38.2483C36.0809 38.3137 36.2487 38.3564 36.4108 38.3735C36.8442 38.4219 37.2719 38.3792 37.6913 38.2511C37.6633 38.052 37.5738 37.9609 37.3781 37.941C37.2805 37.9321 37.1817 37.9288 37.0832 37.9254L37.0831 37.9254L37.083 37.9254L37.083 37.9254C37.0237 37.9234 36.9645 37.9214 36.9057 37.9182C36.5255 37.8955 36.4639 37.8357 36.3885 37.4601C36.3753 37.3971 36.3496 37.3355 36.3223 37.2699C36.3089 37.2377 36.2951 37.2046 36.2822 37.1699C36.2227 37.244 36.1694 37.3091 36.1197 37.3699L36.1194 37.3702L36.1194 37.3702ZM36.6344 30.2139C36.1871 29.9777 35.7314 29.7729 35.2254 29.6704C35.2981 29.3062 35.5357 29.144 35.9104 29.1924C36.2878 29.2379 36.6233 29.3973 36.9308 29.6164C36.9615 29.6391 37.0007 29.6903 36.9923 29.7131C36.9308 29.8724 36.8665 30.0346 36.7854 30.1854C36.7686 30.2139 36.6708 30.2338 36.6344 30.2139ZM37.8615 36.5674C37.8615 36.8633 37.909 36.9117 38.1327 36.869C38.2249 36.8519 38.3228 36.8121 38.3982 36.7552C38.689 36.5361 38.7701 36.0069 38.5688 35.7138C38.5213 35.6455 38.4793 35.617 38.401 35.6739C38.0767 35.9158 37.8755 36.2203 37.8615 36.5674Z" fill="#20113D"/>
</g>
<defs>
<filter id="filter0_d_44_8905" x="-3.25586" y="-2.97277" width="75" height="90" filterUnits="userSpaceOnUse" color-interpolation-filters="sRGB">
<feFlood flood-opacity="0" result="BackgroundImageFix"/>
<feColorMatrix in="SourceAlpha" type="matrix" values="0 0 0 0 0 0 0 0 0 0 0 0 0 0 0 0 0 0 127 0" result="hardAlpha"/>
<feOffset dy="1.28114"/>
<feGaussianBlur stdDeviation="10"/>
<feColorMatrix type="matrix" values="0 0 0 0 0.960784 0 0 0 0 0.501961 0 0 0 0 0.129412 0 0 0 0.5 0"/>
<feBlend mode="normal" in2="BackgroundImageFix" result="effect1_dropShadow_44_8905"/>
<feBlend mode="normal" in="SourceGraphic" in2="effect1_dropShadow_44_8905" result="shape"/>
</filter>
</defs>
</svg>
