<svg width="120" height="120" viewBox="0 0 120 120" fill="none" xmlns="http://www.w3.org/2000/svg">
<circle cx="60" cy="60" r="58.5" stroke="white" stroke-width="3"/>
<g filter="url(#filter0_d_39051_9073)">
<circle cx="60" cy="60" r="52" fill="white"/>
</g>
<path fill-rule="evenodd" clip-rule="evenodd" d="M59.0593 29.5096C60.0004 29.4569 60.898 29.6501 61.8217 29.9749C61.7911 30.062 61.7629 30.1476 61.7351 30.2318L61.7351 30.2318C61.6676 30.4359 61.6031 30.6313 61.5167 30.8178C61.2509 31.3929 60.9808 31.9681 60.7106 32.5432C60.4405 33.1183 60.1704 33.6934 59.9046 34.2685L59.9038 34.2701C59.7607 34.5803 59.6911 34.7314 59.5739 34.795C59.4627 34.8555 59.3087 34.8372 59.0086 34.8016L58.9548 34.7953C58.6498 34.7602 58.4668 34.6285 58.4232 34.3299C58.4047 34.2042 58.3814 34.0779 58.3579 33.9514L58.3579 33.9514L58.3579 33.9513L58.3579 33.9513L58.3579 33.9513L58.3579 33.9512L58.3579 33.9512L58.3579 33.9512L58.3579 33.9511L58.3579 33.9511L58.3579 33.9511C58.293 33.6007 58.228 33.2494 58.2664 32.9075C58.3626 32.0629 58.5184 31.2237 58.674 30.3856L58.674 30.3856L58.674 30.3855L58.674 30.3854L58.674 30.3853L58.674 30.3852L58.674 30.3851L58.6741 30.3851L58.6741 30.385L58.6741 30.385L58.6741 30.3849L58.6741 30.3849C58.7158 30.1604 58.7574 29.936 58.7979 29.7115C58.8154 29.6325 58.9635 29.5184 59.0593 29.5096ZM53.1872 32.3552L53.1874 32.3555L53.1874 32.3555L53.1875 32.3556C53.7652 33.2214 54.3305 34.0685 54.9205 34.9008C55.1383 35.2168 55.4346 35.4978 55.9139 35.3046C56.6458 35.0237 56.8288 34.8305 56.611 34.0579C56.3503 33.1187 56.5121 32.2156 56.6744 31.3093L56.6744 31.3093C56.6912 31.2158 56.708 31.1223 56.7243 31.0287C56.7852 30.695 56.7765 30.3263 56.6981 29.9926C56.6633 29.8346 56.3496 29.5975 56.2276 29.6238C54.8943 29.9575 53.7267 30.616 52.6113 31.494C52.8055 31.7832 52.997 32.0702 53.1872 32.3552ZM49.7643 39.0505C50.3748 39.4996 50.9871 39.95 51.6102 40.4059C51.4011 41.4157 50.8608 41.9864 49.8065 42.1005C48.3512 42.2498 47.1226 41.6527 46.0159 40.7572C45.9549 40.7045 45.9288 40.5113 45.9723 40.4235C46.0363 40.2801 46.1 40.1364 46.1637 39.9926L46.1643 39.9912L46.1651 39.9894L46.1653 39.9889L46.166 39.9873L46.1661 39.9872L46.1661 39.9872L46.1661 39.9872L46.1661 39.9871L46.1661 39.9871L46.1661 39.9871L46.1662 39.987L46.1662 39.987L46.1662 39.987L46.1662 39.9869L46.1662 39.9869L46.1662 39.9869L46.1663 39.9868L46.1663 39.9868C46.4488 39.349 46.732 38.7098 47.0441 38.088C47.1279 37.9131 47.2652 37.7671 47.3966 37.6275L47.3966 37.6274C47.4565 37.5638 47.5152 37.5014 47.567 37.4382C48.3064 37.9779 49.0329 38.5124 49.762 39.0488L49.7635 39.0499L49.7638 39.0501L49.7643 39.0505ZM50.154 44.4169C48.5071 44.0043 46.9124 43.6004 45.1958 43.1614C45.159 43.3652 45.1179 43.5755 45.0759 43.7904L45.0759 43.7905C44.9985 44.1867 44.9181 44.5985 44.8559 45.014C44.7963 45.4075 44.7569 45.8044 44.7167 46.2089V46.2089C44.6923 46.4543 44.6677 46.7025 44.6381 46.9544C46.0149 47.6481 47.4265 47.8412 48.8208 47.0335C49.8141 46.4715 50.2063 45.5408 50.154 44.4169ZM44.699 49.0716C44.4376 50.4589 44.6467 51.7671 45.1347 53.0403C45.1783 53.1456 45.2916 53.2598 45.3961 53.2949C47.4526 53.9885 49.7705 52.6013 50.0929 50.7311C50.1365 50.4764 50.1539 50.2043 50.1365 49.9496C50.0319 48.8345 49.8228 48.6765 48.7423 48.8345L48.431 48.8801C47.6894 48.9889 46.947 49.0978 46.1978 49.1594C45.8687 49.1835 45.5315 49.1497 45.1831 49.1147C45.0242 49.0988 44.8629 49.0826 44.699 49.0716ZM50.5548 57.3061C51.252 55.8134 51.0341 54.7422 49.8577 53.8115C48.6378 54.7422 47.2261 55.0847 45.7099 55.1373C45.6053 55.1373 45.4311 55.2866 45.4049 55.4007C45.1696 56.5158 45.5008 57.508 46.1195 58.4211C46.169 58.4932 46.2637 58.5303 46.3707 58.5722C46.4331 58.5966 46.4997 58.6226 46.5639 58.6582C46.5337 58.6785 46.5043 58.6987 46.4751 58.7188L46.4751 58.7188C46.4032 58.7683 46.3333 58.8164 46.2589 58.8601C44.6729 59.8172 43.392 61.0728 42.6339 62.7849C41.6405 65.0414 41.2832 67.3682 42.1808 69.7652C42.3423 70.1961 42.4909 70.6348 42.6393 71.0727L42.6393 71.0729L42.6393 71.073L42.6394 71.0732L42.6394 71.0733L42.6395 71.0734L42.6395 71.0736L42.6396 71.0737L42.6396 71.0738L42.6397 71.074L42.6397 71.0741L42.6398 71.0742L42.6398 71.0744L42.6398 71.0745L42.6399 71.0747L42.6399 71.0748L42.64 71.0749L42.64 71.0751C42.7635 71.4396 42.8868 71.8036 43.0173 72.1622C43.453 73.3739 43.4879 74.6206 43.1393 75.8323C42.1111 79.3707 43.0783 82.6194 44.4464 85.8242C44.5664 86.0921 44.7624 86.3344 44.9513 86.568L44.9605 86.5793C45.2219 86.9042 45.5618 87.0095 45.9713 86.8691C46.3809 86.7198 46.6771 86.4476 46.6597 86.0174C46.6423 85.4642 46.5726 84.9111 46.4419 84.3755C46.3417 83.9496 46.2197 83.5282 46.0977 83.1067C45.9757 82.6853 45.8537 82.2638 45.7535 81.838C45.4746 80.6351 45.8319 79.6429 46.8079 78.8966C46.8495 78.8659 46.8902 78.8342 46.9306 78.8028L46.9307 78.8027L46.9308 78.8027L46.9309 78.8026L46.931 78.8025L46.9311 78.8025L46.9311 78.8024L46.9312 78.8024L46.9313 78.8023L46.9315 78.8022C47.0177 78.7352 47.1025 78.6693 47.1913 78.6156C48.6639 77.764 49.5702 76.4294 50.3196 74.9455C50.5288 74.5238 50.7996 74.131 51.07 73.7388L51.0701 73.7387C51.1938 73.5594 51.3174 73.3801 51.4349 73.1982L51.5395 73.2509C51.5918 73.4968 51.6452 73.7426 51.6985 73.9884L51.6986 73.9886C51.8587 74.7261 52.0188 75.4636 52.1495 76.2011C52.7333 79.4059 54.6155 81.8204 56.794 84.0682C57.0089 84.2933 57.2916 84.4587 57.5585 84.6148L57.5695 84.6213C57.9355 84.8408 58.3102 84.8408 58.6588 84.5511C59.016 84.2525 59.1468 83.875 58.9899 83.4535C58.8331 83.0497 58.6326 82.6545 58.3886 82.2946C58.1356 81.9263 57.8624 81.5732 57.5894 81.2204C57.3547 80.9171 57.1201 80.614 56.8986 80.3014C55.8616 78.8439 55.818 77.8166 56.8376 76.3591C57.648 75.1914 58.2057 73.9182 58.7023 72.5397C58.841 72.6047 58.9772 72.6649 59.1107 72.7238L59.1108 72.7239L59.1109 72.7239L59.1111 72.724L59.1112 72.724L59.1113 72.7241C59.3383 72.8243 59.557 72.9209 59.7654 73.0314C61.9091 74.208 63.2249 76.0606 64.0091 78.3347C64.3276 79.2417 64.6021 80.1653 64.8763 81.0879L64.8764 81.0881L64.8765 81.0887C64.9473 81.3269 65.0181 81.5651 65.0896 81.8029C65.3423 82.6458 65.7519 83.3921 66.3096 84.0594C66.5224 84.3123 66.7349 84.5653 66.9473 84.8182L66.9473 84.8182L66.9473 84.8182L66.9474 84.8182C67.9442 86.0048 68.9392 87.1892 69.952 88.3617C70.2396 88.6953 70.5881 89.0114 70.9628 89.2485C71.6425 89.6787 72.3048 89.547 72.9322 88.9412C73.3853 88.5022 73.4637 87.9578 73.0542 87.2642C72.8192 86.8647 72.5162 86.5026 72.2182 86.1464L72.2181 86.1463L72.2181 86.1463L72.218 86.1462L72.2176 86.1457C72.1621 86.0794 72.1067 86.0133 72.0521 85.9471C71.8778 85.7364 71.6774 85.5345 71.4682 85.3589C69.6993 83.8399 69.2636 81.8292 69.342 79.6254C69.3547 79.2553 69.3996 78.8853 69.4432 78.5254L69.4432 78.5253C69.4596 78.3899 69.4759 78.2559 69.4902 78.124C69.7628 78.0715 70.0321 78.019 70.2956 77.9677L70.2972 77.9674C70.7828 77.8728 71.2484 77.7821 71.6774 77.7025C71.8398 78.0632 71.9919 78.4319 72.1442 78.8012C72.4738 79.6004 72.8048 80.4029 73.2459 81.1356C73.8946 82.2156 74.6632 83.2208 75.4315 84.2258L75.4319 84.2263L75.4321 84.2265L75.4321 84.2265C75.613 84.4632 75.794 84.6998 75.9733 84.9374C76.2783 85.3413 76.6879 85.6662 77.2455 85.5345C77.5418 85.4642 77.7684 84.6564 77.6202 84.0857C77.4808 83.5501 77.3153 83.0058 77.0451 82.5316C75.8426 80.398 75.3808 78.0537 75.0584 75.6743C74.8928 74.4626 74.1783 73.9182 72.9757 74.1553C70.7275 74.6031 68.4706 74.8226 66.1789 74.6206C66.0221 74.6031 65.8652 74.568 65.7084 74.5329L65.7083 74.5328C64.0875 74.1465 63.4427 72.6363 64.2792 71.17C64.3054 71.1173 64.3315 71.0647 64.3751 71.0208C65.1541 70.2293 65.5764 69.2461 66.0004 68.2589C66.1503 67.91 66.3003 67.5606 66.4664 67.2189C66.7976 66.5516 67.425 65.9897 68.0262 65.498C68.7669 64.9009 69.6732 64.6024 70.6056 64.4005C70.7363 64.3741 70.928 64.2512 70.9541 64.1458C70.9802 64.0229 70.8757 63.7946 70.7711 63.742C70.7046 63.7103 70.6377 63.6778 70.5704 63.6451C70.1708 63.4507 69.7585 63.2502 69.3333 63.1976C68.6362 63.1098 67.913 63.1273 67.2071 63.1976C66.4229 63.2766 65.7258 63.0308 65.0722 62.7147C64.3751 62.381 63.7128 61.9244 63.0854 61.4679C61.3688 60.2123 59.6347 58.9919 57.6654 58.1577C55.5566 57.2534 53.3694 56.9548 51.1038 57.2885C50.9382 57.2709 50.7553 57.2797 50.5548 57.3061ZM60.1132 55.616C59.4161 56.055 58.658 56.2482 57.8389 56.2482C57.0546 56.2219 56.3053 56.0638 55.6691 55.5721C54.9633 55.0365 54.6932 54.2463 55.1027 53.4824C55.3641 53.0017 55.7285 52.5803 56.0928 52.1588L56.093 52.1587L56.0931 52.1586L56.0932 52.1584L56.0933 52.1583L56.0934 52.1581L56.0936 52.158L56.0937 52.1578L56.0938 52.1577L56.0939 52.1576L56.094 52.1574L56.0942 52.1573L56.0943 52.1571L56.0943 52.1571L56.0943 52.1571L56.0943 52.1571L56.0944 52.1571C56.2153 52.0172 56.3363 51.8773 56.4534 51.7352C56.5144 51.6649 56.6625 51.6386 56.7671 51.6474C58.658 51.8318 60.1219 53.14 60.4618 54.7907C60.5489 55.1946 60.4356 55.4141 60.1132 55.616ZM50.6502 33.032C51.6436 33.7871 53.0379 35.508 53.9877 37.1323L53.8897 37.2573L53.8896 37.2573L53.8896 37.2573L53.8895 37.2575L53.8894 37.2576L53.8893 37.2578C53.6647 37.544 53.4525 37.8144 53.247 38.0982C53.064 38.3528 52.8461 38.4143 52.5324 38.3177C50.9204 37.7996 49.8137 36.6407 48.646 35.3939C49.3251 34.5956 49.9867 33.8149 50.6484 33.0342L50.6488 33.0337L50.6502 33.032ZM64.2441 38.4238C64.9621 37.8006 65.8367 37.6917 66.7165 37.5821L66.7166 37.5821L66.7166 37.5821L66.7167 37.5821L66.7167 37.5821L66.7168 37.5821L66.7168 37.5821L66.7169 37.5821L66.7169 37.5821L66.717 37.5821L66.717 37.5821L66.717 37.5821C66.9155 37.5573 67.1142 37.5326 67.3114 37.5019C67.7645 37.4317 68.2176 37.2999 68.6533 37.1595C68.7492 37.1243 68.8886 36.9487 68.8712 36.8609C68.7405 35.9917 68.4704 35.1751 67.7471 34.6132C67.6251 34.5166 67.4247 34.4552 67.2853 34.4727C66.2222 34.6395 65.2375 35.0083 64.3574 35.6317C64.2528 35.7107 64.1482 35.7897 64.0524 35.8776C63.1461 36.7205 63.2071 37.6775 64.2441 38.4238ZM64.5844 52.8298C63.7042 51.2494 59.8701 49.7392 58.8767 50.5909C58.8767 50.6172 58.8767 50.6611 58.8942 50.6699C60.0793 51.706 60.9332 53.0142 61.761 54.34C61.9615 54.6649 62.1619 54.6825 62.4756 54.5771C63.2076 54.3313 64.0441 53.6464 64.5844 52.8298ZM70.4392 69.8709C70.3085 70.547 70.0383 70.7489 69.3412 70.7665C69.2187 70.7435 69.0963 70.7252 68.9744 70.7071C68.7234 70.6696 68.475 70.6326 68.2346 70.5557C67.4503 70.3187 67.1105 69.7655 67.2586 68.949C67.3109 68.6504 67.4242 68.3607 67.5549 68.0885C68.0254 67.1315 68.801 66.4554 69.6898 65.911C69.9948 65.7266 70.3608 65.6125 70.7093 65.551C70.8704 65.5198 71.0491 65.5641 71.2267 65.608C71.2988 65.6259 71.3708 65.6437 71.4413 65.6564C71.4265 65.7208 71.4152 65.7888 71.4039 65.857C71.3751 66.0306 71.3458 66.2064 71.2583 66.3325C70.7529 67.0612 70.6047 67.8778 70.5612 68.7382C70.5438 69.1158 70.5089 69.5021 70.4392 69.8709ZM68.8271 68.589C68.4437 68.589 68.1039 68.9314 68.1126 69.3177C68.1148 69.4173 68.1374 69.5119 68.1764 69.5975C68.138 69.5124 68.1157 69.4186 68.1135 69.3198C68.1135 68.9335 68.4446 68.5911 68.8281 68.5911C69.1112 68.5911 69.358 68.7604 69.47 69.0066C69.3584 68.7593 69.1111 68.589 68.8271 68.589ZM64.5057 40.861C64.8452 40.8893 65.1825 40.9173 65.5181 40.9452L65.5183 40.9452L65.5185 40.9452L65.5185 40.9452L65.5186 40.9452L65.5187 40.9452C66.8457 41.0554 68.1461 41.1633 69.4465 41.2824C69.8299 41.3175 69.9519 41.1683 69.9867 40.8083C70.0564 40.0356 69.795 39.4298 69.1502 39.0083C68.061 38.3059 66.1178 38.4288 65.1244 39.2717C64.619 39.6932 64.4011 40.2288 64.5057 40.861ZM63.7217 30.7549C64.7674 31.3256 65.7608 31.9051 66.4579 32.8973C64.8545 33.8455 63.3034 34.7674 61.7524 35.6981C61.4648 35.2416 61.43 34.9343 61.6391 34.2933C62.0367 33.0588 62.7893 32.0298 63.5524 30.9867L63.5528 30.9862L63.5533 30.9853C63.6095 30.9086 63.6656 30.8318 63.7217 30.7549ZM61.3516 48.9945C62.4385 49.3668 63.3119 50.0397 64.2021 50.7256L64.2021 50.7256C64.7393 51.1395 65.2827 51.5581 65.8828 51.9183C65.9644 51.7888 66.0457 51.6604 66.1265 51.5328L66.1275 51.5311L66.1281 51.5301L66.1283 51.5299C66.4523 51.0179 66.7685 50.5182 67.0679 50.013C67.1115 49.9427 67.0854 49.7408 67.0156 49.6881C65.8828 48.7925 64.6629 48.0725 63.1728 48.0023C62.4321 47.9847 61.7699 48.1779 61.3516 48.9945ZM69.6387 43.1647C69.6213 43.884 69.6035 44.6207 69.1421 45.226C68.961 45.166 68.7818 45.1053 68.6039 45.045C68.1313 44.8849 67.6674 44.7278 67.1989 44.5938C66.3711 44.3743 65.5433 44.1724 64.7067 43.988C64.393 43.9177 64.3233 43.7597 64.3669 43.4612C64.4802 42.6358 65.0466 42.1266 66.0051 42.0915C67.2338 42.0388 68.3666 42.4514 69.4732 42.9431C69.5517 42.9783 69.6388 43.0924 69.6388 43.1626L69.6387 43.1647ZM66.5609 69.8882C66.3749 70.1173 66.2084 70.3188 66.0532 70.5066L66.0528 70.5072C65.8811 70.715 65.7231 70.9062 65.5676 71.0999C65.5141 71.1665 65.4585 71.2316 65.403 71.2966L65.4029 71.2967C65.2683 71.4542 65.1347 71.6107 65.036 71.7847C64.7136 72.3466 64.8704 72.9613 65.463 73.2159C65.9335 73.4178 66.4564 73.5495 66.9618 73.6022C68.3124 73.7515 69.6457 73.6198 70.9528 73.2247C70.8656 72.6101 70.5868 72.3291 69.9768 72.2676C69.6723 72.2402 69.3644 72.2299 69.0574 72.2197L69.0572 72.2196L69.0571 72.2196L69.0569 72.2196C68.872 72.2134 68.6875 72.2073 68.5041 72.1974C67.3191 72.1271 67.1273 71.9428 66.8921 70.7838C66.8512 70.5895 66.7711 70.3991 66.686 70.1968C66.6441 70.0974 66.6011 69.9952 66.5609 69.8882ZM67.66 48.4215C66.2657 47.6927 64.8454 47.0606 63.2681 46.7445C63.4947 45.6206 64.2354 45.1201 65.4031 45.2694C66.5794 45.4099 67.6251 45.9016 68.5836 46.5777C68.6795 46.6479 68.8015 46.8059 68.7753 46.8762C68.5836 47.3679 68.3832 47.8684 68.1305 48.3337C68.0782 48.4215 67.7732 48.483 67.66 48.4215ZM71.4859 68.0281C71.4859 68.9412 71.634 69.0905 72.3311 68.9588C72.6187 68.9061 72.9237 68.7832 73.159 68.6076C74.0652 67.9315 74.3179 66.2984 73.6905 65.394C73.5424 65.1833 73.4117 65.0955 73.1677 65.2711C72.1569 66.0174 71.5295 66.9569 71.4859 68.0281Z" fill="#20113D"/>
<defs>
<filter id="filter0_d_39051_9073" x="4" y="8" width="112" height="112" filterUnits="userSpaceOnUse" color-interpolation-filters="sRGB">
<feFlood flood-opacity="0" result="BackgroundImageFix"/>
<feColorMatrix in="SourceAlpha" type="matrix" values="0 0 0 0 0 0 0 0 0 0 0 0 0 0 0 0 0 0 127 0" result="hardAlpha"/>
<feOffset dy="4"/>
<feGaussianBlur stdDeviation="2"/>
<feColorMatrix type="matrix" values="0 0 0 0 0 0 0 0 0 0 0 0 0 0 0 0 0 0 0.25 0"/>
<feBlend mode="normal" in2="BackgroundImageFix" result="effect1_dropShadow_39051_9073"/>
<feBlend mode="normal" in="SourceGraphic" in2="effect1_dropShadow_39051_9073" result="shape"/>
</filter>
</defs>
</svg>
