<svg width="69" height="82" viewBox="0 0 69 82" fill="none" xmlns="http://www.w3.org/2000/svg">
<g filter="url(#filter0_d_44_8906)">
<g filter="url(#filter1_d_44_8906)">
<path d="M34.1085 18.7188C26.3098 18.7188 20 24.7067 20 32.0855C20 39.4643 34.1085 60.6106 34.1085 60.6106C34.1085 60.6106 48.2171 39.4643 48.2171 32.0855C48.2171 24.7067 41.9072 18.7188 34.1085 18.7188Z" fill="#F58021"/>
</g>
<path d="M29.2311 39.1789C29.1371 38.6982 29.1067 38.2206 29.1917 37.7429C29.3252 36.9841 29.7046 36.3643 30.3147 35.9017C30.6182 35.672 30.9673 35.5027 31.2951 35.3031C31.5106 35.1731 31.7413 35.0582 31.9264 34.895C32.4151 34.4566 32.8825 33.9971 33.3591 33.5466C33.6413 33.2806 33.9206 33.0115 34.2211 32.7243C34.0177 32.7092 33.8356 32.7062 33.6565 32.6789C33.4774 32.6517 33.2984 32.6064 33.1678 32.425C33.2316 32.422 33.2771 32.4189 33.3226 32.4189C33.8022 32.4038 34.045 32.162 34.0541 31.6994C34.0602 31.4757 34.0056 31.2489 33.9752 31.0252C33.8386 30.0789 34.0754 29.2264 34.6339 28.4585C34.6703 28.4071 34.7097 28.3527 34.7553 28.2892C34.6005 28.271 34.4608 28.265 34.3273 28.2348C34.1968 28.2045 34.0754 28.1501 33.9479 28.1078C33.9509 28.0927 33.954 28.0775 33.957 28.0655C34.0572 28.0443 34.1573 28.0261 34.2545 28.002C34.9708 27.8145 35.4959 27.4003 35.8146 26.7231C35.9481 26.442 36.0999 26.1668 36.2698 25.9068C36.5703 25.4503 36.9983 25.1601 37.5295 25.021C37.578 25.0089 37.6236 24.9938 37.6873 24.9757C37.5902 24.9182 37.4961 24.8789 37.4263 24.8124C37.3656 24.755 37.3352 24.6673 37.3079 24.5675C37.5598 24.6522 37.7389 24.5343 37.921 24.4285C38.2306 24.2471 38.5523 24.111 38.9226 24.1261C39.3779 24.1473 39.7239 24.3741 40.0123 24.7096C40.0517 24.755 40.0882 24.8034 40.1276 24.8548C40.3735 24.6764 40.6193 24.7248 40.847 24.8759C40.9745 24.9606 41.0746 25.0875 41.196 25.1873C41.3903 25.3506 41.5785 25.5289 41.794 25.665C41.9002 25.7315 42.055 25.7194 42.2128 25.7496C42.316 26.0429 42.1582 26.2545 41.6331 26.4571C41.7636 26.6838 41.8941 26.9106 42.0246 27.1373C42.1218 27.3036 42.1977 27.4668 42.14 27.6785C42.1157 27.7752 42.1794 27.9173 42.2432 28.011C42.4071 28.2468 42.5922 28.4675 42.7683 28.6943C42.8593 28.8152 42.9474 28.9392 43.0354 29.0601C43.1204 29.178 43.1204 29.2929 43.0323 29.4078C42.92 29.5499 42.8229 29.7101 42.6863 29.825C42.483 29.9943 42.316 30.1878 42.1461 30.3903C41.9093 30.6745 41.5694 30.6866 41.2901 30.4387C41.2203 30.3752 41.1444 30.3057 41.1019 30.2241C41.0048 30.0306 40.8379 29.958 40.6467 29.9066C40.4645 29.8582 40.2824 29.8159 40.1064 29.7555C39.9607 29.7041 39.8241 29.6345 39.6845 29.571C39.6602 29.6648 39.6693 29.7434 39.7907 29.825C39.9668 29.9399 40.1549 30.0336 40.3492 30.1213C40.4342 30.1606 40.4827 30.1968 40.5131 30.2906C40.6467 30.7289 40.7893 31.1643 40.935 31.5966C41.0777 32.0229 41.0898 32.4613 41.0746 32.9057C41.0564 33.4045 40.9745 33.8852 40.8227 34.3568C40.7134 34.6924 40.592 34.9101 40.4372 35.0613C40.334 34.7922 40.2339 34.5262 40.1307 34.2631C40.1155 34.2662 40.1003 34.2692 40.0851 34.2722C40.1094 34.5382 40.1246 34.8043 40.161 35.0703C40.328 36.2373 40.5829 37.3892 40.9229 38.5199C40.9684 38.665 41.0503 38.8071 41.1384 38.931C41.3023 39.1608 41.539 39.2394 41.8152 39.2152C42.1339 39.188 42.3009 39.2848 42.3737 39.5931C42.4283 39.8289 42.4314 40.0768 42.4587 40.3308C41.5269 40.3308 40.6406 40.3308 39.7209 40.3308C39.6936 39.9801 39.6754 39.6294 39.6329 39.2817C39.6116 39.0943 39.5843 38.8978 39.4993 38.7345C39.3111 38.3778 39.0896 38.0422 38.8741 37.7006C38.5675 37.2169 38.2549 36.7362 37.9483 36.2585C37.3261 36.5155 36.6796 36.7845 36.0149 37.0566C35.9936 37.2289 35.9694 37.4406 35.9451 37.6492C35.9117 37.9455 35.766 38.1752 35.5262 38.3385C35.2622 38.5168 34.9829 38.668 34.7097 38.8313C34.6369 38.8766 34.564 38.925 34.4912 38.9703C34.4973 38.9885 34.5003 39.0066 34.5064 39.0248C34.5974 39.0369 34.6915 39.061 34.7795 39.055C35.1316 39.0308 35.4837 38.9975 35.8388 38.9673C35.9238 38.9613 36.0088 38.9522 36.0968 38.9522C36.8951 38.9492 37.402 39.5206 37.3079 40.3338C37.2593 40.3368 37.2108 40.3399 37.1622 40.3399C34.5883 40.3399 32.0114 40.3429 29.4375 40.3399C29.1765 40.3399 28.9064 40.3278 28.6545 40.2643C28.4481 40.2129 28.2204 40.1131 28.0717 39.965C27.4798 39.3785 27.1702 38.6771 27.4404 37.8396C27.6073 37.3257 27.838 36.8299 28.0595 36.3341C28.2052 36.0075 28.3691 35.6901 28.4268 35.3303C28.53 34.6985 28.2538 34.1271 27.7135 33.861C27.3645 33.6887 26.7847 33.9548 26.7058 34.3266C26.6967 34.372 26.721 34.4506 26.7544 34.4717C27.0185 34.638 27.1429 34.8859 27.2006 35.1792C27.2795 35.5873 27.2006 36.2313 27.0336 36.5517C26.9487 36.4217 26.8637 36.2917 26.7787 36.1617C26.8242 36.7059 26.6057 37.1292 26.2718 37.5071C26.2536 37.501 26.2384 37.501 26.2354 37.498C26.1079 37.1564 25.8711 36.9024 25.598 36.6696C25.4644 36.5548 25.3612 36.4066 25.2429 36.2706C25.2064 36.3401 25.1548 36.4399 25.1032 36.5396C24.9484 36.4066 24.8513 36.1285 24.8938 35.8564C24.9575 35.4573 25.1275 35.1187 25.5312 34.9464C25.5707 34.9282 25.601 34.8678 25.6192 34.8194C25.8135 34.3115 26.1049 33.8762 26.5844 33.595C26.9729 33.3652 27.4039 33.2775 27.8531 33.3471C28.272 33.4106 28.533 33.6827 28.6818 34.0666C28.8942 34.6138 28.8821 35.1792 28.7516 35.7324C28.6575 36.1375 28.5088 36.5306 28.3509 36.9175C28.2143 37.2592 28.0656 37.5948 28.0231 37.9666C27.9503 38.6801 28.4845 39.2334 29.2311 39.1789Z" fill="#20113D"/>
</g>
<defs>
<filter id="filter0_d_44_8906" x="-3.25586" y="-2.97277" width="75" height="90" filterUnits="userSpaceOnUse" color-interpolation-filters="sRGB">
<feFlood flood-opacity="0" result="BackgroundImageFix"/>
<feColorMatrix in="SourceAlpha" type="matrix" values="0 0 0 0 0 0 0 0 0 0 0 0 0 0 0 0 0 0 127 0" result="hardAlpha"/>
<feOffset dy="1.28114"/>
<feGaussianBlur stdDeviation="10"/>
<feColorMatrix type="matrix" values="0 0 0 0 0.960784 0 0 0 0 0.501961 0 0 0 0 0.129412 0 0 0 0.5 0"/>
<feBlend mode="normal" in2="BackgroundImageFix" result="effect1_dropShadow_44_8906"/>
<feBlend mode="normal" in="SourceGraphic" in2="effect1_dropShadow_44_8906" result="shape"/>
</filter>
<filter id="filter1_d_44_8906" x="13.5943" y="13.5942" width="41.0282" height="54.702" filterUnits="userSpaceOnUse" color-interpolation-filters="sRGB">
<feFlood flood-opacity="0" result="BackgroundImageFix"/>
<feColorMatrix in="SourceAlpha" type="matrix" values="0 0 0 0 0 0 0 0 0 0 0 0 0 0 0 0 0 0 127 0" result="hardAlpha"/>
<feOffset dy="1.28114"/>
<feGaussianBlur stdDeviation="3.20284"/>
<feColorMatrix type="matrix" values="0 0 0 0 0.12549 0 0 0 0 0.0666667 0 0 0 0 0.239216 0 0 0 1 0"/>
<feBlend mode="normal" in2="BackgroundImageFix" result="effect1_dropShadow_44_8906"/>
<feBlend mode="normal" in="SourceGraphic" in2="effect1_dropShadow_44_8906" result="shape"/>
</filter>
</defs>
</svg>
