<svg width="120" height="120" viewBox="0 0 120 120" fill="none" xmlns="http://www.w3.org/2000/svg">
<circle cx="60" cy="60" r="58.5" stroke="white" stroke-width="3"/>
<g filter="url(#filter0_d_38996_9059)">
<circle cx="60" cy="60" r="52" fill="white"/>
</g>
<path d="M66.9002 29.508C70.3369 29.3808 73.2391 30.9861 75.8104 33.2024C71.9152 31.2153 67.7399 30.5272 63.4119 30.6291C62.3172 30.6546 61.2225 30.7566 60.1277 30.884C58.5494 31.0623 57.8877 32.2341 57.4549 33.5842C56.3347 37.0234 56.564 40.4117 57.7606 43.8254C58.2443 45.2011 58.4216 46.7046 58.8035 48.1057C59.72 51.3919 60.5348 54.729 61.7313 57.9133C62.1131 58.9578 63.3865 59.9774 64.4813 60.385C68.7837 61.939 73.1879 62.7788 77.7449 61.2248C83.473 59.2633 86.4262 53.1499 84.2625 47.469C83.4478 45.3545 82.4545 43.3157 81.4871 41.2522C81.3088 40.8703 80.8765 40.59 80.5457 40.2844C79.5528 39.3418 78.4329 38.4754 77.5418 37.4309C76.7017 36.4374 76.7265 35.1893 77.4647 34.1194C78.1775 33.0749 79.3238 32.8199 80.5203 33.0237C82.3787 33.3294 83.5753 34.476 84.1863 36.1828C84.7719 37.8387 84.2117 39.2656 82.7606 40.5139C84.6699 42.0934 85.3059 44.361 85.866 46.6028C86.3242 48.4369 86.3246 50.3985 86.8592 52.2326C87.7502 55.2642 88.9729 58.2197 89.9149 61.2512C90.9586 64.5629 91.8497 67.9259 92.868 71.2375C93.2753 72.5621 93.8609 73.8359 94.3445 75.135C95.0065 76.8927 96.661 77.5044 98.1121 78.3196C99.2832 78.9819 99.8942 79.8482 99.5887 81.2239C99.3086 82.5229 98.4685 83.3382 96.9158 83.2873C93.7336 83.16 90.5765 82.8539 87.4197 82.5227C86.8853 82.4718 86.325 81.9118 85.9432 81.4534C83.8046 78.8803 81.6909 76.2814 79.6033 73.6828C78.1522 71.8741 77.0833 69.8866 76.5232 67.6194C76.2177 66.4222 75.5043 65.3017 74.9188 64.1809C74.7915 63.9261 74.4351 63.6967 74.1551 63.6457C72.4749 63.3146 70.7946 62.9066 69.3436 64.384C68.9871 64.7661 68.4016 64.9703 67.8924 65.1487C67.0015 65.4544 66.5947 66.015 66.9256 66.8811C68.6821 71.594 67.6122 76.4599 67.9432 81.2746C68.045 82.6503 68.3512 84.0259 68.4022 85.4016C68.4276 85.9875 68.1728 86.8283 67.7654 87.134C64.3795 89.6815 60.5863 90.1142 56.6912 88.7131C54.7564 87.9998 53.4577 86.599 53.1522 84.2043C52.5666 79.2366 51.7769 74.2939 50.7586 69.4026C50.3512 67.3647 49.3079 65.4282 48.366 63.5432C45.9221 58.6774 45.2348 53.6334 46.1004 48.2326C46.8132 43.7491 47.78 39.469 50.7586 35.928C51.6241 34.909 52.7189 34.0939 53.7117 33.2024C53.8899 33.0495 54.1197 32.9219 54.2215 32.6926C50.3009 32.7436 46.7621 33.8395 43.2742 35.47C39.2773 37.3042 37.3676 40.8957 34.949 44.1565C34.7708 44.4112 34.7712 44.8447 34.7967 45.2014C35.1786 48.8443 36.6035 52.1563 38.0037 55.468C38.3855 56.334 38.5129 57.3273 38.742 58.2698C38.8948 58.9576 39.0475 59.6717 39.0984 60.385C39.1748 61.4549 39.303 62.576 39.1248 63.6203C38.8194 65.2251 38.9466 65.7093 40.6014 65.9641C43.1471 66.2188 45.795 66.4729 48.3152 66.7532C45.0312 67.7467 41.7215 67.5942 38.3865 65.3782C37.4955 66.4991 36.5276 67.6456 35.6365 68.8684C34.6946 70.2185 33.8802 71.6706 32.9383 73.0207C31.8945 74.5238 31.5122 76.1544 31.6141 77.9631C31.7412 80.281 30.8248 81.4529 28.5594 81.8606C23.9005 82.7013 19.7246 79.2366 19.699 74.5237C19.699 73.3773 19.6482 72.2305 19.6736 71.1096C19.7246 68.9698 20.8197 67.1607 21.7107 65.301C23.4419 61.7091 25.2497 58.1422 26.7772 54.4739C28.9157 49.3535 32.3527 45.0989 35.535 40.6409C35.6368 40.5136 35.7643 40.3864 35.8406 40.2336C38.8193 34.8074 44.1142 33.5331 49.5623 32.4631C52.4646 31.9027 55.3163 31.0371 58.2186 30.5276C61.0699 30.0181 63.998 29.6099 66.9002 29.508ZM74.5623 56.1301C74.9696 56.1302 75.3767 56.3339 75.784 56.4358C75.784 56.614 75.8347 56.7927 75.8602 56.9455C74.9438 57.5059 74.0269 58.0666 72.9832 58.7034C73.1107 59.9766 74.435 59.5184 75.3514 59.926C73.8748 60.0279 72.5 60.1298 70.9471 60.2317C71.4307 60.0789 71.8127 60.0789 72.0418 59.8752C72.3473 59.6205 72.6021 59.2631 72.7039 58.9065C72.7286 58.779 72.2201 58.4733 71.9402 58.3205C71.6094 58.1423 71.1509 58.1678 70.8963 57.9133C70.6163 57.6586 70.2847 57.0975 70.3865 56.9192C70.5648 56.6136 71.0487 56.3335 71.4559 56.2825C72.4742 56.1551 73.5185 56.1301 74.5623 56.1301ZM66.8484 47.7493C67.2812 47.2652 68.3759 47.0359 69.0633 47.1887C70.0051 47.4179 69.7767 48.3855 69.5731 49.1243C69.4458 49.5573 69.1653 49.9656 69.0125 50.3987C68.6052 51.6214 68.2489 52.8446 67.8416 54.1438C66.2633 54.2712 64.9647 52.6659 65.4227 50.6535C65.6518 49.6091 66.1612 48.5135 66.8484 47.7493ZM75.6307 46.425C75.9616 46.2722 76.6746 46.5774 77.0311 46.883C77.9475 47.6728 78.915 48.4628 79.577 49.4563C79.9079 49.9913 79.7807 50.9853 79.5516 51.6477C79.3733 52.1317 78.7111 52.6405 78.202 52.7424C77.871 52.7933 77.3366 52.1822 77.0057 51.7746C76.4457 51.0869 75.962 50.3737 75.4783 49.6096C75.122 49.1256 74.8923 48.5396 74.5106 47.801C74.8924 47.2915 75.1725 46.6289 75.6307 46.425ZM61.7068 34.1985C63.2598 33.6637 65.4487 34.5304 66.3143 36.0588C66.8234 36.9759 67.0272 37.7144 65.907 38.5041C64.125 39.7524 62.5215 41.2303 60.5867 42.8352C59.1101 42.2238 58.4984 40.7715 58.2947 39.0647C58.0656 37.205 59.7465 34.8863 61.7068 34.1985Z" fill="#20113D"/>
<defs>
<filter id="filter0_d_38996_9059" x="4" y="8" width="112" height="112" filterUnits="userSpaceOnUse" color-interpolation-filters="sRGB">
<feFlood flood-opacity="0" result="BackgroundImageFix"/>
<feColorMatrix in="SourceAlpha" type="matrix" values="0 0 0 0 0 0 0 0 0 0 0 0 0 0 0 0 0 0 127 0" result="hardAlpha"/>
<feOffset dy="4"/>
<feGaussianBlur stdDeviation="2"/>
<feColorMatrix type="matrix" values="0 0 0 0 0 0 0 0 0 0 0 0 0 0 0 0 0 0 0.25 0"/>
<feBlend mode="normal" in2="BackgroundImageFix" result="effect1_dropShadow_38996_9059"/>
<feBlend mode="normal" in="SourceGraphic" in2="effect1_dropShadow_38996_9059" result="shape"/>
</filter>
</defs>
</svg>
