<svg width="50" height="50" viewBox="0 0 50 50" fill="none" xmlns="http://www.w3.org/2000/svg">
<path fill-rule="evenodd" clip-rule="evenodd" d="M50 25C50 38.8071 38.8071 50 25 50C11.1929 50 0 38.8071 0 25C0 11.1929 11.1929 0 25 0C38.8071 0 50 11.1929 50 25ZM6.66147 36.2796C6.2968 36.7345 5.9199 37.2046 5.52051 37.6928C5.95543 37.7208 6.27704 37.757 6.54604 37.7872C6.74332 37.8094 6.9123 37.8284 7.07693 37.8387C7.91282 37.8387 8.85052 37.7979 9.80504 37.7565C11.1832 37.6967 12.5965 37.6353 13.789 37.6928C14.4485 37.9526 14.6646 38.0974 15.0716 38.3702C15.1598 38.4294 15.257 38.4946 15.3697 38.5682C20.9388 42.2161 26.824 42.8484 32.6119 39.6626C33.9981 38.8844 36.4057 37.7414 36.4057 37.7414C36.4057 37.7414 39.2024 37.79 40.5156 37.863C41.3668 37.9116 42.218 37.8873 43.0691 37.863C43.2915 37.863 43.5059 37.8392 43.7713 37.8097C43.9704 37.7875 44.1982 37.7622 44.4796 37.7414C44.3065 37.5071 44.1674 37.3069 44.0447 37.1302C43.8743 36.885 43.7353 36.6848 43.5798 36.5011C43.4704 36.3636 43.361 36.2257 43.2515 36.0875C42.5087 35.151 41.7587 34.2054 40.9534 33.3153C40.2724 32.5614 40.1509 31.9535 40.54 30.9564C44.6012 20.4992 37.2812 9.06921 26.1188 8.36395C14.0808 7.58574 5.20436 19.6237 9.53315 30.9077C9.92226 31.9291 9.77634 32.5857 9.09541 33.364C8.26619 34.2778 7.49585 35.2387 6.66147 36.2796ZM30.8626 18.8266C28.9529 21.1359 27.0187 23.4748 25.0244 25.8737C23.3759 23.8858 21.7516 21.9342 20.1424 20.0007C18.523 18.0551 16.919 16.1278 15.3211 14.2005C19.4553 9.7015 28.6236 8.58283 34.752 14.1276C33.4594 15.6867 32.1667 17.2498 30.8626 18.8266ZM24.9758 37.4009C24.9758 37.4009 28.5993 32.3426 28.9398 31.8319C30.3169 33.058 31.6061 34.211 32.8644 35.3363C33.2282 35.6617 33.5895 35.9847 33.9495 36.3066C30.0098 40.4408 20.9874 40.9758 16.002 36.3795L16.0061 36.3759C17.6584 34.8937 19.3109 33.4113 21.1333 31.7832C21.717 32.8046 24.9758 37.4009 24.9758 37.4009ZM11.5516 30.3727C10.1411 28.0867 9.99522 23.2472 11.2841 20.0857C11.4629 20.3814 11.6401 20.6737 11.8157 20.9633C12.8099 22.6036 13.7514 24.1569 14.6402 25.7278C14.7618 25.9466 14.7131 26.4573 14.5429 26.6762C13.8148 27.647 13.0436 28.5749 12.2625 29.5147C12.0262 29.7991 11.7889 30.0846 11.5516 30.3727ZM38.8133 20.0857C39.9563 23.6606 39.8833 26.9437 38.6188 30.47C38.5394 30.3741 38.4609 30.2793 38.3833 30.1856C37.3195 28.9006 36.4175 27.8111 35.5789 26.7005C35.4086 26.4573 35.3357 25.971 35.4816 25.7278C36.2205 24.4082 36.9977 23.1141 37.8314 21.7258C38.1501 21.1951 38.4771 20.6507 38.8133 20.0857Z" fill="white"/>
</svg>
