<svg width="69" height="82" viewBox="0 0 69 82" fill="none" xmlns="http://www.w3.org/2000/svg">
<g filter="url(#filter0_d_44_8903)">
<path d="M34.1085 18.7188C26.3098 18.7188 20 24.7067 20 32.0855C20 39.4643 34.1085 60.6106 34.1085 60.6106C34.1085 60.6106 48.2171 39.4643 48.2171 32.0855C48.2171 24.7067 41.9072 18.7188 34.1085 18.7188Z" fill="#F58021"/>
<path fill-rule="evenodd" clip-rule="evenodd" d="M31.1829 33.397C30.3364 33.6476 29.4834 33.6091 28.6238 33.05C28.5577 33.1312 28.4901 33.2131 28.4217 33.2957C28.2523 33.5006 28.0787 33.7106 27.9151 33.9304C27.7937 34.1007 27.6805 34.2774 27.5673 34.4541L27.5672 34.4541L27.5672 34.4541C27.4541 34.6309 27.3409 34.8076 27.2195 34.9778C26.9504 35.357 26.852 35.7683 26.8783 36.2245C26.9111 36.8093 26.6748 37.1049 26.0908 37.2078C24.89 37.4198 23.8138 36.5458 23.8072 35.357C23.8072 35.2409 23.8051 35.1248 23.803 35.0091C23.7999 34.8367 23.7967 34.6651 23.8007 34.4959C23.8117 34.0421 24.0129 33.6473 24.2132 33.2543L24.2132 33.2543C24.2511 33.1798 24.289 33.1054 24.3256 33.0307C24.4203 32.8385 24.5158 32.6466 24.6113 32.4547L24.6114 32.4547L24.6114 32.4546L24.6114 32.4545C24.9663 31.7417 25.3213 31.0286 25.6315 30.2995C26.0874 29.2311 26.7724 28.3121 27.4597 27.3899L27.4597 27.3899C27.6033 27.1972 27.7471 27.0044 27.8888 26.8101C27.8956 26.8017 27.9029 26.7934 27.9102 26.7849L27.9102 26.7849C27.9312 26.7608 27.953 26.7358 27.9675 26.7072C28.7353 25.3385 30.1002 25.0171 31.5045 24.7472C31.8508 24.6818 32.1943 24.5998 32.5375 24.5179L32.5376 24.5179C32.9358 24.4228 33.3338 24.3279 33.7356 24.2588C34.4705 24.1303 35.2251 24.0275 35.9732 24.0018C36.8591 23.9697 37.6072 24.3745 38.2699 24.9336C37.2659 24.4323 36.1898 24.2588 35.0742 24.2845C34.7921 24.291 34.5099 24.3167 34.2277 24.3488C33.8209 24.3938 33.6503 24.6894 33.5387 25.03C33.25 25.8975 33.309 26.7522 33.6175 27.6133C33.6918 27.8202 33.7381 28.0386 33.7843 28.256C33.8156 28.4033 33.8467 28.5502 33.8865 28.693C33.9372 28.8708 33.9867 29.0493 34.0362 29.2279C34.2174 29.8814 34.3989 30.5361 34.6411 31.1671C34.7396 31.4305 35.0677 31.6876 35.3498 31.7904C36.4588 32.1824 37.594 32.3945 38.7686 32.0025C40.2451 31.5077 41.0063 29.9654 40.4485 28.5323C40.2698 28.0783 40.0578 27.6383 39.8449 27.1964C39.8076 27.1191 39.7704 27.0418 39.7333 26.9643C39.6993 26.893 39.6294 26.8357 39.5607 26.7795C39.5366 26.7598 39.5126 26.7402 39.4905 26.7201C39.4056 26.6413 39.3171 26.5645 39.2284 26.4876L39.2284 26.4876L39.2284 26.4876L39.2284 26.4876C39.0495 26.3325 38.8696 26.1765 38.7161 26.0004C38.4996 25.7497 38.5062 25.4348 38.6965 25.1649C38.8802 24.9015 39.1755 24.8372 39.4839 24.8886C39.9629 24.9657 40.2713 25.2549 40.4288 25.6855C40.5798 26.1032 40.4354 26.463 40.0614 26.7779C40.5535 27.1764 40.7176 27.7483 40.8619 28.3138C40.9166 28.5279 40.9459 28.7489 40.9754 28.9704V28.9705C41.0095 29.2276 41.0438 29.4854 41.1178 29.734C41.2415 30.1456 41.3898 30.5516 41.5383 30.9581C41.6657 31.3068 41.7932 31.6558 41.9053 32.0089C42.0508 32.4609 42.1849 32.9166 42.3188 33.372L42.3188 33.3721L42.3189 33.3723L42.3189 33.3724C42.4325 33.7586 42.546 34.1447 42.6665 34.528C42.7336 34.7417 42.8195 34.9501 42.9053 35.1582L42.9054 35.1584C42.9538 35.2758 43.0021 35.3931 43.0471 35.5112C43.1909 35.885 43.5165 36.0533 43.8393 36.2201L43.8393 36.2201C43.8995 36.2512 43.9595 36.2822 44.0183 36.3145C44.3201 36.4816 44.4776 36.7001 44.3988 37.0471C44.3267 37.3748 44.1101 37.5805 43.7098 37.5676C42.8896 37.5355 42.0759 37.4584 41.2622 37.3748C41.1244 37.362 40.98 37.2206 40.8816 37.1049C40.3304 36.4559 39.7857 35.8004 39.2477 35.1449C38.8736 34.6887 38.598 34.1874 38.4537 33.6155C38.3923 33.3801 38.2672 33.1565 38.1436 32.9355L38.1435 32.9354C38.1085 32.8727 38.0736 32.8103 38.0402 32.7479C38.0074 32.6837 37.9156 32.6258 37.8434 32.613L37.7916 32.6029C37.3758 32.522 36.9623 32.4415 36.6032 32.7993C36.5118 32.8953 36.3619 32.9466 36.2311 32.9915L36.2291 32.9921C35.9995 33.0692 35.8945 33.2106 35.9798 33.4291C36.2825 34.2239 36.2596 35.036 36.2367 35.8499V35.85V35.85V35.85C36.2254 36.2535 36.214 36.6574 36.2423 37.06C36.2539 37.2142 36.276 37.3684 36.298 37.5226C36.3255 37.7154 36.3531 37.9082 36.3604 38.101C36.3669 38.2488 36.3013 38.4609 36.1963 38.538C35.3236 39.1806 34.3458 39.2899 33.3418 38.9364C32.8431 38.7565 32.5085 38.403 32.4297 37.799C32.2788 36.5458 32.0754 35.2992 31.8129 34.0653C31.7184 33.6025 31.4909 33.1605 31.2693 32.7299L31.2692 32.7298C31.2447 32.6822 31.2203 32.6347 31.1961 32.5873C30.5661 31.3599 30.3889 30.0875 30.612 28.7251C30.7958 27.5941 31.0451 26.5145 31.8129 25.6212C31.9712 25.4388 32.1594 25.2822 32.3467 25.1263L32.3467 25.1263L32.3467 25.1263L32.3468 25.1263C32.4234 25.0625 32.4998 24.9989 32.5741 24.9336C32.5853 24.9242 32.5973 24.9151 32.6095 24.906C32.6469 24.8778 32.6855 24.8488 32.7053 24.8051C31.6948 24.8179 30.7827 25.0943 29.8837 25.5055C29.0415 25.8838 28.5589 26.5583 28.0702 27.2413L28.0702 27.2413C27.9611 27.3938 27.8517 27.5467 27.7379 27.6969C27.6919 27.7611 27.6919 27.8704 27.6985 27.9604C27.7949 28.86 28.1491 29.6795 28.5025 30.4974L28.5025 30.4974L28.5253 30.5501C28.5956 30.7062 28.6325 30.8787 28.6693 31.0511C28.684 31.1201 28.6987 31.1891 28.7156 31.257C28.755 31.4305 28.7944 31.6105 28.8075 31.7904C28.8102 31.827 28.8131 31.8638 28.816 31.9008C28.8346 32.1366 28.8538 32.3788 28.8141 32.6066C28.7353 33.0114 28.7681 33.1335 29.1946 33.1978L29.6103 33.2382L29.6103 33.2382H29.6103C30.1356 33.2893 30.6695 33.3411 31.1829 33.397ZM34.3455 27.363C33.9649 27.2088 33.8074 26.8425 33.7549 26.4119C33.6959 25.9428 34.129 25.358 34.6343 25.1845C35.0345 25.0495 35.5989 25.268 35.822 25.6536C35.9532 25.8849 36.0057 26.0713 35.717 26.2705C35.3903 26.4945 35.0869 26.7476 34.7595 27.0208L34.7594 27.0209L34.7594 27.0209C34.6265 27.1318 34.4895 27.2461 34.3455 27.363ZM35.5924 29.3357C35.4742 29.8433 35.8089 30.2482 36.2158 30.2161C36.2526 30.1011 36.2878 29.9886 36.3225 29.8775L36.3225 29.8774L36.3226 29.8774C36.3868 29.6719 36.4495 29.4716 36.5176 29.2714C36.5357 29.2213 36.5606 29.1726 36.5855 29.124L36.5855 29.124C36.6149 29.0665 36.6442 29.0093 36.662 28.9501C36.7145 28.7637 36.7735 28.5195 36.5307 28.4617C36.3536 28.4231 36.0714 28.481 35.9598 28.6031C35.7827 28.7959 35.6514 29.0722 35.5924 29.3357ZM38.0176 28.4948L38.0176 28.4947C38.0803 28.398 38.1406 28.3048 38.2235 28.2687C38.3088 28.2301 38.4926 28.3073 38.5844 28.3844L38.6454 28.4356L38.6454 28.4356C38.8628 28.6181 39.0847 28.8043 39.2406 29.0334C39.326 29.1684 39.2931 29.419 39.2341 29.5861C39.1881 29.7082 39.0175 29.8367 38.8863 29.8624C38.801 29.8753 38.6632 29.721 38.5779 29.6182C38.4335 29.4447 38.3088 29.2648 38.1842 29.072C38.1206 28.9875 38.0728 28.8908 38.0168 28.7775C37.9918 28.727 37.9652 28.6732 37.9348 28.6157C37.9641 28.5775 37.9911 28.5358 38.0176 28.4948ZM38.2787 30.9249L38.2827 30.9225C38.2808 30.9115 38.2784 30.9 38.2759 30.8882C38.2697 30.8583 38.263 30.8262 38.263 30.794C38.228 30.7854 38.193 30.774 38.158 30.7626C38.088 30.7397 38.018 30.7169 37.948 30.7169C37.679 30.7169 37.4099 30.7233 37.1474 30.7554C37.0425 30.7683 36.9178 30.839 36.8718 30.9161C36.8456 30.9611 36.9309 31.1024 37.0031 31.1667C37.0414 31.2042 37.0977 31.2177 37.1548 31.2313C37.1955 31.241 37.2367 31.2508 37.2721 31.2695C37.3443 31.3081 37.4755 31.3852 37.469 31.4173C37.4427 31.5073 37.3771 31.5973 37.2984 31.6615C37.2602 31.6947 37.2057 31.7065 37.1383 31.721C37.1013 31.729 37.0604 31.7378 37.0162 31.7515C37.2709 31.7351 37.507 31.7188 37.7431 31.7024C37.8781 31.6931 38.013 31.6837 38.1514 31.6744C38.074 31.6407 37.9852 31.6304 37.8997 31.6206C37.7246 31.6004 37.5632 31.5819 37.5412 31.3659C37.8087 31.2062 38.0438 31.0655 38.2787 30.9249Z" fill="#20113D"/>
</g>
<defs>
<filter id="filter0_d_44_8903" x="-3.25586" y="-2.97277" width="75" height="90" filterUnits="userSpaceOnUse" color-interpolation-filters="sRGB">
<feFlood flood-opacity="0" result="BackgroundImageFix"/>
<feColorMatrix in="SourceAlpha" type="matrix" values="0 0 0 0 0 0 0 0 0 0 0 0 0 0 0 0 0 0 127 0" result="hardAlpha"/>
<feOffset dy="1.28114"/>
<feGaussianBlur stdDeviation="10"/>
<feColorMatrix type="matrix" values="0 0 0 0 0.960784 0 0 0 0 0.501961 0 0 0 0 0.129412 0 0 0 0.5 0"/>
<feBlend mode="normal" in2="BackgroundImageFix" result="effect1_dropShadow_44_8903"/>
<feBlend mode="normal" in="SourceGraphic" in2="effect1_dropShadow_44_8903" result="shape"/>
</filter>
</defs>
</svg>
