<svg width="69" height="82" viewBox="0 0 69 82" fill="none" xmlns="http://www.w3.org/2000/svg">
<g filter="url(#filter0_d_44_8907)">
<path d="M34.1085 18.7188C26.3098 18.7188 20 24.7067 20 32.0855C20 39.4643 34.1085 60.6106 34.1085 60.6106C34.1085 60.6106 48.2171 39.4643 48.2171 32.0855C48.2171 24.7067 41.9072 18.7188 34.1085 18.7188Z" fill="#F58021"/>
<path d="M29.041 35.6826C29.0289 35.7039 29.0188 35.7283 28.9945 35.7709C28.7227 35.318 28.6433 34.8175 28.5467 34.3239C28.5293 34.3177 28.5089 34.3135 28.4936 34.3103C28.4351 34.4597 28.3572 34.5997 28.3222 34.7513C28.2008 35.2476 28.2384 35.7448 28.3585 36.2406C28.5055 36.8292 28.6525 37.4178 28.7781 38.0073C28.8715 38.4499 28.9263 38.9004 28.8292 39.354C28.7232 39.8535 28.5006 40.2574 27.994 40.4468C27.7681 40.5299 27.5459 40.5 27.3407 40.3836C27.1405 40.2683 27.1143 40.0644 27.2869 39.9148C27.3894 39.8248 27.5062 39.7297 27.6324 39.6816C27.8816 39.5875 28.0093 39.41 28.0287 39.1626C28.0472 38.9336 28.0544 38.6943 28.0137 38.469C27.9014 37.8663 27.7666 37.2696 27.6236 36.6739C27.4631 36.0058 27.3688 35.3381 27.4843 34.6554C27.5849 34.0622 27.8427 33.5597 28.316 33.1756C28.3505 33.1483 28.382 33.1231 28.4165 33.0958C28.4379 33.0817 28.4582 33.0726 28.4968 33.0515C28.5268 33.1688 28.5507 33.2769 28.5776 33.383C28.7356 32.6323 28.7815 31.8453 29.4109 31.2738C30.336 31.7898 30.8495 32.5916 31.0573 33.6134C31.2412 32.4473 30.5402 31.6414 29.8553 30.807C30.0261 30.7073 30.1877 30.6135 30.3493 30.5198C30.4866 30.4423 30.6238 30.3647 30.762 30.282C31.0731 30.1027 31.0822 30.0966 31.2933 30.3994C31.4911 30.6889 31.6645 30.9945 31.8449 31.291C31.8788 31.3483 31.9096 31.4075 31.9607 31.4578C31.926 30.9188 31.7041 30.4417 31.4332 29.9573C31.7422 29.7881 32.0432 29.6199 32.3523 29.4639C32.394 29.4408 32.4787 29.482 32.5308 29.5139C33.12 29.8761 33.4655 30.4263 33.7054 31.0552C33.7774 31.242 33.8403 31.4349 33.9236 31.6187C33.9209 30.6735 33.4411 29.9026 32.9499 29.1081C33.3005 28.8761 33.642 28.6501 34.0047 28.4099C34.3495 28.7747 34.5541 29.2455 34.778 29.7123C34.799 29.3489 34.6999 29.0162 34.5224 28.7045C34.4599 28.591 34.3942 28.4796 34.3194 28.3742C34.2282 28.2443 34.2298 28.1282 34.3425 28.0138C34.5698 27.7881 34.793 27.5563 35.0204 27.3305C35.9264 27.9168 36.4695 28.7166 36.6742 29.7537C36.723 29.2081 36.5774 28.6939 36.3778 28.1976C36.1792 27.6963 35.8566 27.2726 35.4516 26.877C35.9125 26.4612 36.3572 26.0607 36.814 25.6521C37.2367 26.1334 37.5849 26.602 37.7523 27.1816C37.707 26.5478 37.4989 25.9731 37.0924 25.4369C37.309 25.3333 37.4991 25.2296 37.6974 25.1514C37.7402 25.1364 37.8188 25.1817 37.8729 25.2166C38.1109 25.3689 38.3649 25.453 38.6542 25.4385C38.3208 25.3671 38.1334 25.1327 37.9856 24.8588C37.8799 24.6677 37.9498 24.5551 38.1576 24.537C38.5038 24.5025 38.847 24.4568 39.1891 24.4029C39.4243 24.3667 39.6512 24.2917 39.8864 24.2555C40.2418 24.2017 40.5681 24.2822 40.8978 24.4401C41.1448 24.5598 41.4343 24.5983 41.7106 24.6499C41.8789 24.6846 42.0343 24.8251 42.0411 24.9932C42.0446 25.1103 42.0512 25.2254 42.0659 25.3396C42.1089 25.6607 42.0111 25.929 41.791 26.172C41.7705 26.1414 41.7531 26.1219 41.7418 26.0984C41.641 25.8554 41.643 25.8584 41.3906 25.9149C41.1514 25.9715 40.9214 26.0485 40.7572 26.2501C40.5676 26.4862 40.5473 26.7652 40.7162 26.972C40.8524 27.1429 41.2275 27.1911 41.4501 27.0703C41.4918 27.0471 41.5335 27.0239 41.5752 27.0008C41.6872 27.2541 41.6493 27.4474 41.4492 27.6152C41.2908 27.7466 41.117 27.8616 40.9362 27.999C40.7279 27.8714 40.5062 27.7305 40.2786 27.6068C40.0458 27.4821 39.804 27.39 39.4976 27.4777C39.6161 27.5365 39.7049 27.5839 39.8274 27.6488C39.3229 27.8545 38.9838 28.1762 38.7963 28.6721C38.7314 28.4894 38.6685 28.3097 38.5913 28.0954C38.5091 29.2162 39.382 30.727 41.0946 31.2439C41.0153 31.2699 40.9532 31.2889 40.8901 31.3129C40.8922 31.3292 40.8913 31.3476 40.8934 31.3639C40.9657 31.3603 41.036 31.3668 41.1052 31.352C41.3434 31.3005 41.5785 31.2378 41.8188 31.1894C42.0509 31.142 42.261 31.2064 42.4797 31.3626C42.1718 31.5664 41.8882 31.7541 41.6078 31.9397C41.3679 32.0941 41.1302 32.2515 40.8862 32.3997C40.8384 32.4269 40.757 32.4365 40.711 32.4138C39.7474 31.9454 38.7258 31.7455 37.6672 31.7338C37.3228 31.7317 37.0158 31.6472 36.7349 31.4438C36.6603 31.3914 36.5735 31.3603 36.4696 31.3495C36.5852 31.4765 36.6978 31.6055 36.8349 31.7581C35.5529 31.9386 34.3891 32.3682 33.32 33.0714C33.1836 32.8343 33.0554 32.6094 32.9292 32.3876C32.918 32.3906 32.9098 32.3916 32.8986 32.3945C32.9172 32.4619 32.9297 32.5333 32.9565 32.5996C33.0882 32.9417 33.062 33.2776 32.9544 33.6232C32.7078 34.4059 32.1916 34.9955 31.6386 35.5695C31.3321 35.8874 31.0584 36.2412 30.7888 36.5878C30.583 36.8523 30.4762 37.1664 30.4704 37.5065C30.4706 37.5595 30.4546 37.6144 30.4436 37.6836C30.3885 37.6537 30.3425 37.631 30.2854 37.5981C30.2906 37.6256 30.2896 37.6439 30.2958 37.6531C30.5621 38.0255 30.8901 38.273 31.3819 38.1865C31.5631 38.155 31.7354 38.1826 31.8818 38.3689C31.8148 38.4133 31.7507 38.4556 31.6898 38.496C31.2172 38.8088 30.7427 39.1185 30.2773 39.4354C30.1706 39.506 30.1064 39.4954 30.0062 39.4245C29.6527 39.1718 29.4333 38.817 29.2322 38.4501C29.1583 38.3131 29.1382 38.1317 29.1407 37.9708C29.1427 37.4473 29.1742 36.922 29.1742 36.3954C29.1763 36.155 29.1255 35.9144 29.1011 35.6738C29.0807 35.6829 29.0624 35.6817 29.041 35.6826ZM39.9699 24.7623C39.967 24.7908 39.9671 24.8172 39.9641 24.8457C40.1222 24.8915 40.2794 24.9557 40.4415 24.9811C40.5006 24.9907 40.5736 24.9025 40.6407 24.8581C40.5814 24.8089 40.523 24.7148 40.4649 24.7134C40.2988 24.7083 40.1329 24.7429 39.9699 24.7623Z" fill="#20113D"/>
<path d="M33.7453 35.3666C33.7188 35.3664 33.6587 35.362 33.5661 35.3614C33.8337 35.5912 34.1179 35.6021 34.4019 35.5733C34.7398 35.5397 35.0756 35.4766 35.4135 35.4431C35.6131 35.426 35.8057 35.4709 35.9317 35.6795C35.8881 35.7128 35.8495 35.7472 35.8068 35.7754C35.301 36.1104 34.7973 36.4484 34.2843 36.7792C34.2142 36.8256 34.1033 36.8372 34.0187 36.8224C33.765 36.7781 33.5173 36.7165 33.2666 36.6569C32.973 36.5858 32.7932 36.4218 32.7685 36.1019C32.761 35.9918 32.7005 35.8815 32.6431 35.7824C32.5293 35.5923 32.4003 35.4122 32.2713 35.219C32.7431 34.7871 32.9415 34.2089 33.1593 33.64C33.2551 33.3952 33.4092 33.2312 33.6552 33.1258C33.8567 33.3551 34.0246 33.5934 33.9516 33.9249C33.9205 34.0561 33.8874 34.1842 33.8686 34.3205C33.8261 34.6583 33.7877 35.0023 33.7453 35.3666Z" fill="#20113D"/>
<path d="M35.3101 32.3075C35.9277 32.1861 36.4954 32.0756 37.0825 31.9611C37.1723 32.5563 37.0036 33.1591 37.2725 33.7197C37.181 33.7538 37.0986 33.7818 37.0153 33.8149C37.0164 33.8363 37.0205 33.8556 37.0216 33.877C37.1519 33.8748 37.2874 33.8868 37.4146 33.8601C37.6221 33.8156 37.8183 33.7343 38.0248 33.6816C38.2588 33.624 38.4404 33.7249 38.6071 33.9153C38.4091 34.0465 38.2171 34.1736 38.0282 34.2987C37.6839 34.5267 37.3437 34.7608 36.9932 34.9796C36.9303 35.0169 36.8203 35.0234 36.7479 35.0005C36.4574 34.9142 36.2611 34.6992 36.1511 34.4358C35.8603 33.7436 35.5959 33.0384 35.3101 32.3075Z" fill="#20113D"/>
</g>
<defs>
<filter id="filter0_d_44_8907" x="-3.25586" y="-2.97277" width="75" height="90" filterUnits="userSpaceOnUse" color-interpolation-filters="sRGB">
<feFlood flood-opacity="0" result="BackgroundImageFix"/>
<feColorMatrix in="SourceAlpha" type="matrix" values="0 0 0 0 0 0 0 0 0 0 0 0 0 0 0 0 0 0 127 0" result="hardAlpha"/>
<feOffset dy="1.28114"/>
<feGaussianBlur stdDeviation="10"/>
<feColorMatrix type="matrix" values="0 0 0 0 0.960784 0 0 0 0 0.501961 0 0 0 0 0.129412 0 0 0 0.5 0"/>
<feBlend mode="normal" in2="BackgroundImageFix" result="effect1_dropShadow_44_8907"/>
<feBlend mode="normal" in="SourceGraphic" in2="effect1_dropShadow_44_8907" result="shape"/>
</filter>
</defs>
</svg>
